<svg xmlns="http://www.w3.org/2000/svg" viewBox="0 0 256.3 256.2"><g data-name="Layer 2"><g data-name="Layer 1"><path fill="#fff" d="M.3.1h256v256H.3z"/><path d="M173.8 0h82.3a2.7 2.7 0 01.1 1.4v165.8a4.5 4.5 0 010 1.4c-.7.5-1.6.4-2.3.4h-63.3a7 7 0 01-2.2-.2c-.8-.4-.4-1-.3-1.6l2.7-10.3 6.2-24.3 8-31c.1-.6.1-1.4 1-1.5H253.8c1.4 0 1.5-.1 1.5-1.5V82.3c0-1.8 0-1.8-2-1.8h-39.5a8 8 0 01-2.3-.2c-.9-.4-.6-1.1-.4-1.8l3.5-13.7 5.8-22.6a44.4 44.4 0 00-4.5 2l-37 17-3.8 1.7c-.5.2-1 .6-1.4-.2a5.4 5.4 0 01-.2-1.8V2.2a3 3 0 01.4-2.2z" fill="#f2f0eb"/><path d="M90.8 0h63a3 3 0 01.4 2.1v67.5a9.9 9.9 0 010 2.2 1.9 1.9 0 01-1.3 1.3l-15.3 7a3 3 0 01-1.2.3c-14.6.2-29.3 0-43.9 0a2.8 2.8 0 01-1.8-.3 4 4 0 01-.4-2.6v-63V2.1a2.7 2.7 0 01.5-2.1zM0 89V1c0-.8.2-1 1-1h52.3a2.8 2.8 0 01.4 2v75.6a4.3 4.3 0 01-.3 2.4 3.5 3.5 0 01-2.4.4H3.4c-3 0-2.7 0-2.7 2.8v4.1A3 3 0 01.4 89a.3.3 0 01-.4.1z" fill="#afe881"/><path d="M53.3 80V0h37.5v80.1a1.8 1.8 0 01.4 1.2v19a2.6 2.6 0 010 .5A1.6 1.6 0 0190 102l-18.6 8.5-17 7.8c-.4.2-1 .8-1.5-.1a2.3 2.3 0 01-.1-.8V81.3a1.8 1.8 0 01.4-1.3z" fill="#ffcf68"/><path d="M0 256v-58a3.2 3.2 0 012.3-.4h49.1a3 3 0 012 .4 2.6 2.6 0 01.3 1.8v54.6a2.4 2.4 0 01-.4 1.7 2.6 2.6 0 01-1.2.1H1.2a2.3 2.3 0 01-1.2-.1zM53.3 100.5v18c-.1.6-.6.7-1 1-8.2 3.6-16.4 7.4-24.5 11.2-.4.2-1 .1-1 .8a41.9 41.9 0 003 4.5l12.9 18.9 8.4 12.4c.3.4 1 1 0 1.5a8.4 8.4 0 01-2 .2H2.4a3.4 3.4 0 01-2.4-.5V89a1 1 0 00.3 0 2.1 2.1 0 01.4 1.8v7c0 2.4 0 2.3 2.2 2.3h48.5a2.4 2.4 0 011.9.4z" fill="#f2f0eb"/><path d="M0 168.6h51.7a7.6 7.6 0 011.9 2.8 2.2 2.2 0 010 .4c.2 3 0 5.9 0 8.8v15.5c0 .7.2 1.4-.4 2H0z" fill="#ffde48"/><path d="M153.8 72.3V0h20v63c0 .5-.3.6-.6.8l-18 8.3a1.3 1.3 0 01-1.4.2z" fill="#fff"/><path d="M153.8 72.3c6.7-3 13.4-6 20-9.3l12.5-5.6 33.1-15.2 1.4-.7-2.3 9.3-7.3 28.4-.2.8a2.4 2.4 0 010 1.5L206.3 99a1.8 1.8 0 01-.6 1.2l-4.2 15.9-13.1 51.1-.3 1.2c.4.9 0 1.7-.3 2.5l-7 27.1c-2 8.3-4.2 16.5-6.3 24.8a1.7 1.7 0 01-.5 1 .8.8 0 01-.4 0c-2.1-1-4-2.3-6-3.5l-14-8.8c-7.1-4.4-14.2-9-21.3-13.3l-22.3-14-16-10.1a4.2 4.2 0 01-1.2-.8.8.8 0 01.2-1 4.6 4.6 0 01.6-.6c4.9-4.7 9.5-9.7 14.3-14.6q9-9.1 17.8-18.4l7.7-7.8 18-18.7 7.7-7.7c5.9-6.3 12-12.3 17.9-18.5l7.7-8 18-18.6 7.9-8c2-2.1 4-4.3 6.2-6.3l1.7-1.6-1.7 1.6c-3.5 3.1-7.1 6-10.7 9L192 66.5l-12 10.1-16 13.6-19.3 16.4-25.7 21.9-18.8 15.9-20.5 17.4a6.8 6.8 0 01-2.4 1.8 19.8 19.8 0 01-3.9-2.3l-20.3-12.7-20-12.6c-2.2-1.4-4.6-2.5-6.6-4.4-.8-.7.2-.7.5-.9l13.3-6 13-6 37.5-17.3c1-1.2 2.5-1.5 3.8-2l21.1-9.8 19-8.7a20.5 20.5 0 012-.6 792 792 0 0017.1-8z" fill="#0093fd"/><path d="M180.6 198l4.6-18 3-11.5H256V198a2.5 2.5 0 01-1.9.5H183c-.8 0-1.7.2-2.4-.5z" fill="#ffde48"/><path d="M205.8 100.3l3.4-13.6L211 80h42.8c1.8 0 1.8 0 1.8 1.8V99c0 1.1-.2 1.5-1.4 1.5H207c-.4 0-1 .2-1.3-.2zM136.8 80l-13.2 6.2-32 14.8-.8.2V80h46zM53.3 100.5H1.6c-1.2 0-1.5-.4-1.4-1.5V89 81c0-.9.2-1.1 1-1.1h52v20.5z" fill="#fff"/><path d="M90.8 256H53.3v-19.6-38.3-26.8c.8 0 1 .7 1.3 1.2l8.3 12 17.6 26a13.2 13.2 0 001.3 1.6l.3.3 6.6.8a5.2 5.2 0 012.2.5 1 1 0 01.2.4 5.3 5.3 0 01.2 1.7V254a2.8 2.8 0 01-.5 2.2z" fill="#ffcf68"/><path d="M26.5 131.5l8.8 5.4 17.4 11 .6.4a3 3 0 01.4 1.7v17a2.5 2.5 0 01-.3 1.5c-.6.6-1.2.4-1.8.1L41.8 154 27.3 133a3.1 3.1 0 01-.8-1.4z" fill="#d8d7d3"/><path d="M53.3 168.5v-20.2l16.2 10.1 7.8 5a2.5 2.5 0 01.6 1.7l2.2 25.6 1.7 19.9c0 .6.2 1.2-.3 1.7-2.7-3.4-5-7.1-7.5-10.7l-19.8-29.1-.9-1.2v-.3c-.3-.8-.7-1.6 0-2.5z" fill="#e4ba5d"/><path d="M53.3 168.5v2.6l-1.7-2.5z" fill="#e6c73f"/><path d="M180.6 198h75.5v56.7c0 1-.3 1.4-1.3 1.4h-79.9c-.4 0-.8.1-1.2-.3a2.4 2.4 0 01-.3-1.6v-28.6a2.4 2.4 0 01.4-1.8l2.7-10.2 4.1-15.6z" fill="#b7cfe9"/><path d="M90.8 256v-40.6-1.6a1.6 1.6 0 011.5-.3q15.6 2 31.3 3.8l28.2 3.4a4.4 4.4 0 011.8.5c.4.3.3.6 0 .9l-1.2 1-32 32a3 3 0 01-2.3 1H90.8z" fill="#e4e5e5"/><path d="M153.6 222l.2-.7.2-.1a10.3 10.3 0 013 .2l14.4 1.7a10 10 0 012.2.7.3.3 0 01.2 0v32h-18.6c-1 0-1.4-.3-1.4-1.4v-31c0-.4.2-1-.2-1.3z" fill="#fff"/><path d="M81.5 212.3c0-3.5-.5-7-.8-10.6l-1.4-16.3-1.7-18.6c0-1.2-.2-2.3-.3-3.5l17.6-15 18.8-15.8 14.2-12.1 17.3-14.6 15.6-13.4 17.3-14.6 14.3-12.1L208 52.5l8.8-7.5c.3 0 .4 0 .3.3l-11.8 12.2L187 76.2l-7.2 7.4-18.3 18.8-8 8.3-17.7 18.2-8.3 8.5-17.2 17.8c-2.7 2.8-5.6 5.5-8.3 8.5s-5.6 5.7-8.4 8.6c-.3.3-.6.5-.6 1 .3.6-.1 1.3-.3 1.9L82.5 211l-.3 1.3c-.2.3-.3.5-.7.2a.3.3 0 000-.2z" fill="#1f68b1"/><path d="M153.8 221.3l-7.5-.9-7.3-.8-9.3-1.1-9.3-1.2-9.8-1.2-9.1-1-9.4-1.2-1.2-.1h-.1a1.7 1.7 0 01-.4-1.2v-8.4a2.3 2.3 0 01.9-1.5l4.2-4.2a2.4 2.4 0 011.5-.8 11.8 11.8 0 011.9-.1h31a7.5 7.5 0 012.7.4l8 5 13.3 8.3a2.5 2.5 0 01.4 1.5v7.1a2 2 0 01-.4 1.4z" fill="#d9d8d3"/><path d="M96.5 198c-2 1.8-3.9 3.8-5.7 5.7a3.3 3.3 0 01-.8 1.3l-6 6a4 4 0 01-2 1.3 33.7 33.7 0 011.5-5.8l9.1-32 .5-1.2 10.7 6.6 6.6 4.2c0 .6-.4.9-.7 1.2l-11.9 11.8a4 4 0 01-1.3.9z" fill="#04509b"/><path d="M96.5 198l11.6-11.5 2.3-2.4 14.8 9.2 7.4 4.7z" fill="#e4c63f"/><path d="M153.8 221.3v-10l13 8 6.8 4.5-11.3-1.5-7.1-.8-1.4-.2z" fill="#e4e5e5"/><path d="M217.1 45.3l-.3-.3c.7-1 1.8-1.3 2.5-2.2l-2.2 2.5z" fill="#2a6fb6"/><path d="M82 212.3l7.8-7.6 1-1v10.1l-9-1-.2-.3a.3.3 0 00.4-.2z" fill="#e4b95e"/></g></g></svg>