<svg xmlns="http://www.w3.org/2000/svg" viewBox="0 0 256.01 256.01">
  <g id="Layer_2" data-name="Layer 2">
    <g id="Layer_1-2" data-name="Layer 1">
      <rect width="256.01" height="256.01" fill="#fff"/>
      <path d="M90.89,165.34V256l108.7.06h19.63s-3.46-2.42-3.47-2.41Z" fill="#e3e1da"/>
      <path d="M0,101.11V256H37.4V127.53Z" fill="#ffccd6"/>
      <path d="M37.4,0H0V35L37.4,61.53Z" fill="#e3e0d9"/>
      <path d="M90.89,0V99.35L256,216c0-5,0-11.35,0-16.43V143.1c-30.74,0-53.9-8.63-70.34-18a145.65,145.65,0,0,1-19.81-13.68c-5-4.08-8.64-7.45-10.24-8.62-10.16-7.43-20.23-22.06-28.15-40.25S113.92,22.61,113.92,1.09c0-.37,0-.73,0-1.09Z" fill="#9de07b"/>
      <path d="M212.7,256H256V211.42l-1.27-.9L4.68,33.79,0,30.36s0,18.91,0,26v49.38l210.4,148.73Z" fill="#ffaa19"/>
      <path d="M219,256h37V216l-2-1.44L3.29,37.42S0,35,0,35,0,52,0,56.37v44.74l213.2,150.67Z" fill="#ffd633"/>
      <path d="M56.4,0H33.23V256c7.77,0,15.18,0,23.17-.06H95.07V0Z" opacity="0.13" style="isolation: isolate"/>
      <path d="M56.4,0h-19V256c5.56,0,12.5-.07,19-.07H90.89V0Z" fill="#fff"/>
      <path d="M113.94,0l0,1.09c0,21.51,5.59,43.26,13.52,61.44s18,32.82,28.15,40.25c1.6,1.17,5.23,4.54,10.24,8.62a147.3,147.3,0,0,0,19.81,13.68c16.44,9.38,39.6,18,70.34,18v-7.85c-29.29,0-51-8.14-66.45-17a136.33,136.33,0,0,1-18.74-13c-4.79-3.9-8-7-10.57-8.87-8.12-5.92-18.05-19.73-25.59-37s-12.87-38.16-12.87-58.3c0-.37,0-.73,0-1.09Z" fill="#8bc66d"/>
      <path d="M117.86,0l0,1.09c0,41.65,21.82,85.18,40.06,98.53,8.32,6.09,38,39.48,98.07,39.55V56.37A56.24,56.24,0,0,0,199.61,0Z" fill="#f3efeb"/>
      <path d="M171.94,0c.69,26.64,7.37,45.1,23.76,60.48,7.86,7.37,15.49,13.76,26.69,18.09C231,81.89,241.59,84,256,84.77v-9C242.52,75,233,73,225.63,70.16c-9.73-3.76-16.13-9.09-23.77-16.26C187.16,40.11,181.55,25.09,180.94,0Z" fill="#8bc66d"/>
      <path d="M176.48,0c.64,25.87,6.78,42.57,22.34,57.19C212.5,70,223.9,78.45,256,80.25V56.36C256,41.14,256,0,256,0H176.48Z" fill="#9de07b"/>
      <path d="M56.4,0H48.64V110.05a44.79,44.79,0,0,1,31-.2V0Z" fill="#4490cd"/>
      <path d="M192.73,162.29a4.09,4.09,0,0,0-2.06.64,39.6,39.6,0,0,1-37.54,2.91,4.07,4.07,0,0,0-5.26,1.93,50,50,0,0,0-5.05,21.75v0a50,50,0,1,0,94.89-21.81,4.1,4.1,0,0,0-5.29-1.93A39.26,39.26,0,0,1,195,162.92a3.69,3.69,0,0,0-1.15-.31,1.91,1.91,0,0,0-1.16-.32Z" fill="#0079dc"/>
      <path d="M192.75,164.32a1.89,1.89,0,0,0-1,.31,41.68,41.68,0,0,1-39.45,3.07,2,2,0,0,0-2.63,1,48,48,0,1,0,86.25,0,2,2,0,0,0-2.64-1,41.32,41.32,0,0,1-39.34-3,2,2,0,0,0-1.15-.32Z" fill="#fff"/>
      <path d="M192.81,166.34a43.73,43.73,0,0,1-41.35,3.21,46,46,0,0,0-4,12.68h90.61a46,46,0,0,0-4-12.73,43.31,43.31,0,0,1-41.25-3.16Z" fill="#de1d25"/>
      <path d="M147.07,185.43l-.25,4.11a45.94,45.94,0,1,0,91.88,0,40.21,40.21,0,0,0-.21-4.1Z" fill="#0079dc"/>
      <path d="M179.57,212.05v4.49h-19a10.82,10.82,0,0,1,1.85-4.81,31.88,31.88,0,0,1,6.07-6,35.36,35.36,0,0,0,4.48-4.12,5,5,0,0,0,1.12-2.95,3.13,3.13,0,0,0-1-2.48,3.91,3.91,0,0,0-2.71-.88,3.86,3.86,0,0,0-2.69.91,4.37,4.37,0,0,0-1.15,3l-5.42-.48c.32-2.65,1.32-4.56,3-5.72a11,11,0,0,1,6.34-1.73,9.84,9.84,0,0,1,6.55,2,6.29,6.29,0,0,1,2.39,5,7.88,7.88,0,0,1-.7,3.25,12.94,12.94,0,0,1-2.15,3.21,26.1,26.1,0,0,1-3.54,3.21q-2.55,2.1-3.25,2.79a8.8,8.8,0,0,0-1.09,1.34Zm8.3-9.1a6.62,6.62,0,0,1-3.1-2.17,5.35,5.35,0,0,1-.94-3,5.81,5.81,0,0,1,2.19-4.65,9.51,9.51,0,0,1,6.27-1.84,9.3,9.3,0,0,1,6.19,1.84,5.76,5.76,0,0,1,2.23,4.65,5.13,5.13,0,0,1-1,3.13,6.42,6.42,0,0,1-2.86,2.08,7.5,7.5,0,0,1,3.56,2.45,6,6,0,0,1,1.23,3.73,7.18,7.18,0,0,1-2.5,5.67,9.64,9.64,0,0,1-6.6,2.18,10.82,10.82,0,0,1-6.4-1.8,6.75,6.75,0,0,1-3-5.81,6.57,6.57,0,0,1,1.14-3.74,7.08,7.08,0,0,1,3.57-2.65Zm1.11-4.86a2.87,2.87,0,0,0,.9,2.25,4.24,4.24,0,0,0,4.9,0,2.85,2.85,0,0,0,.92-2.26,2.72,2.72,0,0,0-.92-2.17,3.42,3.42,0,0,0-2.4-.83,3.56,3.56,0,0,0-2.47.83,2.77,2.77,0,0,0-.92,2.18Zm-.5,10.79a4.2,4.2,0,0,0,1.13,3.11,3.91,3.91,0,0,0,2.87,1.16,3.8,3.8,0,0,0,2.76-1.07,4.17,4.17,0,0,0,1.1-3.1,3.73,3.73,0,0,0-1.12-2.84,3.88,3.88,0,0,0-2.82-1.08,3.65,3.65,0,0,0-3,1.22,4.18,4.18,0,0,0-1,2.65Zm25.79-17.63a8.08,8.08,0,0,1,6.39,2.61c1.81,2.07,2.71,5.48,2.71,10.26s-.92,8.18-2.77,10.27a8.12,8.12,0,0,1-6.37,2.58,8.45,8.45,0,0,1-6.63-2.82q-2.52-2.84-2.52-10.08t2.77-10.24a8.14,8.14,0,0,1,6.38-2.58Zm0,4a2.85,2.85,0,0,0-1.75.57,3.48,3.48,0,0,0-1.19,2,24.37,24.37,0,0,0-.56,6.31,24.78,24.78,0,0,0,.5,6.09,4.21,4.21,0,0,0,1.25,2.2,3.06,3.06,0,0,0,3.5,0,3.69,3.69,0,0,0,1.19-2,24.6,24.6,0,0,0,.56-6.29,23.85,23.85,0,0,0-.51-6.07,4.15,4.15,0,0,0-1.26-2.22,2.81,2.81,0,0,0-1.73-.57Z" fill="#fff"/>
      <circle cx="64.46" cy="152.79" r="45.61" fill="#0079dc"/>
      <path d="M64.27,124.5h-.1l-.24,0-.39.08-.07,0-.12,0a2.11,2.11,0,0,0-.34.16l-.21.12-.23.17-.22.21-.17.19a2.69,2.69,0,0,0-.2.27l-.11.19c-.06.11-.11.22-.16.33s0,.08-.05.12L44.25,177a2.9,2.9,0,0,0,.55,3.24,3,3,0,0,0,1.74.87,3.13,3.13,0,0,0,.53,0h.14a2.2,2.2,0,0,0,.37-.06l.23-.07.27-.1a1.68,1.68,0,0,0,.3-.15l.16-.09c.13-.09.25-.19.37-.29l.21-.2h0l15.35-14.78L80,180.26l.41.32.16.1.29.15.27.1.23.06a2.38,2.38,0,0,0,.37.06l.15,0a2.93,2.93,0,0,0,2.83-4.13L71.39,138.52l-4.18-12.07s0-.09-.07-.14A2.92,2.92,0,0,0,67,126l-.13-.21-.19-.26-.18-.19-.21-.19L66,125l-.2-.12a3.49,3.49,0,0,0-.34-.15l-.12,0-.07,0-.35-.09-.24,0-.49,0Z" fill="#fff"/>
      <path d="M42,254.09l1.39.34Zm2.56.6,1.31.26Zm2.62.49,1.26.2Zm2.71.37,1.16.14Zm2.94.26.89.06Z" opacity="0.24" style="isolation: isolate"/>
    </g>
  </g>
</svg>
