<svg xmlns="http://www.w3.org/2000/svg" viewBox="0 0 256.32 256.34">
  <g id="Layer_2" data-name="Layer 2">
    <g id="Layer_1-2" data-name="Layer 1">
      <rect x="0.32" width="256" height="256" fill="#fff"/>
      <path d="M0,227.05a8.87,8.87,0,0,0,3.24-1.41c4.6-2.29,9.15-4.68,13.71-7,2.67-1.39,5.34-2.81,8-4.18a25.24,25.24,0,0,0,3.54-1.91,4,4,0,0,1,2.44-.73q28.32,0,56.64,0h1.35A10.09,10.09,0,0,1,86.35,215c-2.64,2.74-5.11,5.63-7.65,8.45s-5.07,5.35-7.47,8.14c-2.12,2.47-4.32,4.86-6.51,7.25s-4.34,4.69-6.45,7.06c-2,2.2-4.13,4.19-5.9,6.56-.93,1.25-2.17,2.27-3.23,3.44-.49.53-1.07.36-1.63.37H0Z" fill="#def2fc"/>
      <path d="M0,184.54H68.76c.55,0,1.42-.3,1.56.35s-.83.62-1.29.82c-3.77,1.62-7.52,3.31-11.32,4.87-3.44,1.41-6.8,3-10.3,4.31-2.5.92-4.89,2.14-7.34,3.19-5.12,2.18-10.31,4.22-15.36,6.56-3.61,1.67-7.33,3.09-11,4.74s-7.28,3.14-10.94,4.67c-.94.4-1.88.83-2.82,1.24Z" fill="#f0efef"/>
      <path d="M256.32,211.8c-.56.87,0,1.87-.35,2.85a31.38,31.38,0,0,1-4.52-1.87c-4-1.61-7.88-3.27-11.81-4.94-2.72-1.15-5.43-2.35-8.15-3.51-3.94-1.67-7.89-3.3-11.83-5-4.9-2.08-9.79-4.21-14.71-6.28-3.58-1.52-7.19-3-10.78-4.47-1.36-.57-2.69-1.19-4-1.84a22.4,22.4,0,0,1-3.39-1.44c-.2-.14-.48-.18-.37-.52s.31-.24.52-.25H188q32.86,0,65.75,0a3,3,0,0,1,2.53.76Z" fill="#f0efef"/>
      <path d="M166.64,212a2.12,2.12,0,0,1,1.3-.18q28.83,0,57.64,0a8.74,8.74,0,0,1,4.21,1.55c4.52,2.46,9.14,4.71,13.74,7,3.37,1.7,6.58,3.79,10.08,5.17,2.43,1,2.52,2.42,2.5,4.51-.08,8.29-.06,16.58,0,24.88,0,1.08-.26,1.4-1.38,1.4q-23.39-.06-46.76,0c-1.56,0-2.07-1.07-2.84-1.9-3-3.23-5.9-6.52-8.84-9.79-2-2.24-4-4.51-6.06-6.73-2.49-2.71-5.09-5.31-7.5-8.09-1.92-2.21-3.94-4.34-5.9-6.53C173.45,219.54,170.07,215.79,166.64,212Z" fill="#dff5bf"/>
      <path d="M118.09,188a14.09,14.09,0,0,1,1.42,3.7c1.28,3.84,1.92,7.84,2.94,11.75.67,2.54,3.09,4.44,5.45,4.15,2.86-.35,4.77-1.61,5.38-5.05a68.47,68.47,0,0,1,4-14.72c2,3.38,4,6.74,5.94,10.13,2.91,5,5.8,10.06,8.71,15.09s5.77,9.92,8.61,14.91c2.23,3.92,4.34,7.92,6.8,11.72a3.42,3.42,0,0,1,.71,1.81c-1.16-.29-2.17-1-3.44-1q-18.57,0-37.13,0c-11.66,0-23.32,0-35-.06a9.68,9.68,0,0,0-5.26,1.18c0-.78.51-1.32.85-1.9,1.75-3,3.57-5.91,5.23-8.91,3.47-6.27,7.12-12.43,10.71-18.63,3.06-5.31,6.09-10.64,9.17-16C114.83,193.53,116.37,190.72,118.09,188Z" fill="#b1dfee"/>
      <path d="M187.07,205.55q-12.49,0-25,0a2.59,2.59,0,0,1-2.14-1c-2.89-3.24-5.88-6.39-8.8-9.61s-5.71-6.34-8.55-9.52c-.18-.21-.54-.39-.39-.71s.59-.21.9-.21h29.74a3.73,3.73,0,0,1,1.79.46c4.3,2.32,8.66,4.52,13.06,6.67,4.73,2.32,9.33,4.93,14,7.37,3.53,1.84,7.09,3.6,10.65,5.39.43.21,1.18.28,1,.84s-.87.26-1.33.26Q199.57,205.56,187.07,205.55Z" fill="#f0efef"/>
      <path d="M42.69,205.23l6-3.13c1.56-.82,3.06-1.8,4.69-2.46,1.83-.75,3.41-2,5.28-2.65a39.52,39.52,0,0,0,3.91-2.06c4.18-2.11,8.3-4.35,12.49-6.45,1.86-.93,3.76-1.8,5.53-2.89a6.33,6.33,0,0,1,3.5-1.07c9.37,0,18.74,0,28.12,0,.42,0,1-.26,1.23.27s-.37.8-.67,1.09c-2.38,2.32-4.39,5-6.74,7.34-2.19,2.19-4.13,4.63-6.19,6.95-1.38,1.54-2.79,3.05-4.16,4.6a2.15,2.15,0,0,1-1.74.76q-25,0-50,0A1.59,1.59,0,0,1,42.69,205.23Z" fill="#f0efef"/>
      <path d="M127.51,240.56q18.57,0,37.13,0c1.27,0,2.28.7,3.44,1,3.42,3.16,4.25,8.9,1.7,12.36a5,5,0,0,1-4,2.4q-19.12,0-38.25,0Q127.52,248.42,127.51,240.56Z" fill="#277ef6"/>
      <path d="M127.51,240.56q0,7.84,0,15.7l-17.87,0H91.39c-4.32,0-6.49-1.83-7-6.16-.38-3.23-.08-6.33,2.88-8.46a9.68,9.68,0,0,1,5.26-1.18C104.19,240.56,115.85,240.55,127.51,240.56Z" fill="#ee1f3a"/>
      <path d="M114.1,100.57c0,3,0,5.92,0,8.88,0,.85-.23,1.18-1.12,1.14a34.06,34.06,0,0,0-4.63,0c-4.52.46-7.42-3-8.53-6.32-1.39-4.14-.37-7.84,2.34-11.08a6.28,6.28,0,0,1,5.37-2.54,53.44,53.44,0,0,0,5.37,0c.91,0,1.23.19,1.2,1.16C114.06,94.74,114.1,97.66,114.1,100.57Z" fill="#ed3435"/>
      <ellipse cx="127.9" cy="206.62" rx="12.72" ry="5.74" fill="#8ecff1"/>
      <path d="M118.09,188a25.2,25.2,0,0,0-2.07-5.63,90.4,90.4,0,0,0-11.19-19,111.06,111.06,0,0,0-7.59-8.78c-4.85-5.27-9.74-10.49-14.47-15.85a74.89,74.89,0,0,1-10.23-14,67.48,67.48,0,0,1-5.61-13.92,68.36,68.36,0,0,1-2.09-21.72,58.77,58.77,0,0,1,3.34-16.49A62.69,62.69,0,0,1,104.27,35a64.35,64.35,0,0,1,18.45-4.22,65.4,65.4,0,0,1,18.83,1.29,61.13,61.13,0,0,1,24.26,11.17A62.13,62.13,0,0,1,183.46,64a63.27,63.27,0,0,1,5.67,15.34,69.55,69.55,0,0,1,.29,27.72,60.38,60.38,0,0,1-7.86,20,111,111,0,0,1-12.94,16.27c-5.89,6.42-12,12.63-17.45,19.45a86.65,86.65,0,0,0-10.61,17,43.24,43.24,0,0,0-3.25,8.1,68.47,68.47,0,0,0-4,14.72c-.61,3.44-2.52,5.05-5.38,5.05a5.6,5.6,0,0,1-5.45-4.15c-1-3.91-1.66-7.91-2.94-11.75A14.09,14.09,0,0,0,118.09,188Zm4.49-94.75c0-8.16,0-16.33,0-24.49,0-1.07-.27-1.46-1.4-1.41-1.91.09-3.83.06-5.75,0-1,0-1.38.37-1.37,1.4,0,4.08,0,8.16,0,12.24,0,.8-.19,1.08-1,1.06-2.33-.06-4.67,0-7,0a13.43,13.43,0,0,0-5.31.95c-6.36,2.5-10.43,7.05-11.5,13.79-1,6.06.11,11.87,4.33,16.6A15.5,15.5,0,0,0,105.76,119c5.08-.08,10.16-.06,15.24,0,1.22,0,1.62-.22,1.61-1.55C122.54,109.43,122.58,101.35,122.58,93.27Zm40.87,7.31c0-5.79,0-11.58,0-17.37,0-.93-.24-1.21-1.18-1.17-2,.07-4,.1-6,0-1.18-.06-1.43.32-1.43,1.45,0,8.58,0,17.16,0,25.74,0,1.11-.3,1.41-1.4,1.38-3.16-.07-6.33,0-9.49,0a5.55,5.55,0,0,1-5.18-5.15c0-7.42,0-14.83,0-22.24,0-.85-.19-1.17-1.1-1.14-2,.07-4.08.06-6.12,0-.95,0-1.28.21-1.28,1.24,0,8.24.15,16.5-.13,24.73-.2,6,6.86,11,11.06,11,7,0,13.92,0,20.87,0,1.07,0,1.32-.34,1.31-1.35C163.43,112,163.45,106.29,163.45,100.58Z" fill="#f72c30"/>
    </g>
  </g>
</svg>
