<svg xmlns="http://www.w3.org/2000/svg" viewBox="0 0 256 256">
  <g id="Layer_2" data-name="Layer 2">
    <g id="Layer_1-2" data-name="Layer 1">
      <rect width="256" height="256" fill="#37ab2f"/>
      <g>
        <path d="M136.62,135.18a2.58,2.58,0,0,0-1.47-.15q-21.06,0-42.14.06c-4.66,0-8.37-2.56-9.7-6.63-2.07-6.32,2.62-12.52,9.54-12.55,9.55,0,19.09,0,28.64,0h16l-5.85-5.58c-2.93-2.78-5.9-5.53-8.79-8.36a9.41,9.41,0,0,1-2-10.7,9.66,9.66,0,0,1,9.37-5.62,9.45,9.45,0,0,1,6.25,2.79q15.33,15.16,30.62,30.39a9.3,9.3,0,0,1-.05,13.45q-15.22,15.21-30.55,30.3A9.6,9.6,0,1,1,122.89,149c4.28-4.27,8.59-8.51,12.87-12.77C136.07,135.91,136.49,135.68,136.62,135.18Z" fill="#fffffc"/>
        <path d="M44.78,125.45a11.71,11.71,0,1,1,11.69,11.67A11.72,11.72,0,0,1,44.78,125.45Z" fill="#fffffc"/>
        <path d="M210.88,125.48a11.71,11.71,0,1,1-11.76-11.6A11.73,11.73,0,0,1,210.88,125.48Z" fill="#fffffc"/>
      </g>
    </g>
  </g>
</svg>
