<svg xmlns="http://www.w3.org/2000/svg" viewBox="0 0 256 256">
  <g id="Layer_2" data-name="Layer 2">
    <g id="Layer_1-2" data-name="Layer 1">
      <rect x="0.02" y="0.01" width="255.98" height="255.98" fill="#fff"/>
      <path d="M256,75.91Q256,38,256,0H0V37.5l15.41,2.37,24.77,3.87,26.49,4.13,21.57,3.38a2.8,2.8,0,0,0,2-.37,70.22,70.22,0,0,1,32.9-10.19,72.19,72.19,0,0,1,41,9.27,64.17,64.17,0,0,1,17.42,14.42,5.83,5.83,0,0,0,3.86,2.11c14.92,2.28,29.83,4.63,44.74,7,8.19,1.28,12.71,2,20.9,3.3l4.87.77Z" fill="#ffb919"/>
      <path d="M0,223V49c2.79.45,5.57.92,8.36,1.35l20.18,3.15,21.54,3.38,21.67,3.37,7.07,1.13a14,14,0,0,0-1.28,1,66.31,66.31,0,0,0-19.23,40.62,83.6,83.6,0,0,0,2.06,26.88c2,9,5.54,17.53,9.56,25.83a1.21,1.21,0,0,0,1.33.78c3.66,0,7.32-.15,11,.23a37,37,0,0,1,13.35,3.68c8.26,4.27,12.78,11.42,15.09,20.1,2.09,7.81,2.3,15.86,2.58,23.88,0,.88-.45.94-1,1-4.47.7-8.95,1.38-13.42,2.07l-19.94,3.13L57.35,214l-21.54,3.35-21.66,3.4C9.43,221.52,4.72,222.28,0,223Z" fill="#19aa1e"/>
      <path d="M0,233.17c7.92-1.23,16.57-2.66,24.49-3.91l23.15-3.65,22.78-3.56,23.28-3.61L117,214.79l23.15-3.61,23.4-3.65q11.57-1.82,23.15-3.63l23.15-3.62L233,196.67,256,193v63H0V233.17Z" fill="#82d714"/>
      <path d="M68,109.79c-.08-23.9,14.63-45,37.51-53.73a63,63,0,0,1,27.21-3.83,59.36,59.36,0,0,1,31.84,11.45c12.77,9.48,20.52,22.12,22.85,37.87,1.59,10.76,0,21.33-3,31.69a99.31,99.31,0,0,1-4.59,12.26,1.57,1.57,0,0,1-1.68,1.06,50.53,50.53,0,0,0-20.85,4.31c-9.81,4.56-16.23,12.21-20.07,22.19a63.36,63.36,0,0,0-3.7,17.89c-.28,3.49-.51,7-.72,10.47,0,.62-.22.84-.84.93-2.55.36-5.1.75-7.64,1.2-.9.16-1.06-.1-1.09-1a133.93,133.93,0,0,0-2-20.87c-1.85-9.35-5.68-17.72-12.78-24.33-5.77-5.39-12.71-8.39-20.39-9.84a56.52,56.52,0,0,0-10.55-1,1.14,1.14,0,0,1-1.21-.8,89.56,89.56,0,0,1-7.85-28.23C68.19,115,68,112.38,68,109.79Z" fill="#0075ff"/>
      <path d="M254.43,183.23c-5.45.81-10.89,1.69-16.34,2.55L218,188.92l-21.54,3.36L175,195.64,153.41,199c-3,.48-6.07.94-9.1,1.44-1.55.25-1.52.28-1.42-1.26.37-5.56.61-11.14,1.85-16.59,1.77-7.77,5.1-14.66,11.61-19.64,4.51-3.44,9.71-5.12,15.25-5.95a89.44,89.44,0,0,1,13.09-.48,1.22,1.22,0,0,0,1.33-.77c4-8.31,7.54-16.79,9.56-25.83a85.8,85.8,0,0,0,2.09-26.76,65,65,0,0,0-6.28-22.41c-.23-.49-.46-1-.68-1.47,0-.06,0-.16,0-.38l8,1.22,21.78,3.4,21.55,3.37c3.79.59,7.58,1.2,11.37,1.78l2.53.36v94Z" fill="#19aa1e"/>
    </g>
  </g>
</svg>
