<svg xmlns="http://www.w3.org/2000/svg" viewBox="0 0 256 256">
  <g id="Layer_2" data-name="Layer 2">
    <g id="Layer_1-2" data-name="Layer 1">
      <rect width="256" height="256" fill="#fff"/>
      <path d="M188.59,68.37a60.6,60.6,0,0,1,6.58,19.22c3.17,19.65-.92,37.78-11.56,54.52-5.28,8.3-11.5,15.89-17.59,23.57a292.93,292.93,0,0,0-17.89,24.43,94.57,94.57,0,0,0-10.86,23.81,37.24,37.24,0,0,1-2.37,6.4,5.7,5.7,0,0,1-5.45,3.46,5.38,5.38,0,0,1-5.18-3.6,34.49,34.49,0,0,1-1.24-3.25c-1.28-3.9-2.39-7.85-3.86-11.69a96.31,96.31,0,0,0-11.69-20.93c-2.47-3.49-5-6.94-7.5-10.41l11.93-14.23q15.93-19,31.86-38c.8-1,1.89-1.73,2.24-3h0c.24.07.3,0,.26-.26h0c.21,0,.27-.07.27-.26l0,0c.2,0,.27-.12.26-.3a42.45,42.45,0,0,0,4.05-4.64c.35-.36.71-.7,1-1.08Z" fill="#34a853"/>
      <path d="M146,118.66c-.35,1.3-1.44,2.07-2.24,3q-15.9,19-31.86,38L100,173.9C96.8,170,93.6,166,90.44,162.08a234.16,234.16,0,0,1-14.69-19.66A79.87,79.87,0,0,1,69.49,131c.78-.91,1.58-1.82,2.35-2.74q16.51-19.71,33.05-39.4c.91-1.08,1.64-2.38,2.92-3.13-.19.41-.35.84-.56,1.23a25.38,25.38,0,0,0,36.33,33.41A13.49,13.49,0,0,1,146,118.66Z" fill="#fbbc04"/>
      <path d="M188.59,68.37l-36.75,43.79c-.32.38-.68.72-1,1.08.19-.38.36-.75.57-1.11a25.59,25.59,0,0,0-27.26-38A28.47,28.47,0,0,0,113.58,79a.87.87,0,0,1,.22-.69c1.21-1.46,2.41-2.94,3.64-4.39,2.42-2.88,4.86-5.74,7.28-8.62s4.76-5.71,7.15-8.56,4.87-5.73,7.3-8.61,5-5.91,7.46-8.94c.93-1.17,2.35-2,2.62-3.67A66.91,66.91,0,0,1,173.5,49.17,68.29,68.29,0,0,1,188.59,68.37Z" fill="#4285f4"/>
      <path d="M107.81,85.7c-1.28.75-2,2-2.92,3.13q-16.56,19.68-33,39.4c-.77.92-1.57,1.83-2.35,2.74a68.73,68.73,0,0,1-6.13-22.08,80.51,80.51,0,0,1-.31-14.81A65.71,65.71,0,0,1,72.39,65a51.4,51.4,0,0,1,6.11-8.48c1.51,1.29,3,2.59,4.55,3.87l26.8,22.46-1.46,2.12a.35.35,0,0,0-.32.31h0a.36.36,0,0,0-.28.5Z" fill="#ea4335"/>
      <path d="M109.85,82.8,83.05,60.34c-1.53-1.28-3-2.58-4.55-3.87a50.2,50.2,0,0,1,8-8.16,65.18,65.18,0,0,1,23.87-13,66,66,0,0,1,23-2.63,63,63,0,0,1,15.87,2.89c-.27,1.65-1.69,2.5-2.62,3.67-2.42,3-5,6-7.46,8.94s-4.88,5.73-7.3,8.61-4.76,5.72-7.15,8.56-4.86,5.74-7.28,8.62c-1.23,1.45-2.43,2.93-3.64,4.39a.87.87,0,0,0-.22.69C112.34,80.29,111.1,81.55,109.85,82.8Z" fill="#1a73e8"/>
      <path d="M146.5,118.18l.26-.3C146.77,118.06,146.7,118.18,146.5,118.18Z" fill="#f8bb16"/>
      <path d="M146.25,118.42a.25.25,0,0,1,.27-.26C146.52,118.35,146.46,118.46,146.25,118.42Z" fill="#f8bb16"/>
      <path d="M146,118.67c0-.19.1-.25.26-.26C146.3,118.62,146.24,118.74,146,118.67Z" fill="#f8bb16"/>
      <path d="M108.08,85.22a.37.37,0,0,1-.28.5A.36.36,0,0,1,108.08,85.22Z" fill="#f8bb16"/>
      <path d="M108.39,84.92c-.07.14-.1.33-.32.31A.35.35,0,0,1,108.39,84.92Z" fill="#f8bb16"/>
    </g>
  </g>
</svg>
