<svg xmlns="http://www.w3.org/2000/svg" viewBox="0 0 256 256"><g id="Layer_2" data-name="Layer 2"><g id="Layer_1-2" data-name="Layer 1"><path d="M256,0H0V256H256Z" style="fill:#fff"/><path d="M75.39,205.88,43.53,239.35,11.66,205.88Z" style="fill:#65c1c2"/><path d="M122,129.8c-6.66-8.22-6.37-12.78-2.32-17,4.92-5.17,10.14-3,15.93,2.74Zm68.35-91.29c4.93-5.17,10.14-3,15.93,2.74l-13.61,14.3C185.74,47.33,186,43.07,190.37,38.51ZM231.5,53.12c-6.08,9.73-17.09,25.56-28.38,13.69l28.67-30.13c-2.61-2.74-4.34-5.17-6.08-6.69C210.36,13.86,193,13.56,179.37,27.86c-9,9.43-11.59,20.39-9,30.73l-9-10.65c-2.32,1.22-13.33,11.57-5.22,26.78L146.06,65.9,132.44,80.2,151,99.67C136.79,87.81,121.44,89,109.27,101.8c-13,13.7-12.16,30.44-2.31,44.13l-2-2.13c-13-13.7-27.23-8.83-34.18-1.52-5.5,5.78-8.69,13.39-7.24,18.86L35.42,131.63,20.35,147.45,76,205.88H105.8l-20-21c-10.42-11.26-10.71-17-5.5-22.52,4.92-5.17,10.72-1.82,20.85,8.52l19.7,20.69,14.77-15.51L116.8,156.28c13.62,10.65,29.84,11.25,44.32-4l.29-.31c9-8.52,11.58-17,11.58-17l-11.29-7.91c-6.08,9.74-16.8,25.56-28.1,13.7l28.68-30.13,17.95,18.87,15.64-16.44-22.3-23.43c-10.42-10.95-4.34-21.3,0-25.26a45.24,45.24,0,0,0,8.69,12.79c14.48,15.21,33,18.25,49.53,1.21l.29-.3c9-8.52,11.58-17,11.58-17Z" style="fill:#393e47"/></g></g></svg>