<?xml version="1.0" encoding="UTF-8"?>
<!DOCTYPE svg PUBLIC "-//W3C//DTD SVG 1.1//EN" "http://www.w3.org/Graphics/SVG/1.1/DTD/svg11.dtd">
<svg xmlns="http://www.w3.org/2000/svg" version="1.1" width="512px" height="512px" style="shape-rendering:geometricPrecision; text-rendering:geometricPrecision; image-rendering:optimizeQuality; fill-rule:evenodd; clip-rule:evenodd" xmlns:xlink="http://www.w3.org/1999/xlink">
<g><path style="opacity:0.999" fill="#fae200" d="M 30.5,-0.5 C 180.5,-0.5 330.5,-0.5 480.5,-0.5C 496.5,4.16667 506.833,14.5 511.5,30.5C 511.5,180.5 511.5,330.5 511.5,480.5C 506.833,496.5 496.5,506.833 480.5,511.5C 330.5,511.5 180.5,511.5 30.5,511.5C 14.5,506.833 4.16667,496.5 -0.5,480.5C -0.5,330.5 -0.5,180.5 -0.5,30.5C 4.16667,14.5 14.5,4.16667 30.5,-0.5 Z"/></g>
<g><path style="opacity:1" fill="#037cfe" d="M 235.5,59.5 C 289.329,54.374 333.496,72.374 368,113.5C 402.668,161.188 406.335,211.188 379,263.5C 364.997,287.15 348.331,308.817 329,328.5C 301.282,364.262 280.615,403.928 267,447.5C 264.792,452.105 261.125,454.105 256,453.5C 250.875,454.105 247.208,452.105 245,447.5C 227.066,390.261 197.399,340.261 156,297.5C 140.398,278.306 128.398,256.972 120,233.5C 107.085,177.579 121.918,130.413 164.5,92C 185.474,75.1782 209.14,64.3448 235.5,59.5 Z"/></g>
<g><path style="opacity:1" fill="#fdea0c" d="M 249.5,152.5 C 277.654,152.149 295.487,165.483 303,192.5C 304.66,222.503 290.827,240.669 261.5,247C 232.558,247.731 215.058,233.898 209,205.5C 208.527,177.098 222.027,159.431 249.5,152.5 Z"/></g>
</svg>
