<svg xmlns="http://www.w3.org/2000/svg" viewBox="0 0 256 256">
  <g id="Layer_2" data-name="Layer 2">
    <g id="Layer_1-2" data-name="Layer 1">
      <rect width="256" height="256" fill="#4cd950"/>
      <path d="M121.36,55.13c-2,.26-16.58,3.27-17.88,3.71C95.35,61.56,90.68,68,90.23,77.2c-.21,4.31.17,4.82,3,4,.39-.12,1.35-.34,2.14-.5,3.12-.62,3.16-.69,3.3-4.21a11.2,11.2,0,0,1,8.82-10.16c18-4.32,22.22-3.64,26.42,4.28,1.17,2.21,1.22,2.23,5.39,1.38,3.8-.78,4-1.2,2.15-5-3.78-8-12-12.78-20-11.77M173,69.61c-.85.1-2.8.41-4.32.69l-4.89.88c-1,.17-14.9,13.56-15.18,14.68-.19.76-.35.59,9,10.19l12.22,12.51c3.65,3.74,4.4,4.29,5.29,3.88.24-.12,4.88-4.57,10.31-9.9,10.74-10.55,10.14-9.81,9.64-12.11-.12-.56-.34-1.76-.5-2.69C193.24,79.59,190,74.57,184,71.58A15.83,15.83,0,0,0,179.82,70a23.79,23.79,0,0,0-6.85-.38M144.29,75l-14.52,2.8-2.28.45c-1.34.29-3.09.63-4.93,1L120,79.7c-.52.12-1.58.32-2.34.47l-2.76.52-2.34.46q-1.26.25-2.52.48c-.86.15-2,.37-2.52.49s-3,.6-5.52,1.08L88.81,85.72c-1.51.31-2.07,1-1.44,1.94,1.34,1.9,24.25,24.69,24.83,24.69s36.62-35.6,36.92-36.56c.44-1.37-.88-1.58-4.82-.77M77.86,88a6.27,6.27,0,0,1-1.54.35c-.95.15-1.9.31-2.84.48l-5.52,1a45.34,45.34,0,0,0-7,1.48A18.76,18.76,0,0,0,48,106.1c-.56,2.92-.47,4.38.31,5.34s-.25-.11,14.22,14.62l14.77,15c2.93,3,3,3,6.1,0l22.87-22.38c.93-1,.66-2.31-.69-3.51-.24-.21-3.94-3.94-8.23-8.28C77.27,86.55,78.31,87.55,77.86,88m52.07,16.15c-9.92,9.92-12.91,13-12.85,13.42.17,1,25.44,26.47,26.29,26.47.61,0,25.56-24.45,26.27-25.75.33-.59.28-.65-3.72-4.77C151.58,98.76,144,91.23,143.43,91.23s-3.54,3-13.51,12.93m57.64,5c-6.35,6.28-8.1,8.14-8.1,8.61,0,.64,22.64,23.78,23.64,24.16s1.7-.5,1.34-1.88c-.18-.77-.34-1.54-.48-2.32l-.71-3.84-3.86-20.53c-2.41-13-2.21-12.25-3.22-12.24-.34,0-3.16,2.63-8.61,8m-26.32,26.56c-10.69,10.79-12.64,12.87-12.7,13.51-.08.79-.36.49,23.5,24.73l4,4.07,1.29-.28c1.81-.39,3.13-.65,7.65-1.49,10.6-2,12.82-2.85,16.44-6.36a18.74,18.74,0,0,0,5.37-9.72c.31-1.37.44-4.72.18-5-.55-.54-25.06-25.44-28.13-28.57s-3.7-3.66-4.28-3.66-2.42,1.75-13.32,12.75M51.05,124.75c-.59.41-.61.88-.15,3.24l3.25,17,.72,3.72c.12.53.44,2.2.73,3.72l1.2,6.24.84,4.45c.22,1.37.72,2,1.51,2s16.63-15.61,16.6-16.22-1.4-2.08-11.93-12.79c-11.51-11.68-11.89-12-12.77-11.41m59,17.28c-6.55,2.63-7.29,10.46-1.26,13.29,7.24,3.4,13.54-6.12,7.66-11.58-1.5-1.4-4.92-2.31-6.4-1.71m-30.19,12c-.27.17-11.82,11.64-18,17.85l-2.23,2.25.84,4q4.5,21.38,26.65,17.1l20.89-4c4.92-.89,6.41-1.29,6.78-1.84s.8-.25-14.81-16.14l-15.74-16c-3.24-3.3-3.72-3.65-4.39-3.22m49.69,13c-7.68,7.64-13,13.12-13,13.38,0,.62,6.85,7.52,7.46,7.52.44,0,2.27-.33,5.38-1l4.92-1L160.62,181c9-1.7,9.7.18-5.91-15.71l-8.14-8.34c-2.12-2.2-2.85-2.82-3.34-2.82s-3,2.4-13.65,12.95" fill="#fbfbfb" fill-rule="evenodd"/>
    </g>
  </g>
</svg>
