<svg id="svg" version="1.1" xmlns="http://www.w3.org/2000/svg" xmlns:xlink="http://www.w3.org/1999/xlink" width="400" height="400" viewBox="0, 0, 400,400"><g id="svgg"><path id="path0" d="M149.800 99.051 C 143.511 100.296,141.102 101.333,138.416 103.949 C 135.091 107.186,134.571 109.156,135.212 116.067 C 136.055 125.155,136.192 152.946,135.425 159.241 C 135.081 162.060,134.800 165.229,134.800 166.283 C 134.800 167.338,134.539 169.640,134.218 171.400 C 133.898 173.160,133.462 175.860,133.250 177.400 C 132.603 182.095,131.669 187.488,131.225 189.085 C 130.994 189.918,130.803 191.164,130.802 191.854 C 130.801 192.544,130.544 193.984,130.230 195.054 C 129.917 196.124,129.457 198.080,129.209 199.400 C 128.288 204.294,127.359 208.337,126.165 212.635 C 125.854 213.754,125.600 214.939,125.600 215.268 C 125.600 215.596,125.231 217.111,124.781 218.633 C 123.925 221.522,123.187 224.155,122.238 227.700 C 121.182 231.644,119.937 235.799,119.512 236.800 C 119.279 237.350,118.947 238.430,118.774 239.200 C 118.480 240.508,116.298 246.797,115.262 249.326 C 115.008 249.945,114.794 250.755,114.786 251.126 C 114.778 251.497,114.514 252.250,114.200 252.800 C 113.886 253.350,113.616 254.160,113.601 254.600 C 113.585 255.040,113.225 256.120,112.800 257.000 C 112.375 257.880,112.021 258.804,112.014 259.054 C 112.006 259.304,111.731 260.024,111.402 260.654 C 111.074 261.284,110.804 262.081,110.802 262.424 C 110.801 262.766,110.536 263.396,110.213 263.824 C 109.890 264.251,109.620 264.835,109.613 265.122 C 109.601 265.591,109.086 266.873,107.413 270.600 C 107.116 271.260,106.555 272.610,106.166 273.600 C 105.276 275.865,104.137 278.588,103.322 280.400 C 102.976 281.170,102.429 282.430,102.106 283.200 C 101.784 283.970,101.278 285.140,100.983 285.800 C 100.687 286.460,99.703 288.800,98.795 291.000 C 96.489 296.592,95.180 299.618,94.151 301.732 C 93.848 302.355,93.600 303.019,93.600 303.206 C 93.600 303.394,93.390 304.055,93.133 304.674 C 92.109 307.144,90.903 311.017,91.070 311.300 C 91.764 312.476,112.783 307.005,117.505 304.420 C 117.887 304.211,119.730 303.316,121.600 302.432 C 127.294 299.739,129.784 297.288,133.213 291.000 C 135.103 287.534,135.370 286.996,138.182 281.000 C 140.810 275.395,140.994 274.986,143.215 269.800 C 143.403 269.360,143.946 268.010,144.422 266.800 C 144.898 265.590,145.527 264.060,145.820 263.400 C 146.112 262.740,146.745 261.120,147.225 259.800 C 147.705 258.480,148.346 256.922,148.649 256.338 C 148.952 255.754,149.200 254.972,149.200 254.600 C 149.200 254.228,149.445 253.446,149.745 252.862 C 150.327 251.726,150.696 250.709,152.230 246.000 C 152.768 244.350,153.398 242.460,153.631 241.800 C 155.430 236.689,158.078 226.166,159.769 217.400 C 160.066 215.860,160.518 213.610,160.773 212.400 C 161.964 206.753,162.875 201.899,163.812 196.200 C 164.101 194.440,164.546 191.740,164.800 190.200 C 165.054 188.660,165.518 186.484,165.831 185.365 C 166.144 184.246,166.400 182.752,166.400 182.047 C 166.400 181.213,166.749 180.415,167.396 179.767 L 168.393 178.771 169.512 179.598 C 170.127 180.053,171.070 181.229,171.607 182.213 C 172.144 183.196,172.704 184.000,172.853 184.000 C 173.001 184.000,173.327 184.495,173.577 185.100 C 173.827 185.705,174.306 186.650,174.641 187.200 C 177.341 191.637,182.995 202.911,186.176 210.200 C 187.019 212.133,189.408 218.579,189.734 219.800 C 190.594 223.024,193.344 228.015,195.383 230.051 C 199.868 234.531,205.533 233.926,214.000 228.062 C 215.430 227.072,217.500 225.637,218.600 224.873 C 221.766 222.674,232.307 214.502,235.600 211.692 C 244.555 204.051,243.978 204.574,249.657 198.940 C 256.859 191.795,257.058 192.158,257.593 213.400 C 258.091 233.155,258.807 250.185,259.259 253.000 C 259.471 254.320,259.812 256.637,260.017 258.150 C 260.411 261.052,261.313 264.523,262.243 266.714 C 262.549 267.436,262.800 268.268,262.800 268.563 C 262.800 269.026,263.531 270.931,264.808 273.800 C 265.004 274.240,265.606 275.680,266.146 277.000 C 267.229 279.650,270.989 286.968,271.729 287.869 C 274.736 291.527,275.112 291.769,278.050 291.935 L 280.857 292.093 282.804 290.073 C 283.875 288.962,285.224 287.006,285.801 285.726 C 286.378 284.447,287.016 283.091,287.220 282.714 C 287.642 281.930,287.870 281.081,289.822 273.000 C 290.337 270.869,290.580 267.096,290.840 257.200 C 291.304 239.513,292.203 225.666,293.813 211.400 C 294.543 204.931,295.087 199.547,295.613 193.600 C 295.836 191.070,296.206 187.842,296.433 186.426 C 296.661 185.010,297.017 181.320,297.225 178.226 C 297.432 175.132,297.782 171.165,298.001 169.410 C 300.113 152.532,296.815 142.237,286.581 133.758 C 284.464 132.004,282.105 130.431,279.200 128.838 C 278.210 128.295,276.680 127.448,275.800 126.955 C 266.578 121.795,264.808 121.346,264.178 124.005 C 263.945 124.992,263.539 126.307,263.277 126.926 C 263.014 127.545,262.800 128.201,262.800 128.382 C 262.800 128.564,262.170 129.987,261.400 131.545 C 260.630 133.103,260.000 134.468,260.000 134.577 C 260.000 134.687,259.190 136.147,258.200 137.822 C 257.210 139.496,256.395 140.986,256.389 141.133 C 256.378 141.393,253.572 145.798,252.906 146.600 C 252.724 146.820,252.141 147.720,251.611 148.600 C 250.091 151.123,242.265 161.135,239.572 164.000 C 230.620 173.528,219.230 184.548,215.400 187.386 C 214.520 188.038,213.276 189.056,212.635 189.648 C 211.158 191.012,209.200 189.814,209.200 187.547 C 209.200 187.072,207.227 181.879,205.763 178.500 C 205.095 176.957,204.433 175.382,203.200 172.400 C 201.821 169.063,201.255 167.725,200.624 166.300 C 200.308 165.585,199.667 164.100,199.200 163.000 C 198.733 161.900,198.112 160.460,197.819 159.800 C 197.526 159.140,196.891 157.700,196.408 156.600 C 195.925 155.500,195.285 154.060,194.986 153.400 C 194.687 152.740,194.000 151.210,193.459 150.000 C 191.200 144.944,190.275 142.893,189.400 141.000 C 188.892 139.900,187.993 137.920,187.403 136.600 C 178.520 116.720,171.474 105.862,165.400 102.693 C 162.679 101.274,160.532 100.341,159.206 100.004 C 158.433 99.807,157.080 99.460,156.200 99.232 C 154.634 98.828,151.391 98.736,149.800 99.051 " stroke="none" fill="#fafbfa" fill-rule="evenodd"></path><path id="path1" d="M0.000 200.000 L 0.000 400.000 200.000 400.000 L 400.000 400.000 400.000 200.000 L 400.000 0.000 200.000 0.000 L 0.000 0.000 0.000 200.000 M159.424 98.987 C 159.851 99.310,160.592 99.580,161.071 99.587 C 161.551 99.594,162.213 99.870,162.543 100.200 C 162.873 100.530,163.398 100.800,163.710 100.800 C 165.905 100.800,174.728 109.335,176.529 113.200 C 176.683 113.530,177.167 114.340,177.605 115.000 C 178.043 115.660,178.674 116.740,179.007 117.400 C 179.340 118.060,179.776 118.870,179.977 119.200 C 180.178 119.530,180.446 120.070,180.573 120.400 C 180.700 120.730,181.331 121.900,181.975 123.000 C 182.620 124.100,183.159 125.238,183.173 125.529 C 183.188 125.819,183.470 126.327,183.800 126.657 C 184.130 126.987,184.400 127.582,184.400 127.980 C 184.400 128.377,184.670 128.926,185.000 129.200 C 185.330 129.474,185.601 129.991,185.603 130.349 C 185.604 130.707,185.963 131.540,186.400 132.200 C 186.837 132.860,187.196 133.715,187.197 134.100 C 187.199 134.485,187.368 134.800,187.573 134.800 C 187.778 134.800,188.065 135.205,188.210 135.700 C 188.522 136.764,189.827 139.762,190.631 141.262 C 190.944 141.846,191.200 142.589,191.200 142.913 C 191.200 143.237,191.470 143.726,191.800 144.000 C 192.130 144.274,192.400 144.904,192.400 145.400 C 192.400 145.896,192.670 146.526,193.000 146.800 C 193.330 147.074,193.600 147.555,193.600 147.870 C 193.600 148.184,193.992 149.197,194.470 150.121 C 196.156 153.373,196.400 153.929,196.400 154.513 C 196.400 154.837,196.670 155.326,197.000 155.600 C 197.330 155.874,197.600 156.504,197.600 157.000 C 197.600 157.496,197.865 158.122,198.189 158.391 C 198.514 158.660,198.892 159.486,199.031 160.226 C 199.170 160.966,199.535 161.780,199.842 162.035 C 200.149 162.290,200.400 162.904,200.400 163.400 C 200.400 163.896,200.670 164.526,201.000 164.800 C 201.330 165.074,201.600 165.602,201.600 165.973 C 201.600 166.344,201.864 166.996,202.187 167.424 C 202.510 167.851,202.780 168.473,202.787 168.806 C 202.794 169.139,203.160 170.084,203.600 170.904 C 204.040 171.725,204.400 172.736,204.400 173.150 C 204.400 173.563,204.670 174.126,205.000 174.400 C 205.330 174.674,205.600 175.304,205.600 175.800 C 205.600 176.296,205.870 176.926,206.200 177.200 C 206.530 177.474,206.800 177.994,206.800 178.355 C 206.800 178.716,207.160 179.684,207.600 180.504 C 208.040 181.325,208.400 182.347,208.400 182.775 C 208.400 183.203,208.575 183.661,208.789 183.793 C 209.003 183.926,209.378 184.775,209.622 185.681 C 210.486 188.892,211.502 189.791,212.693 188.400 C 213.070 187.960,213.509 187.600,213.668 187.600 C 213.828 187.600,214.463 187.129,215.079 186.553 C 215.696 185.977,217.185 184.672,218.388 183.653 C 219.592 182.634,221.071 181.305,221.675 180.700 C 222.279 180.095,222.845 179.600,222.932 179.600 C 223.448 179.600,238.726 163.816,240.937 161.000 C 241.801 159.900,242.714 158.820,242.967 158.600 C 243.465 158.167,247.420 153.076,248.400 151.608 C 248.730 151.113,249.585 149.930,250.300 148.978 C 251.015 148.027,251.600 147.145,251.600 147.020 C 251.600 146.894,252.196 145.939,252.925 144.896 C 253.653 143.853,254.375 142.730,254.529 142.400 C 254.683 142.070,255.156 141.260,255.580 140.600 C 256.003 139.940,256.915 138.277,257.606 136.904 C 258.297 135.532,259.028 134.306,259.231 134.181 C 259.434 134.055,259.600 133.616,259.600 133.205 C 259.600 132.794,259.870 132.187,260.200 131.857 C 260.530 131.527,260.800 131.039,260.800 130.772 C 260.800 130.506,261.135 129.548,261.544 128.644 C 262.657 126.187,263.278 124.353,263.497 122.872 C 263.900 120.156,266.246 120.545,272.800 124.415 C 273.130 124.610,274.390 125.237,275.600 125.808 C 276.810 126.379,278.340 127.190,279.000 127.610 C 279.660 128.031,280.740 128.645,281.400 128.975 C 284.973 130.762,293.191 138.083,293.809 140.027 C 293.944 140.452,294.192 140.800,294.362 140.800 C 294.531 140.800,295.172 141.794,295.787 143.009 C 296.401 144.223,297.061 145.314,297.252 145.432 C 297.443 145.550,297.601 146.042,297.602 146.524 C 297.604 147.006,297.919 147.940,298.302 148.600 C 299.195 150.135,299.299 173.701,298.427 176.786 C 298.150 177.768,297.779 181.098,297.603 184.186 C 297.426 187.274,297.084 190.307,296.841 190.926 C 296.598 191.545,296.387 193.615,296.371 195.526 C 296.355 197.437,296.165 199.990,295.949 201.200 C 295.733 202.410,295.386 205.740,295.179 208.600 C 294.973 211.460,294.602 214.520,294.355 215.400 C 294.109 216.280,293.757 219.970,293.572 223.600 C 293.388 227.230,293.049 230.829,292.819 231.597 C 292.588 232.366,292.381 236.776,292.358 241.397 C 292.267 259.397,291.456 272.146,290.199 275.308 C 289.870 276.138,289.600 277.408,289.600 278.132 C 289.600 278.855,289.336 279.796,289.013 280.224 C 288.690 280.651,288.420 281.406,288.413 281.901 C 288.406 282.397,288.040 283.475,287.600 284.296 C 287.160 285.116,286.800 286.016,286.800 286.294 C 286.800 286.572,286.638 286.800,286.439 286.800 C 286.241 286.800,285.903 287.295,285.689 287.900 C 285.199 289.282,282.068 292.400,281.170 292.400 C 280.800 292.400,280.274 292.670,280.000 293.000 C 279.368 293.762,278.118 293.761,276.654 292.998 C 276.024 292.669,275.312 292.400,275.071 292.400 C 274.474 292.400,271.600 289.553,271.600 288.962 C 271.600 288.700,271.375 288.396,271.100 288.286 C 270.825 288.177,270.150 287.216,269.600 286.151 C 269.050 285.086,268.375 283.973,268.100 283.679 C 267.825 283.384,267.600 282.818,267.600 282.420 C 267.600 282.023,267.330 281.474,267.000 281.200 C 266.670 280.926,266.400 280.453,266.400 280.150 C 266.400 279.846,266.040 278.925,265.600 278.104 C 265.160 277.284,264.800 276.371,264.800 276.077 C 264.800 275.783,264.530 275.273,264.200 274.943 C 263.870 274.613,263.594 273.951,263.587 273.471 C 263.580 272.992,263.310 272.251,262.987 271.824 C 262.664 271.396,262.400 270.672,262.400 270.213 C 262.400 269.754,262.145 269.014,261.833 268.569 C 261.521 268.123,261.136 267.065,260.977 266.217 C 260.818 265.368,260.444 264.208,260.146 263.637 C 259.848 263.067,259.604 261.857,259.602 260.949 C 259.601 260.041,259.330 258.651,259.000 257.862 C 258.658 257.043,258.400 255.205,258.400 253.586 C 258.400 252.024,258.125 248.823,257.790 246.473 C 257.361 243.470,257.070 236.194,256.812 222.000 C 256.426 200.778,256.052 196.000,254.777 196.000 C 254.405 196.000,252.317 197.755,250.136 199.900 C 247.955 202.045,245.316 204.520,244.272 205.400 C 243.228 206.280,241.585 207.732,240.623 208.626 C 239.660 209.520,238.293 210.690,237.586 211.226 C 236.878 211.762,236.004 212.470,235.645 212.800 C 235.285 213.130,234.093 214.120,232.995 215.000 C 231.898 215.880,230.910 216.691,230.800 216.802 C 230.690 216.914,229.880 217.534,229.000 218.180 C 228.120 218.827,227.256 219.591,227.080 219.878 C 226.904 220.165,226.604 220.400,226.414 220.400 C 226.224 220.400,225.648 220.756,225.134 221.191 C 224.620 221.627,222.580 223.149,220.600 224.574 C 218.620 225.999,216.820 227.310,216.600 227.489 C 214.977 228.806,211.092 231.098,207.138 233.070 C 205.582 233.847,198.658 233.793,198.000 233.000 C 197.726 232.670,197.299 232.398,197.051 232.395 C 195.954 232.383,191.600 227.448,191.600 226.216 C 191.600 225.877,191.423 225.600,191.208 225.600 C 190.992 225.600,190.702 225.150,190.564 224.599 C 190.426 224.049,189.972 222.930,189.556 222.114 C 189.140 221.298,188.794 220.264,188.787 219.815 C 188.780 219.367,188.510 218.651,188.187 218.224 C 187.864 217.796,187.600 217.046,187.600 216.556 C 187.600 216.066,187.347 215.155,187.038 214.532 C 185.668 211.772,184.800 209.666,184.800 209.105 C 184.800 208.771,184.530 208.274,184.200 208.000 C 183.870 207.726,183.600 207.096,183.600 206.600 C 183.600 206.104,183.330 205.474,183.000 205.200 C 182.670 204.926,182.400 204.386,182.400 204.000 C 182.400 203.614,182.142 203.083,181.826 202.821 C 181.510 202.559,181.138 201.830,181.000 201.200 C 180.862 200.570,180.490 199.841,180.174 199.579 C 179.858 199.317,179.600 198.786,179.600 198.400 C 179.600 198.014,179.330 197.474,179.000 197.200 C 178.670 196.926,178.400 196.375,178.400 195.975 C 178.400 195.575,178.234 195.145,178.031 195.019 C 177.828 194.894,177.099 193.668,176.410 192.296 C 174.561 188.614,172.795 185.485,172.160 184.769 C 171.852 184.421,171.600 183.990,171.600 183.810 C 171.600 183.630,170.950 182.689,170.155 181.720 C 168.279 179.430,167.439 179.969,167.047 183.713 C 166.904 185.081,166.528 186.920,166.211 187.800 C 165.894 188.680,165.627 190.341,165.618 191.492 C 165.608 192.642,165.344 194.262,165.032 195.092 C 164.720 195.921,164.380 197.817,164.278 199.304 C 164.175 200.791,163.914 202.231,163.697 202.504 C 163.480 202.777,163.178 204.310,163.026 205.912 C 162.874 207.513,162.491 209.443,162.175 210.199 C 161.859 210.955,161.600 212.306,161.600 213.200 C 161.600 214.094,161.330 215.472,161.000 216.262 C 160.670 217.051,160.400 218.392,160.400 219.241 C 160.400 220.089,160.144 221.462,159.831 222.292 C 159.517 223.121,159.145 224.662,159.004 225.715 C 158.862 226.769,158.488 228.248,158.173 229.002 C 157.858 229.757,157.594 230.965,157.587 231.687 C 157.580 232.409,157.310 233.349,156.987 233.776 C 156.664 234.204,156.400 235.198,156.400 235.987 C 156.400 236.776,156.156 237.777,155.857 238.211 C 155.558 238.645,155.191 239.667,155.042 240.483 C 154.892 241.299,154.508 242.469,154.188 243.083 C 153.867 243.697,153.604 244.673,153.602 245.251 C 153.601 245.829,153.330 246.526,153.000 246.800 C 152.670 247.074,152.400 247.782,152.400 248.373 C 152.400 248.964,152.136 249.796,151.813 250.224 C 151.490 250.651,151.220 251.363,151.213 251.806 C 151.206 252.249,150.840 253.284,150.400 254.104 C 149.960 254.925,149.594 255.913,149.587 256.299 C 149.580 256.684,149.310 257.349,148.987 257.776 C 148.664 258.204,148.400 258.934,148.400 259.400 C 148.400 259.866,148.136 260.596,147.813 261.024 C 147.490 261.451,147.220 262.050,147.213 262.356 C 147.201 262.875,146.276 265.085,144.962 267.732 C 144.653 268.355,144.400 269.188,144.400 269.583 C 144.400 269.979,144.130 270.526,143.800 270.800 C 143.470 271.074,143.200 271.571,143.200 271.905 C 143.200 272.239,142.855 273.252,142.432 274.156 C 142.010 275.060,141.561 276.070,141.435 276.400 C 141.308 276.730,141.050 277.270,140.861 277.600 C 140.672 277.930,140.232 278.830,139.884 279.600 C 137.726 284.377,137.109 285.609,136.775 285.816 C 136.569 285.943,136.400 286.384,136.400 286.795 C 136.400 287.206,136.139 287.804,135.820 288.123 C 135.501 288.442,135.121 289.175,134.976 289.752 C 134.832 290.328,134.570 290.800,134.396 290.800 C 134.221 290.800,133.875 291.295,133.627 291.900 C 133.159 293.040,132.889 293.508,131.149 296.202 C 129.868 298.184,127.218 300.613,125.382 301.489 C 124.622 301.852,124.000 302.281,124.000 302.442 C 124.000 302.604,123.472 302.852,122.828 302.994 C 122.183 303.136,121.441 303.510,121.179 303.826 C 120.917 304.142,120.296 304.400,119.800 304.400 C 119.304 304.400,118.674 304.670,118.400 305.000 C 118.126 305.330,117.609 305.606,117.251 305.614 C 116.893 305.621,115.880 305.975,115.000 306.400 C 114.120 306.825,113.040 307.185,112.600 307.199 C 112.160 307.214,111.451 307.490,111.024 307.813 C 110.596 308.136,109.776 308.400,109.200 308.400 C 108.624 308.400,107.804 308.664,107.376 308.987 C 106.949 309.310,106.099 309.580,105.487 309.587 C 104.875 309.594,103.777 309.850,103.046 310.155 C 102.316 310.460,100.927 310.833,99.959 310.985 C 98.992 311.136,97.471 311.527,96.580 311.854 C 95.654 312.193,94.027 312.394,92.780 312.324 L 90.600 312.200 90.475 310.467 C 90.397 309.383,90.584 308.378,90.975 307.781 C 91.319 307.257,91.600 306.385,91.600 305.843 C 91.600 305.301,91.870 304.587,92.200 304.257 C 92.530 303.927,92.806 303.419,92.814 303.129 C 92.821 302.838,93.175 301.880,93.600 301.000 C 94.025 300.120,94.379 299.107,94.386 298.749 C 94.394 298.391,94.670 297.874,95.000 297.600 C 95.330 297.326,95.600 296.687,95.600 296.180 C 95.600 295.672,95.870 294.987,96.200 294.657 C 96.530 294.327,96.800 293.839,96.800 293.572 C 96.800 293.306,97.179 292.258,97.643 291.244 C 98.474 289.427,99.198 287.757,100.179 285.400 C 100.453 284.740,101.065 283.340,101.539 282.289 C 102.013 281.238,102.400 280.135,102.400 279.838 C 102.400 279.541,102.670 279.074,103.000 278.800 C 103.330 278.526,103.600 277.887,103.600 277.380 C 103.600 276.872,103.870 276.187,104.200 275.857 C 104.530 275.527,104.800 275.017,104.800 274.723 C 104.800 274.429,105.160 273.516,105.600 272.696 C 106.040 271.875,106.400 270.864,106.400 270.450 C 106.400 270.037,106.670 269.474,107.000 269.200 C 107.330 268.926,107.600 268.308,107.600 267.827 C 107.600 267.346,107.864 266.604,108.187 266.176 C 108.510 265.749,108.780 265.127,108.787 264.794 C 108.794 264.461,109.160 263.516,109.600 262.696 C 110.040 261.875,110.406 260.887,110.413 260.501 C 110.420 260.116,110.690 259.451,111.013 259.024 C 111.336 258.596,111.600 257.904,111.600 257.485 C 111.600 257.066,111.843 256.246,112.140 255.662 C 112.875 254.218,114.027 250.864,114.293 249.400 C 114.412 248.740,114.755 247.845,115.055 247.411 C 115.355 246.977,115.600 246.252,115.600 245.800 C 115.600 245.348,115.844 244.623,116.143 244.189 C 116.442 243.755,116.809 242.733,116.958 241.917 C 117.108 241.101,117.492 239.931,117.812 239.317 C 118.133 238.703,118.396 237.739,118.398 237.176 C 118.399 236.614,118.664 235.804,118.987 235.376 C 119.310 234.949,119.580 234.049,119.587 233.376 C 119.594 232.704,119.864 231.804,120.187 231.376 C 120.510 230.949,120.780 230.191,120.787 229.690 C 120.794 229.190,121.160 227.756,121.600 226.504 C 122.040 225.252,122.400 223.761,122.400 223.190 C 122.400 222.620,122.664 221.804,122.987 221.376 C 123.310 220.949,123.581 219.970,123.590 219.200 C 123.598 218.430,123.855 217.321,124.160 216.736 C 124.465 216.151,124.843 214.740,125.000 213.600 C 125.157 212.460,125.535 211.049,125.840 210.464 C 126.145 209.879,126.396 208.716,126.398 207.880 C 126.399 207.044,126.645 205.874,126.945 205.280 C 127.244 204.686,127.593 203.153,127.719 201.872 C 127.845 200.592,128.116 199.332,128.322 199.072 C 128.527 198.813,128.814 197.520,128.958 196.200 C 129.103 194.880,129.478 193.080,129.793 192.200 C 130.108 191.320,130.373 189.739,130.382 188.687 C 130.392 187.635,130.670 186.128,131.000 185.338 C 131.330 184.549,131.604 183.069,131.610 182.051 C 131.615 181.033,131.811 179.480,132.045 178.600 C 132.280 177.720,132.717 174.930,133.016 172.400 C 133.316 169.870,133.742 166.990,133.963 166.000 C 134.184 165.010,134.373 162.320,134.383 160.023 C 134.392 157.725,134.685 152.553,135.033 148.529 C 135.610 141.857,135.610 140.408,135.033 132.101 C 134.143 119.296,134.173 108.418,135.101 106.699 C 136.625 103.875,141.830 99.618,143.797 99.587 C 144.238 99.580,144.949 99.310,145.376 98.987 C 145.982 98.529,147.526 98.400,152.400 98.400 C 157.274 98.400,158.818 98.529,159.424 98.987 " stroke="none" fill="#349c04" fill-rule="evenodd"></path><path id="path2" d="M145.376 98.987 C 144.949 99.310,144.238 99.580,143.797 99.587 C 141.830 99.618,136.625 103.875,135.101 106.699 C 134.173 108.418,134.143 119.296,135.033 132.101 C 135.610 140.408,135.610 141.857,135.033 148.529 C 134.685 152.553,134.392 157.725,134.383 160.023 C 134.373 162.320,134.184 165.010,133.963 166.000 C 133.742 166.990,133.316 169.870,133.016 172.400 C 132.717 174.930,132.280 177.720,132.045 178.600 C 131.811 179.480,131.615 181.033,131.610 182.051 C 131.604 183.069,131.330 184.549,131.000 185.338 C 130.670 186.128,130.392 187.635,130.382 188.687 C 130.373 189.739,130.108 191.320,129.793 192.200 C 129.478 193.080,129.103 194.880,128.958 196.200 C 128.814 197.520,128.527 198.813,128.322 199.072 C 128.116 199.332,127.845 200.592,127.719 201.872 C 127.593 203.153,127.244 204.686,126.945 205.280 C 126.645 205.874,126.399 207.044,126.398 207.880 C 126.396 208.716,126.145 209.879,125.840 210.464 C 125.535 211.049,125.157 212.460,125.000 213.600 C 124.843 214.740,124.465 216.151,124.160 216.736 C 123.855 217.321,123.598 218.430,123.590 219.200 C 123.581 219.970,123.310 220.949,122.987 221.376 C 122.664 221.804,122.400 222.620,122.400 223.190 C 122.400 223.761,122.040 225.252,121.600 226.504 C 121.160 227.756,120.794 229.190,120.787 229.690 C 120.780 230.191,120.510 230.949,120.187 231.376 C 119.864 231.804,119.594 232.704,119.587 233.376 C 119.580 234.049,119.310 234.949,118.987 235.376 C 118.664 235.804,118.399 236.614,118.398 237.176 C 118.396 237.739,118.133 238.703,117.812 239.317 C 117.492 239.931,117.108 241.101,116.958 241.917 C 116.809 242.733,116.442 243.755,116.143 244.189 C 115.844 244.623,115.600 245.348,115.600 245.800 C 115.600 246.252,115.355 246.977,115.055 247.411 C 114.755 247.845,114.412 248.740,114.293 249.400 C 114.027 250.864,112.875 254.218,112.140 255.662 C 111.843 256.246,111.600 257.066,111.600 257.485 C 111.600 257.904,111.336 258.596,111.013 259.024 C 110.690 259.451,110.420 260.116,110.413 260.501 C 110.406 260.887,110.040 261.875,109.600 262.696 C 109.160 263.516,108.794 264.461,108.787 264.794 C 108.780 265.127,108.510 265.749,108.187 266.176 C 107.864 266.604,107.600 267.346,107.600 267.827 C 107.600 268.308,107.330 268.926,107.000 269.200 C 106.670 269.474,106.400 270.037,106.400 270.450 C 106.400 270.864,106.040 271.875,105.600 272.696 C 105.160 273.516,104.800 274.429,104.800 274.723 C 104.800 275.017,104.530 275.527,104.200 275.857 C 103.870 276.187,103.600 276.872,103.600 277.380 C 103.600 277.887,103.330 278.526,103.000 278.800 C 102.670 279.074,102.400 279.541,102.400 279.838 C 102.400 280.135,102.013 281.238,101.539 282.289 C 101.065 283.340,100.453 284.740,100.179 285.400 C 99.198 287.757,98.474 289.427,97.643 291.244 C 97.179 292.258,96.800 293.306,96.800 293.572 C 96.800 293.839,96.530 294.327,96.200 294.657 C 95.870 294.987,95.600 295.672,95.600 296.180 C 95.600 296.687,95.330 297.326,95.000 297.600 C 94.670 297.874,94.394 298.391,94.386 298.749 C 94.379 299.107,94.025 300.120,93.600 301.000 C 93.175 301.880,92.821 302.838,92.814 303.129 C 92.806 303.419,92.530 303.927,92.200 304.257 C 91.870 304.587,91.600 305.301,91.600 305.843 C 91.600 306.385,91.319 307.257,90.975 307.781 C 90.584 308.378,90.397 309.383,90.475 310.467 L 90.600 312.200 92.780 312.324 C 94.027 312.394,95.654 312.193,96.580 311.854 C 97.471 311.527,98.992 311.136,99.959 310.985 C 100.927 310.833,102.316 310.460,103.046 310.155 C 103.777 309.850,104.875 309.594,105.487 309.587 C 106.099 309.580,106.949 309.310,107.376 308.987 C 107.804 308.664,108.624 308.400,109.200 308.400 C 109.776 308.400,110.596 308.136,111.024 307.813 C 111.451 307.490,112.160 307.214,112.600 307.199 C 113.040 307.185,114.120 306.825,115.000 306.400 C 115.880 305.975,116.893 305.621,117.251 305.614 C 117.609 305.606,118.126 305.330,118.400 305.000 C 118.674 304.670,119.304 304.400,119.800 304.400 C 120.296 304.400,120.917 304.142,121.179 303.826 C 121.441 303.510,122.183 303.136,122.828 302.994 C 123.472 302.852,124.000 302.604,124.000 302.442 C 124.000 302.281,124.622 301.852,125.382 301.489 C 127.218 300.613,129.868 298.184,131.149 296.202 C 132.889 293.508,133.159 293.040,133.627 291.900 C 133.875 291.295,134.221 290.800,134.396 290.800 C 134.570 290.800,134.832 290.328,134.976 289.752 C 135.121 289.175,135.501 288.442,135.820 288.123 C 136.139 287.804,136.400 287.206,136.400 286.795 C 136.400 286.384,136.569 285.943,136.775 285.816 C 137.109 285.609,137.726 284.377,139.884 279.600 C 140.232 278.830,140.672 277.930,140.861 277.600 C 141.050 277.270,141.308 276.730,141.435 276.400 C 141.561 276.070,142.010 275.060,142.432 274.156 C 142.855 273.252,143.200 272.239,143.200 271.905 C 143.200 271.571,143.470 271.074,143.800 270.800 C 144.130 270.526,144.400 269.979,144.400 269.583 C 144.400 269.188,144.653 268.355,144.962 267.732 C 146.276 265.085,147.201 262.875,147.213 262.356 C 147.220 262.050,147.490 261.451,147.813 261.024 C 148.136 260.596,148.400 259.866,148.400 259.400 C 148.400 258.934,148.664 258.204,148.987 257.776 C 149.310 257.349,149.580 256.684,149.587 256.299 C 149.594 255.913,149.960 254.925,150.400 254.104 C 150.840 253.284,151.206 252.249,151.213 251.806 C 151.220 251.363,151.490 250.651,151.813 250.224 C 152.136 249.796,152.400 248.964,152.400 248.373 C 152.400 247.782,152.670 247.074,153.000 246.800 C 153.330 246.526,153.601 245.829,153.602 245.251 C 153.604 244.673,153.867 243.697,154.188 243.083 C 154.508 242.469,154.892 241.299,155.042 240.483 C 155.191 239.667,155.558 238.645,155.857 238.211 C 156.156 237.777,156.400 236.776,156.400 235.987 C 156.400 235.198,156.664 234.204,156.987 233.776 C 157.310 233.349,157.580 232.409,157.587 231.687 C 157.594 230.965,157.858 229.757,158.173 229.002 C 158.488 228.248,158.862 226.769,159.004 225.715 C 159.145 224.662,159.517 223.121,159.831 222.292 C 160.144 221.462,160.400 220.089,160.400 219.241 C 160.400 218.392,160.670 217.051,161.000 216.262 C 161.330 215.472,161.600 214.094,161.600 213.200 C 161.600 212.306,161.859 210.955,162.175 210.199 C 162.491 209.443,162.874 207.513,163.026 205.912 C 163.178 204.310,163.480 202.777,163.697 202.504 C 163.914 202.231,164.175 200.791,164.278 199.304 C 164.380 197.817,164.720 195.921,165.032 195.092 C 165.344 194.262,165.608 192.642,165.618 191.492 C 165.627 190.341,165.894 188.680,166.211 187.800 C 166.528 186.920,166.904 185.081,167.047 183.713 C 167.439 179.969,168.279 179.430,170.155 181.720 C 170.950 182.689,171.600 183.630,171.600 183.810 C 171.600 183.990,171.852 184.421,172.160 184.769 C 172.795 185.485,174.561 188.614,176.410 192.296 C 177.099 193.668,177.828 194.894,178.031 195.019 C 178.234 195.145,178.400 195.575,178.400 195.975 C 178.400 196.375,178.670 196.926,179.000 197.200 C 179.330 197.474,179.600 198.014,179.600 198.400 C 179.600 198.786,179.858 199.317,180.174 199.579 C 180.490 199.841,180.862 200.570,181.000 201.200 C 181.138 201.830,181.510 202.559,181.826 202.821 C 182.142 203.083,182.400 203.614,182.400 204.000 C 182.400 204.386,182.670 204.926,183.000 205.200 C 183.330 205.474,183.600 206.104,183.600 206.600 C 183.600 207.096,183.870 207.726,184.200 208.000 C 184.530 208.274,184.800 208.771,184.800 209.105 C 184.800 209.666,185.668 211.772,187.038 214.532 C 187.347 215.155,187.600 216.066,187.600 216.556 C 187.600 217.046,187.864 217.796,188.187 218.224 C 188.510 218.651,188.780 219.367,188.787 219.815 C 188.794 220.264,189.140 221.298,189.556 222.114 C 189.972 222.930,190.426 224.049,190.564 224.599 C 190.702 225.150,190.992 225.600,191.208 225.600 C 191.423 225.600,191.600 225.877,191.600 226.216 C 191.600 227.448,195.954 232.383,197.051 232.395 C 197.299 232.398,197.726 232.670,198.000 233.000 C 198.658 233.793,205.582 233.847,207.138 233.070 C 211.092 231.098,214.977 228.806,216.600 227.489 C 216.820 227.310,218.620 225.999,220.600 224.574 C 222.580 223.149,224.620 221.627,225.134 221.191 C 225.648 220.756,226.224 220.400,226.414 220.400 C 226.604 220.400,226.904 220.165,227.080 219.878 C 227.256 219.591,228.120 218.827,229.000 218.180 C 229.880 217.534,230.690 216.914,230.800 216.802 C 230.910 216.691,231.898 215.880,232.995 215.000 C 234.093 214.120,235.285 213.130,235.645 212.800 C 236.004 212.470,236.878 211.762,237.586 211.226 C 238.293 210.690,239.660 209.520,240.623 208.626 C 241.585 207.732,243.228 206.280,244.272 205.400 C 245.316 204.520,247.955 202.045,250.136 199.900 C 252.317 197.755,254.405 196.000,254.777 196.000 C 256.052 196.000,256.426 200.778,256.812 222.000 C 257.070 236.194,257.361 243.470,257.790 246.473 C 258.125 248.823,258.400 252.024,258.400 253.586 C 258.400 255.205,258.658 257.043,259.000 257.862 C 259.330 258.651,259.601 260.041,259.602 260.949 C 259.604 261.857,259.848 263.067,260.146 263.637 C 260.444 264.208,260.818 265.368,260.977 266.217 C 261.136 267.065,261.521 268.123,261.833 268.569 C 262.145 269.014,262.400 269.754,262.400 270.213 C 262.400 270.672,262.664 271.396,262.987 271.824 C 263.310 272.251,263.580 272.992,263.587 273.471 C 263.594 273.951,263.870 274.613,264.200 274.943 C 264.530 275.273,264.800 275.783,264.800 276.077 C 264.800 276.371,265.160 277.284,265.600 278.104 C 266.040 278.925,266.400 279.846,266.400 280.150 C 266.400 280.453,266.670 280.926,267.000 281.200 C 267.330 281.474,267.600 282.023,267.600 282.420 C 267.600 282.818,267.825 283.384,268.100 283.679 C 268.375 283.973,269.050 285.086,269.600 286.151 C 270.150 287.216,270.825 288.177,271.100 288.286 C 271.375 288.396,271.600 288.700,271.600 288.962 C 271.600 289.553,274.474 292.400,275.071 292.400 C 275.312 292.400,276.024 292.669,276.654 292.998 C 278.118 293.761,279.368 293.762,280.000 293.000 C 280.274 292.670,280.800 292.400,281.170 292.400 C 282.068 292.400,285.199 289.282,285.689 287.900 C 285.903 287.295,286.241 286.800,286.439 286.800 C 286.638 286.800,286.800 286.572,286.800 286.294 C 286.800 286.016,287.160 285.116,287.600 284.296 C 288.040 283.475,288.406 282.397,288.413 281.901 C 288.420 281.406,288.690 280.651,289.013 280.224 C 289.336 279.796,289.600 278.855,289.600 278.132 C 289.600 277.408,289.870 276.138,290.199 275.308 C 291.456 272.146,292.267 259.397,292.358 241.397 C 292.381 236.776,292.588 232.366,292.819 231.597 C 293.049 230.829,293.388 227.230,293.572 223.600 C 293.757 219.970,294.109 216.280,294.355 215.400 C 294.602 214.520,294.973 211.460,295.179 208.600 C 295.386 205.740,295.733 202.410,295.949 201.200 C 296.165 199.990,296.355 197.437,296.371 195.526 C 296.387 193.615,296.598 191.545,296.841 190.926 C 297.084 190.307,297.426 187.274,297.603 184.186 C 297.779 181.098,298.150 177.768,298.427 176.786 C 299.299 173.701,299.195 150.135,298.302 148.600 C 297.919 147.940,297.604 147.006,297.602 146.524 C 297.601 146.042,297.443 145.550,297.252 145.432 C 297.061 145.314,296.401 144.223,295.787 143.009 C 295.172 141.794,294.531 140.800,294.362 140.800 C 294.192 140.800,293.944 140.452,293.809 140.027 C 293.191 138.083,284.973 130.762,281.400 128.975 C 280.740 128.645,279.660 128.031,279.000 127.610 C 278.340 127.190,276.810 126.379,275.600 125.808 C 274.390 125.237,273.130 124.610,272.800 124.415 C 266.246 120.545,263.900 120.156,263.497 122.872 C 263.278 124.353,262.657 126.187,261.544 128.644 C 261.135 129.548,260.800 130.506,260.800 130.772 C 260.800 131.039,260.530 131.527,260.200 131.857 C 259.870 132.187,259.600 132.794,259.600 133.205 C 259.600 133.616,259.434 134.055,259.231 134.181 C 259.028 134.306,258.297 135.532,257.606 136.904 C 256.915 138.277,256.003 139.940,255.580 140.600 C 255.156 141.260,254.683 142.070,254.529 142.400 C 254.375 142.730,253.653 143.853,252.925 144.896 C 252.196 145.939,251.600 146.894,251.600 147.020 C 251.600 147.145,251.015 148.027,250.300 148.978 C 249.585 149.930,248.730 151.113,248.400 151.608 C 247.420 153.076,243.465 158.167,242.967 158.600 C 242.714 158.820,241.801 159.900,240.937 161.000 C 238.726 163.816,223.448 179.600,222.932 179.600 C 222.845 179.600,222.279 180.095,221.675 180.700 C 221.071 181.305,219.592 182.634,218.388 183.653 C 217.185 184.672,215.696 185.977,215.079 186.553 C 214.463 187.129,213.828 187.600,213.668 187.600 C 213.509 187.600,213.070 187.960,212.693 188.400 C 211.502 189.791,210.486 188.892,209.622 185.681 C 209.378 184.775,209.003 183.926,208.789 183.793 C 208.575 183.661,208.400 183.203,208.400 182.775 C 208.400 182.347,208.040 181.325,207.600 180.504 C 207.160 179.684,206.800 178.716,206.800 178.355 C 206.800 177.994,206.530 177.474,206.200 177.200 C 205.870 176.926,205.600 176.296,205.600 175.800 C 205.600 175.304,205.330 174.674,205.000 174.400 C 204.670 174.126,204.400 173.563,204.400 173.150 C 204.400 172.736,204.040 171.725,203.600 170.904 C 203.160 170.084,202.794 169.139,202.787 168.806 C 202.780 168.473,202.510 167.851,202.187 167.424 C 201.864 166.996,201.600 166.344,201.600 165.973 C 201.600 165.602,201.330 165.074,201.000 164.800 C 200.670 164.526,200.400 163.896,200.400 163.400 C 200.400 162.904,200.149 162.290,199.842 162.035 C 199.535 161.780,199.170 160.966,199.031 160.226 C 198.892 159.486,198.514 158.660,198.189 158.391 C 197.865 158.122,197.600 157.496,197.600 157.000 C 197.600 156.504,197.330 155.874,197.000 155.600 C 196.670 155.326,196.400 154.837,196.400 154.513 C 196.400 153.929,196.156 153.373,194.470 150.121 C 193.992 149.197,193.600 148.184,193.600 147.870 C 193.600 147.555,193.330 147.074,193.000 146.800 C 192.670 146.526,192.400 145.896,192.400 145.400 C 192.400 144.904,192.130 144.274,191.800 144.000 C 191.470 143.726,191.200 143.237,191.200 142.913 C 191.200 142.589,190.944 141.846,190.631 141.262 C 189.827 139.762,188.522 136.764,188.210 135.700 C 188.065 135.205,187.778 134.800,187.573 134.800 C 187.368 134.800,187.199 134.485,187.197 134.100 C 187.196 133.715,186.837 132.860,186.400 132.200 C 185.963 131.540,185.604 130.707,185.603 130.349 C 185.601 129.991,185.330 129.474,185.000 129.200 C 184.670 128.926,184.400 128.377,184.400 127.980 C 184.400 127.582,184.130 126.987,183.800 126.657 C 183.470 126.327,183.188 125.819,183.173 125.529 C 183.159 125.238,182.620 124.100,181.975 123.000 C 181.331 121.900,180.700 120.730,180.573 120.400 C 180.446 120.070,180.178 119.530,179.977 119.200 C 179.776 118.870,179.340 118.060,179.007 117.400 C 178.674 116.740,178.043 115.660,177.605 115.000 C 177.167 114.340,176.683 113.530,176.529 113.200 C 174.728 109.335,165.905 100.800,163.710 100.800 C 163.398 100.800,162.873 100.530,162.543 100.200 C 162.213 99.870,161.551 99.594,161.071 99.587 C 160.592 99.580,159.851 99.310,159.424 98.987 C 158.818 98.529,157.274 98.400,152.400 98.400 C 147.526 98.400,145.982 98.529,145.376 98.987 M156.200 99.232 C 157.080 99.460,158.433 99.807,159.206 100.004 C 160.532 100.341,162.679 101.274,165.400 102.693 C 171.474 105.862,178.520 116.720,187.403 136.600 C 187.993 137.920,188.892 139.900,189.400 141.000 C 190.275 142.893,191.200 144.944,193.459 150.000 C 194.000 151.210,194.687 152.740,194.986 153.400 C 195.285 154.060,195.925 155.500,196.408 156.600 C 196.891 157.700,197.526 159.140,197.819 159.800 C 198.112 160.460,198.733 161.900,199.200 163.000 C 199.667 164.100,200.308 165.585,200.624 166.300 C 201.255 167.725,201.821 169.063,203.200 172.400 C 204.433 175.382,205.095 176.957,205.763 178.500 C 207.227 181.879,209.200 187.072,209.200 187.547 C 209.200 189.814,211.158 191.012,212.635 189.648 C 213.276 189.056,214.520 188.038,215.400 187.386 C 219.230 184.548,230.620 173.528,239.572 164.000 C 242.265 161.135,250.091 151.123,251.611 148.600 C 252.141 147.720,252.724 146.820,252.906 146.600 C 253.572 145.798,256.378 141.393,256.389 141.133 C 256.395 140.986,257.210 139.496,258.200 137.822 C 259.190 136.147,260.000 134.687,260.000 134.577 C 260.000 134.468,260.630 133.103,261.400 131.545 C 262.170 129.987,262.800 128.564,262.800 128.382 C 262.800 128.201,263.014 127.545,263.277 126.926 C 263.539 126.307,263.945 124.992,264.178 124.005 C 264.808 121.346,266.578 121.795,275.800 126.955 C 276.680 127.448,278.210 128.295,279.200 128.838 C 295.070 137.543,300.517 149.298,298.001 169.410 C 297.782 171.165,297.432 175.132,297.225 178.226 C 297.017 181.320,296.661 185.010,296.433 186.426 C 296.206 187.842,295.836 191.070,295.613 193.600 C 295.087 199.547,294.543 204.931,293.813 211.400 C 292.203 225.666,291.304 239.513,290.840 257.200 C 290.580 267.096,290.337 270.869,289.822 273.000 C 287.870 281.081,287.642 281.930,287.220 282.714 C 287.016 283.091,286.378 284.447,285.801 285.726 C 285.224 287.006,283.875 288.962,282.804 290.073 L 280.857 292.093 278.050 291.935 C 275.112 291.769,274.736 291.527,271.729 287.869 C 270.989 286.968,267.229 279.650,266.146 277.000 C 265.606 275.680,265.004 274.240,264.808 273.800 C 263.531 270.931,262.800 269.026,262.800 268.563 C 262.800 268.268,262.549 267.436,262.243 266.714 C 261.313 264.523,260.411 261.052,260.017 258.150 C 259.812 256.637,259.471 254.320,259.259 253.000 C 258.807 250.185,258.091 233.155,257.593 213.400 C 257.058 192.158,256.859 191.795,249.657 198.940 C 243.978 204.574,244.555 204.051,235.600 211.692 C 232.307 214.502,221.766 222.674,218.600 224.873 C 217.500 225.637,215.430 227.072,214.000 228.062 C 205.533 233.926,199.868 234.531,195.383 230.051 C 193.344 228.015,190.594 223.024,189.734 219.800 C 189.408 218.579,187.019 212.133,186.176 210.200 C 182.995 202.911,177.341 191.637,174.641 187.200 C 174.306 186.650,173.827 185.705,173.577 185.100 C 173.327 184.495,173.001 184.000,172.853 184.000 C 172.704 184.000,172.144 183.196,171.607 182.213 C 171.070 181.229,170.127 180.053,169.512 179.598 L 168.393 178.771 167.396 179.767 C 166.749 180.415,166.400 181.213,166.400 182.047 C 166.400 182.752,166.144 184.246,165.831 185.365 C 165.518 186.484,165.054 188.660,164.800 190.200 C 164.546 191.740,164.101 194.440,163.812 196.200 C 162.875 201.899,161.964 206.753,160.773 212.400 C 160.518 213.610,160.066 215.860,159.769 217.400 C 158.078 226.166,155.430 236.689,153.631 241.800 C 153.398 242.460,152.768 244.350,152.230 246.000 C 150.696 250.709,150.327 251.726,149.745 252.862 C 149.445 253.446,149.200 254.228,149.200 254.600 C 149.200 254.972,148.952 255.754,148.649 256.338 C 148.346 256.922,147.705 258.480,147.225 259.800 C 146.745 261.120,146.112 262.740,145.820 263.400 C 145.527 264.060,144.898 265.590,144.422 266.800 C 143.946 268.010,143.403 269.360,143.215 269.800 C 140.994 274.986,140.810 275.395,138.182 281.000 C 135.370 286.996,135.103 287.534,133.213 291.000 C 129.784 297.288,127.294 299.739,121.600 302.432 C 119.730 303.316,117.887 304.211,117.505 304.420 C 112.783 307.005,91.764 312.476,91.070 311.300 C 90.903 311.017,92.109 307.144,93.133 304.674 C 93.390 304.055,93.600 303.394,93.600 303.206 C 93.600 303.019,93.848 302.355,94.151 301.732 C 95.180 299.618,96.489 296.592,98.795 291.000 C 99.703 288.800,100.687 286.460,100.983 285.800 C 101.278 285.140,101.784 283.970,102.106 283.200 C 102.429 282.430,102.976 281.170,103.322 280.400 C 104.137 278.588,105.276 275.865,106.166 273.600 C 106.555 272.610,107.116 271.260,107.413 270.600 C 109.086 266.873,109.601 265.591,109.613 265.122 C 109.620 264.835,109.890 264.251,110.213 263.824 C 110.536 263.396,110.801 262.766,110.802 262.424 C 110.804 262.081,111.074 261.284,111.402 260.654 C 111.731 260.024,112.006 259.304,112.014 259.054 C 112.021 258.804,112.375 257.880,112.800 257.000 C 113.225 256.120,113.585 255.040,113.601 254.600 C 113.616 254.160,113.886 253.350,114.200 252.800 C 114.514 252.250,114.778 251.497,114.786 251.126 C 114.794 250.755,115.008 249.945,115.262 249.326 C 116.298 246.797,118.480 240.508,118.774 239.200 C 118.947 238.430,119.279 237.350,119.512 236.800 C 119.937 235.799,121.182 231.644,122.238 227.700 C 123.187 224.155,123.925 221.522,124.781 218.633 C 125.231 217.111,125.600 215.596,125.600 215.268 C 125.600 214.939,125.854 213.754,126.165 212.635 C 127.359 208.337,128.288 204.294,129.209 199.400 C 129.457 198.080,129.917 196.124,130.230 195.054 C 130.544 193.984,130.801 192.544,130.802 191.854 C 130.803 191.164,130.994 189.918,131.225 189.085 C 131.669 187.488,132.603 182.095,133.250 177.400 C 133.462 175.860,133.898 173.160,134.218 171.400 C 134.539 169.640,134.800 167.338,134.800 166.283 C 134.800 165.229,135.081 162.060,135.425 159.241 C 136.192 152.946,136.055 125.155,135.212 116.067 C 134.571 109.156,135.091 107.186,138.416 103.949 C 141.102 101.333,143.511 100.296,149.800 99.051 C 151.391 98.736,154.634 98.828,156.200 99.232 " stroke="none" fill="#76bb55" fill-rule="evenodd"></path></g></svg>