<svg width="256" height="256" viewBox="0 0 256 256" fill="none" xmlns="http://www.w3.org/2000/svg">
<rect width="256" height="256" fill="white"/>
<path fill-rule="evenodd" clip-rule="evenodd" d="M79.555 47.3917C74.9427 47.9426 69.4546 49.1934 66.1337 50.4515C64.2722 51.1564 64.0399 51.2472 63.4269 51.5083C62.4682 51.9171 57.7133 54.2551 56.9982 54.6696C53.8961 56.4668 52.9014 57.1198 50.4568 58.961C31.0856 73.5507 22.4227 99.7611 29.3831 122.72C30.7636 127.273 32.4266 131.22 34.5154 134.901C35.4881 136.614 35.1092 136.054 46.0966 152.044C48.143 155.022 50.6147 158.625 51.5903 160.052C55.2208 165.363 61.2107 174.09 64.7989 179.298C66.8358 182.254 69.6272 186.314 71.002 188.32C72.3769 190.327 75.1107 194.304 77.0777 197.158C79.0441 200.011 81.5123 203.615 82.5624 205.165C84.9167 208.643 85.2359 209.002 85.9667 208.993C86.9491 208.981 86.6637 209.354 94.7469 197.496C95.8037 195.945 97.7882 193.052 99.1568 191.067C100.525 189.082 102.821 185.733 104.258 183.624C105.696 181.515 107.61 178.723 108.513 177.421C109.416 176.118 111.674 172.819 113.532 170.09C116.958 165.054 120.68 159.626 127.601 149.568C135.962 137.417 137.235 135.474 138.612 132.758C145.14 119.891 146.733 105.203 143.115 91.2538C142.476 88.7895 141.564 85.9073 141.243 85.3355C141.121 85.1201 141.022 84.8443 141.022 84.7219C141.022 84.4772 140.277 82.7725 139.069 80.2534C128.404 58.0063 103.912 44.483 79.555 47.3917ZM80.0614 87.1372C80.6738 87.9746 83.2548 91.7557 85.797 95.5396C88.3391 99.3235 90.9692 103.231 91.6414 104.224L92.8634 106.028L92.9762 95.8779L93.089 85.7274L100.589 85.6682L108.089 85.6084V105.916V126.223L100.498 126.163L92.9069 126.104L87.4177 117.984C84.3985 113.517 81.293 108.95 80.5159 107.833L79.1038 105.803L79.0452 116.013L78.9865 126.223L71.4887 126.163L63.9908 126.104L63.9327 106.141C63.9006 95.1618 63.9226 86.0517 63.9818 85.8966C64.0647 85.6789 65.783 85.6146 71.5191 85.6146H78.9482L80.0614 87.1372Z" fill="#04DF47"/>
<path fill-rule="evenodd" clip-rule="evenodd" d="M111.192 173.527C110.627 174.366 109.424 176.118 108.518 177.42C107.613 178.723 105.696 181.514 104.258 183.623C102.821 185.732 100.525 189.082 99.157 191.067C97.7884 193.052 95.804 195.945 94.7472 197.496C89.1819 205.66 87.2217 208.462 86.9014 208.71C86.6234 208.927 101.716 208.987 157.658 208.992L228.768 209V190.645V172.29L227.915 172.153C227.445 172.078 201.222 172.013 169.64 172.01L112.219 172.002L111.192 173.527Z" fill="#4456F3"/>
</svg>
