<svg width="256" height="256" viewBox="0 0 256 256" fill="none" xmlns="http://www.w3.org/2000/svg">
<g clip-path="url(#clip0_1434_23558)">
<rect width="256" height="256" fill="white"/>
<path d="M256 255.5H-0.5V190.5C-0.5 190.5 34.5 208 89.5 183C95 178.833 117.9 176 166.5 176C207 176 246.333 202.166 256 212.5V255.5Z" fill="#F0EFEA"/>
<path d="M70 156C52.5 166.5 20 165 0 156.5V75H256V171C256 171 227.5 148.5 181.5 145C135.5 141.5 103.191 136.085 70 156Z" fill="#BCEB84"/>
<path d="M72.5 160C46.5 174.4 13.3333 167 0 161.5V186.5C0 186.5 40 203 89 178C138 153 120 166 173.5 171C227 176 256 206 256 206V176C256 176 219.5 149 179.5 149C154.667 146.667 98.5 145.6 72.5 160Z" fill="#D1D1D1"/>
<path d="M57.5 129.5C34.3 133.1 9.33333 128.5 0 125.5V0L256 -1.52588e-05V89.5C256 89.5 229.5 77 190 86C153.5 99.6667 80.7 125.9 57.5 129.5Z" fill="#44D3F3"/>
<path d="M202 109C202 147.252 163.5 188.5 135 219C130.725 222.728 129.153 222.5 128 222.5C126.847 222.5 125.275 222.705 121 219C90.5 188.5 54 147.663 54 109C54 67.5786 86.5786 34 128 34C169.421 34 202 67.5786 202 109Z" fill="#FB1B44"/>
<circle cx="128.5" cy="107.5" r="28.5" fill="white"/>
</g>
<defs>
<clipPath id="clip0_1434_23558">
<rect width="256" height="256" fill="white"/>
</clipPath>
</defs>
</svg>
