<svg id="svg" version="1.1" xmlns="http://www.w3.org/2000/svg" xmlns:xlink="http://www.w3.org/1999/xlink" width="400" height="400" viewBox="0, 0, 400,400"><g id="svgg"><path id="path0" d="M87.800 130.031 C 81.272 130.412,77.515 131.075,81.200 131.195 C 82.190 131.228,83.540 131.315,84.200 131.389 C 84.860 131.463,88.010 131.640,91.200 131.782 C 96.557 132.021,102.676 132.648,108.600 133.564 C 119.110 135.191,121.866 135.640,122.311 135.800 C 122.592 135.901,124.032 135.701,125.511 135.356 C 126.990 135.010,129.010 134.587,130.000 134.414 C 130.990 134.241,133.150 133.823,134.800 133.484 C 136.450 133.145,138.469 132.756,139.286 132.618 C 143.374 131.932,141.008 131.376,132.400 131.001 C 129.430 130.871,124.660 130.596,121.800 130.388 C 113.832 129.811,94.949 129.613,87.800 130.031 M180.600 141.569 C 179.720 141.751,176.345 142.310,173.100 142.810 C 168.148 143.573,165.413 144.400,167.840 144.400 C 169.439 144.400,184.548 149.203,188.600 151.000 C 193.728 153.273,197.319 155.070,201.800 157.605 C 213.136 164.018,215.784 165.177,214.046 162.967 C 212.880 161.486,212.854 157.946,214.000 156.800 C 214.963 155.837,215.005 154.746,214.176 152.312 C 213.371 149.949,212.949 149.619,208.400 147.801 C 196.131 142.897,185.590 140.534,180.600 141.569 M214.624 149.387 C 215.051 149.710,215.530 149.980,215.688 149.987 C 215.847 149.994,216.927 150.430,218.088 150.955 C 219.250 151.481,221.010 152.276,222.000 152.722 C 222.990 153.168,226.140 154.649,229.000 156.013 C 231.860 157.377,235.280 158.990,236.600 159.597 C 237.920 160.205,241.160 161.728,243.800 162.983 C 246.440 164.238,249.500 165.688,250.600 166.205 C 251.700 166.722,255.460 168.508,258.956 170.173 C 262.452 171.838,265.371 173.200,265.442 173.200 C 265.513 173.200,267.369 174.084,269.565 175.164 C 274.095 177.391,272.563 177.155,295.800 179.207 C 300.988 179.666,304.087 179.957,317.000 181.200 C 328.616 182.318,333.315 182.802,336.729 183.231 C 344.882 184.257,343.836 183.538,333.200 180.804 C 325.639 178.861,322.695 178.079,316.400 176.346 C 314.750 175.892,312.770 175.373,312.000 175.192 C 311.230 175.011,309.205 174.489,307.500 174.032 C 305.795 173.574,303.095 172.854,301.500 172.431 C 299.905 172.009,297.610 171.392,296.400 171.061 C 295.190 170.731,292.760 170.074,291.000 169.602 C 289.240 169.130,283.930 167.687,279.200 166.394 C 274.470 165.102,268.260 163.406,265.400 162.626 C 262.540 161.846,259.030 160.866,257.600 160.448 C 256.170 160.031,252.840 159.109,250.200 158.400 C 247.560 157.691,244.230 156.775,242.800 156.364 C 239.929 155.539,234.986 154.173,225.600 151.608 C 222.190 150.676,218.512 149.663,217.427 149.357 C 214.648 148.572,213.561 148.584,214.624 149.387 M295.716 202.844 C 295.324 203.236,293.002 203.835,290.600 204.162 C 288.414 204.461,284.719 207.727,283.530 210.413 C 283.253 211.039,282.687 211.641,282.273 211.749 C 281.229 212.022,281.433 212.257,286.720 216.881 C 294.848 223.989,301.861 230.780,308.700 238.166 C 310.295 239.889,311.600 241.138,311.600 240.942 C 311.600 240.502,309.603 237.495,309.076 237.143 C 308.625 236.842,310.179 235.923,310.905 236.062 C 311.177 236.114,311.827 236.012,312.350 235.836 C 312.901 235.649,313.405 235.677,313.550 235.901 C 314.197 236.903,316.302 237.600,316.815 236.982 C 317.215 236.500,317.184 236.245,316.655 235.661 C 315.791 234.707,315.821 234.610,317.000 234.542 C 317.735 234.500,318.000 234.685,318.000 235.242 C 318.000 236.245,320.576 236.329,321.127 235.344 C 321.329 234.983,321.698 234.814,321.947 234.967 C 322.542 235.335,322.531 236.400,321.933 236.400 C 321.677 236.400,321.553 236.486,321.658 236.591 C 321.763 236.697,322.890 236.487,324.160 236.126 C 325.898 235.631,326.544 235.585,326.762 235.939 C 327.080 236.452,329.460 236.150,329.832 235.548 C 329.950 235.357,330.487 235.200,331.024 235.200 C 331.625 235.200,332.000 234.969,332.000 234.600 C 332.000 233.383,333.071 234.064,335.900 237.080 C 338.795 240.166,340.020 240.418,337.436 237.396 C 336.685 236.518,334.767 234.270,333.174 232.400 C 321.940 219.219,298.129 200.431,295.716 202.844 M340.013 241.071 C 340.035 241.634,341.200 242.985,341.200 242.448 C 341.200 242.170,340.930 241.673,340.600 241.343 C 340.270 241.013,340.006 240.891,340.013 241.071 M100.100 259.901 L 0.000 260.002 0.000 330.001 L 0.000 400.000 200.000 400.000 L 400.000 400.000 400.000 330.000 L 400.000 260.000 377.100 259.961 C 303.957 259.838,187.484 259.813,100.100 259.901 M296.200 279.265 C 303.706 280.088,305.950 281.788,308.181 288.341 C 308.979 290.683,310.006 293.545,310.462 294.700 L 311.293 296.800 313.571 296.800 C 316.779 296.800,319.166 299.455,319.191 303.051 C 319.205 304.978,318.798 305.073,309.400 305.353 C 291.175 305.896,287.251 307.282,284.590 314.119 C 283.974 315.703,282.892 318.277,282.185 319.839 L 280.901 322.678 278.363 323.239 C 275.206 323.937,273.630 324.969,272.600 327.012 C 271.493 329.209,271.557 329.187,266.300 329.194 C 262.847 329.198,261.582 329.333,261.532 329.700 C 261.441 330.364,261.326 331.599,261.257 332.669 C 261.225 333.147,260.734 334.092,260.164 334.769 L 259.129 336.000 254.864 335.987 C 247.915 335.967,248.000 336.135,248.000 322.325 C 248.000 311.634,248.214 309.613,249.613 307.105 C 250.296 305.880,250.042 305.644,247.903 305.521 C 242.559 305.213,245.208 296.807,250.651 296.802 C 253.210 296.800,253.041 297.042,255.588 289.692 C 257.919 282.963,258.415 282.279,262.200 280.568 C 266.491 278.628,284.211 277.949,296.200 279.265 M270.242 284.246 C 265.294 285.017,263.877 285.452,262.911 286.496 C 262.137 287.332,258.148 299.882,258.534 300.267 C 258.705 300.439,305.669 300.475,305.813 300.304 C 305.861 300.247,305.033 297.230,303.973 293.601 C 301.480 285.058,301.804 285.323,292.200 284.001 C 288.125 283.440,274.429 283.593,270.242 284.246 M98.100 298.792 L 99.200 300.013 99.275 306.706 C 99.316 310.388,99.361 314.030,99.375 314.800 L 99.400 316.200 118.400 316.401 C 140.155 316.630,140.169 316.633,143.793 320.256 C 147.035 323.498,147.000 323.175,147.000 349.600 L 147.000 372.600 135.402 372.465 C 129.023 372.391,123.703 372.167,123.580 371.968 C 123.458 371.770,123.377 365.205,123.402 357.380 C 123.427 349.555,123.300 343.062,123.120 342.951 C 122.725 342.707,99.991 342.676,99.748 342.919 C 99.654 343.013,99.537 346.549,99.489 350.778 L 99.400 358.466 98.094 359.633 C 95.196 362.222,94.968 362.103,82.000 351.234 C 58.326 331.392,56.832 330.006,56.813 327.874 C 56.790 325.213,57.595 324.476,73.600 312.495 C 74.590 311.754,75.670 310.935,76.000 310.674 C 78.354 308.816,92.759 298.042,93.400 297.661 C 94.684 296.896,96.864 297.421,98.100 298.792 M258.690 309.784 C 253.502 312.490,255.200 320.000,261.000 320.000 C 264.131 320.000,266.400 317.731,266.400 314.600 C 266.400 310.525,262.245 307.929,258.690 309.784 M330.335 311.193 C 334.773 311.956,337.888 313.877,338.999 316.535 C 339.331 317.331,340.322 320.082,341.199 322.648 C 343.141 328.322,343.201 328.400,345.618 328.400 C 348.137 328.400,349.666 329.661,350.789 332.664 C 351.959 335.789,350.790 337.997,348.225 337.507 C 346.498 337.177,346.364 337.659,347.365 340.617 C 348.418 343.731,348.293 362.846,347.203 365.234 C 345.077 369.896,334.927 368.239,334.416 363.147 L 334.200 361.000 314.000 361.140 L 293.800 361.279 293.592 363.480 C 293.126 368.410,283.796 370.292,280.906 366.038 C 279.614 364.138,279.644 344.602,280.945 340.730 C 282.076 337.362,282.118 337.516,280.016 337.397 C 274.559 337.089,277.357 328.400,282.913 328.400 C 285.206 328.400,285.202 328.406,287.587 321.596 C 290.690 312.739,292.507 311.511,303.800 310.641 C 307.668 310.343,327.829 310.762,330.335 311.193 M300.621 316.262 C 295.489 317.191,294.624 317.804,293.657 321.200 C 293.438 321.970,292.693 324.448,292.002 326.708 C 291.310 328.967,290.802 331.089,290.872 331.423 C 290.986 331.964,310.728 332.208,337.650 332.002 C 337.900 332.000,334.318 319.238,333.858 318.494 C 332.275 315.932,310.521 314.471,300.621 316.262 M290.800 341.501 C 287.448 343.175,286.728 347.706,289.411 350.236 C 293.069 353.686,298.400 351.281,298.400 346.182 C 298.400 342.087,294.471 339.667,290.800 341.501 M332.800 341.501 C 330.813 342.493,329.378 345.292,329.774 347.402 C 330.551 351.543,335.981 353.182,338.982 350.182 C 343.272 345.891,338.218 338.794,332.800 341.501 " stroke="none" fill="#dfdedd" fill-rule="evenodd"></path><path id="path1" d="M164.200 121.281 C 151.007 121.524,142.243 121.885,130.496 122.670 C 124.409 123.076,128.363 123.600,137.524 123.601 C 179.531 123.606,230.556 133.114,274.600 149.144 C 288.483 154.197,287.413 153.774,301.789 159.890 C 333.317 173.301,375.878 197.935,397.137 215.077 C 398.312 216.025,399.437 216.800,399.637 216.800 C 400.123 216.800,400.122 147.723,399.635 147.422 C 397.971 146.394,363.821 138.492,348.400 135.567 C 288.551 124.215,234.081 119.990,164.200 121.281 M33.800 136.179 C 27.080 136.827,19.992 138.313,1.700 142.908 L 0.000 143.335 0.000 201.467 L 0.000 259.600 113.600 259.600 C 190.418 259.600,227.200 259.468,227.200 259.193 C 227.200 256.946,214.893 235.719,208.138 226.313 C 171.209 174.896,124.282 144.361,71.200 137.209 C 69.330 136.957,66.630 136.572,65.200 136.354 C 60.825 135.685,40.114 135.570,33.800 136.179 " stroke="none" fill="#52be23" fill-rule="evenodd"></path><path id="path2" d="M114.257 123.876 C 114.167 123.967,110.517 124.210,106.146 124.417 C 82.217 125.549,57.689 129.206,36.000 134.874 C 30.214 136.386,30.124 136.500,35.020 136.114 C 41.147 135.631,60.902 135.785,65.000 136.348 C 66.980 136.620,69.950 137.030,71.600 137.258 C 92.764 140.190,121.556 150.241,139.472 160.951 C 173.892 181.528,206.275 217.029,225.352 255.100 L 227.607 259.600 275.371 259.600 C 301.641 259.600,323.415 259.492,323.757 259.361 C 324.272 259.163,324.175 258.870,323.192 257.661 C 322.539 256.857,320.466 254.130,318.585 251.600 C 308.991 238.695,298.514 227.562,285.569 216.518 C 279.595 211.421,278.546 210.135,279.490 209.062 C 279.906 208.588,280.956 207.136,281.823 205.835 C 283.660 203.081,285.822 201.565,289.627 200.364 L 292.319 199.514 295.953 201.333 C 313.454 210.095,332.573 228.312,349.773 252.615 C 352.102 255.907,354.194 258.825,354.420 259.100 C 354.740 259.489,359.835 259.600,377.416 259.600 L 400.000 259.600 400.000 238.200 C 400.000 225.640,399.850 216.800,399.637 216.800 C 399.437 216.800,398.312 216.025,397.137 215.077 C 375.878 197.935,333.317 173.301,301.789 159.890 C 287.419 153.777,288.386 154.159,274.789 149.217 C 268.084 146.779,261.225 144.522,255.800 142.966 C 254.700 142.651,252.540 142.022,251.000 141.568 C 249.460 141.114,247.660 140.584,247.000 140.391 C 246.340 140.198,244.540 139.831,243.000 139.575 C 241.460 139.319,240.029 138.950,239.820 138.755 C 239.173 138.151,236.000 138.322,236.000 138.960 C 236.000 139.373,235.483 139.505,234.039 139.460 C 232.960 139.427,232.156 139.272,232.252 139.116 C 232.563 138.611,231.474 137.273,230.924 137.485 C 230.630 137.597,230.088 137.444,229.718 137.145 C 229.349 136.845,229.171 136.809,229.324 137.064 C 229.641 137.593,227.451 139.600,226.556 139.600 C 226.236 139.600,225.811 140.005,225.612 140.500 C 225.303 141.270,225.247 141.291,225.225 140.644 C 225.211 140.228,225.492 139.675,225.849 139.414 C 226.439 138.982,226.442 138.832,225.881 137.769 L 225.264 136.600 224.832 137.726 C 224.594 138.345,224.400 139.020,224.400 139.226 C 224.400 139.432,224.130 139.600,223.800 139.600 C 223.470 139.600,223.200 139.870,223.200 140.200 C 223.200 140.530,223.050 140.800,222.867 140.800 C 222.198 140.800,222.058 140.296,222.521 139.555 C 222.861 139.011,222.874 138.607,222.569 138.122 C 221.911 137.080,221.275 137.058,221.131 138.073 C 221.058 138.582,220.671 139.055,220.261 139.133 C 219.662 139.247,219.576 139.107,219.803 138.389 C 220.009 137.742,219.939 137.553,219.542 137.684 C 218.850 137.912,218.597 139.557,219.166 140.126 C 219.844 140.804,219.680 141.200,218.720 141.200 C 218.038 141.200,217.948 141.092,218.317 140.723 C 219.019 140.021,217.370 138.400,215.954 138.400 C 215.345 138.400,214.737 138.221,214.602 138.003 C 214.225 137.393,211.123 137.817,210.586 138.551 C 210.325 138.908,209.727 139.200,209.256 139.200 C 208.366 139.200,208.106 138.629,208.800 138.200 C 209.570 137.724,209.190 137.000,208.170 137.000 C 207.246 137.000,207.164 137.120,207.373 138.165 C 207.595 139.274,207.571 139.297,206.871 138.665 C 206.467 138.299,205.836 138.000,205.469 138.000 C 205.101 138.000,204.800 137.749,204.800 137.443 C 204.800 137.136,204.515 136.776,204.167 136.643 C 203.247 136.290,203.200 136.318,203.200 137.232 C 203.200 137.948,203.033 138.027,202.000 137.800 C 200.858 137.549,200.230 138.143,201.271 138.490 C 201.530 138.577,201.615 138.853,201.459 139.104 C 201.199 139.525,199.359 138.588,197.700 137.190 C 197.358 136.901,197.200 136.900,197.200 137.184 C 197.200 138.186,194.717 137.516,194.292 136.400 C 194.115 135.937,194.056 135.967,194.032 136.532 C 194.006 137.128,193.785 137.216,192.835 137.008 C 191.775 136.775,191.623 136.881,191.154 138.176 C 190.789 139.187,190.401 139.596,189.820 139.587 C 189.048 139.574,189.059 139.523,190.000 138.729 C 190.655 138.175,190.828 137.824,190.500 137.709 C 190.225 137.612,190.000 137.273,190.000 136.954 C 190.000 136.128,189.011 135.859,187.988 136.406 C 187.371 136.736,186.989 136.749,186.689 136.449 C 186.389 136.149,186.549 135.911,187.232 135.638 C 188.180 135.259,188.175 135.250,187.000 135.240 C 186.340 135.233,185.350 135.486,184.800 135.800 C 183.409 136.595,183.200 136.543,183.200 135.400 C 183.200 134.395,182.291 134.006,181.800 134.800 C 181.664 135.020,180.948 135.200,180.210 135.200 C 179.471 135.200,178.791 135.425,178.698 135.700 C 178.566 136.093,178.392 136.086,177.884 135.667 C 177.518 135.365,176.883 135.247,176.419 135.394 C 175.816 135.585,175.600 135.477,175.600 134.984 C 175.600 134.465,175.369 134.371,174.582 134.569 C 173.278 134.896,172.607 134.515,173.208 133.790 C 173.530 133.403,173.535 133.026,173.227 132.450 C 172.912 131.862,172.925 131.570,173.275 131.353 C 173.538 131.191,173.823 131.270,173.910 131.529 C 174.118 132.154,174.828 132.105,175.759 131.400 C 176.393 130.920,176.433 130.722,176.002 130.202 C 175.535 129.640,175.415 129.644,174.758 130.238 C 174.357 130.601,173.753 130.791,173.416 130.661 C 172.489 130.306,171.343 132.208,172.003 133.004 C 172.436 133.525,172.245 133.591,170.551 133.502 C 168.660 133.403,168.604 133.432,168.722 134.449 C 168.856 135.601,167.819 136.347,167.443 135.369 C 167.321 135.049,166.721 134.582,166.110 134.331 C 165.236 133.971,165.149 133.839,165.700 133.708 C 166.085 133.616,166.400 133.195,166.400 132.771 C 166.400 132.177,166.682 132.000,167.626 132.000 C 168.986 132.000,170.400 131.381,170.400 130.786 C 170.400 130.574,169.986 130.400,169.480 130.400 C 168.974 130.400,168.363 130.203,168.123 129.963 C 167.613 129.453,165.460 130.649,165.824 131.239 C 165.944 131.433,165.762 131.484,165.421 131.353 C 165.021 131.199,164.800 131.340,164.800 131.747 C 164.800 132.409,162.885 133.600,161.820 133.600 C 160.213 133.600,161.500 132.019,163.133 131.987 C 164.426 131.961,166.470 129.600,165.200 129.600 C 164.980 129.600,164.800 129.784,164.800 130.010 C 164.800 130.846,162.791 131.248,162.094 130.551 C 161.494 129.951,161.373 129.983,160.522 130.973 C 159.442 132.228,159.207 131.363,160.141 129.573 C 160.645 128.607,160.598 128.496,159.344 127.673 C 157.635 126.553,157.413 126.574,157.338 127.862 C 157.301 128.503,157.399 128.726,157.585 128.424 C 157.829 128.030,158.070 128.037,158.746 128.459 C 159.794 129.113,159.845 129.600,158.868 129.600 C 158.182 129.600,157.588 130.421,157.039 132.125 C 156.911 132.524,156.624 132.738,156.402 132.601 C 156.131 132.434,156.130 132.104,156.399 131.602 C 156.950 130.572,156.908 130.402,156.100 130.387 C 155.433 130.375,155.433 130.349,156.100 129.843 C 157.104 129.081,156.969 128.800,155.600 128.800 C 154.940 128.800,154.400 128.980,154.400 129.200 C 154.400 129.420,154.040 129.600,153.600 129.600 C 153.091 129.600,152.800 129.333,152.800 128.868 C 152.800 128.037,151.103 126.965,150.438 127.376 C 149.814 127.762,149.897 128.616,150.617 129.214 C 151.045 129.569,151.106 129.854,150.817 130.143 C 150.208 130.752,149.725 130.065,149.413 128.141 C 149.245 127.108,149.305 126.382,149.572 126.217 C 149.807 126.072,150.000 125.782,150.000 125.573 C 150.000 125.364,149.640 125.418,149.200 125.693 C 148.760 125.968,148.400 126.419,148.400 126.696 C 148.400 126.973,148.201 127.200,147.957 127.200 C 147.714 127.200,147.607 126.959,147.720 126.664 C 148.031 125.854,147.422 125.140,146.668 125.429 C 146.301 125.570,146.000 125.846,146.000 126.043 C 146.000 126.239,145.798 126.400,145.551 126.400 C 145.222 126.400,145.224 126.254,145.557 125.852 C 146.459 124.765,144.761 123.353,143.287 123.964 C 142.612 124.244,141.686 124.354,141.229 124.209 C 140.109 123.854,138.891 124.287,138.672 125.119 C 138.517 125.710,138.487 125.702,138.446 125.057 C 138.410 124.479,138.187 124.367,137.446 124.553 C 136.833 124.707,136.308 124.571,135.979 124.174 C 135.498 123.595,114.822 123.312,114.257 123.876 M160.400 125.700 C 160.400 125.975,160.850 126.226,161.400 126.258 C 162.016 126.293,162.400 126.101,162.400 125.758 C 162.400 125.429,161.988 125.200,161.400 125.200 C 160.850 125.200,160.400 125.425,160.400 125.700 M153.316 126.799 C 153.406 128.087,154.155 128.416,154.564 127.349 C 154.815 126.695,154.191 125.600,153.567 125.600 C 153.383 125.600,153.270 126.140,153.316 126.799 M170.400 127.490 C 170.400 127.686,170.655 128.196,170.967 128.623 C 171.637 129.539,172.362 129.063,171.757 128.105 C 171.285 127.356,170.400 126.955,170.400 127.490 M163.223 128.444 C 163.447 128.861,163.865 129.073,164.206 128.942 C 165.101 128.599,164.920 128.116,163.817 127.905 C 162.970 127.744,162.888 127.818,163.223 128.444 M177.196 128.204 C 176.785 128.700,176.845 128.800,177.551 128.800 C 178.018 128.800,178.400 128.631,178.400 128.424 C 178.400 127.731,177.696 127.602,177.196 128.204 M116.800 129.430 C 122.630 129.775,130.998 130.270,135.395 130.529 C 142.476 130.946,143.405 131.080,143.524 131.701 C 143.690 132.564,144.537 132.335,132.749 134.612 L 122.898 136.514 113.549 135.063 C 98.619 132.746,90.949 132.005,81.871 132.002 C 77.604 132.000,77.154 131.932,77.275 131.308 C 77.679 129.206,97.303 128.274,116.800 129.430 M154.000 132.200 C 154.000 132.530,153.820 132.800,153.600 132.800 C 153.380 132.800,153.200 132.530,153.200 132.200 C 153.200 131.870,153.380 131.600,153.600 131.600 C 153.820 131.600,154.000 131.870,154.000 132.200 M178.820 133.271 C 177.768 134.400,178.014 134.590,179.773 134.009 C 181.306 133.503,181.580 133.032,180.567 132.643 C 179.695 132.308,179.728 132.296,178.820 133.271 M189.867 135.067 C 189.360 135.574,189.603 136.000,190.400 136.000 C 190.844 136.000,191.200 135.733,191.200 135.400 C 191.200 134.791,190.354 134.579,189.867 135.067 M172.000 135.800 C 172.408 136.291,172.380 136.400,171.849 136.400 C 171.492 136.400,171.200 136.130,171.200 135.800 C 171.200 135.470,171.268 135.200,171.351 135.200 C 171.434 135.200,171.726 135.470,172.000 135.800 M195.290 135.669 C 195.494 136.283,197.194 136.398,197.212 135.800 C 197.219 135.580,196.750 135.341,196.169 135.269 C 195.431 135.178,195.166 135.298,195.290 135.669 M198.400 136.400 C 198.400 136.620,198.670 136.800,199.000 136.800 C 199.330 136.800,199.600 136.620,199.600 136.400 C 199.600 136.180,199.330 136.000,199.000 136.000 C 198.670 136.000,198.400 136.180,198.400 136.400 M215.039 136.694 C 214.610 137.123,214.787 137.600,215.376 137.600 C 215.693 137.600,216.052 137.439,216.174 137.242 C 216.429 136.830,215.400 136.334,215.039 136.694 M234.505 137.876 C 234.877 138.248,235.315 138.418,235.479 138.254 C 235.643 138.091,235.512 137.789,235.188 137.584 C 234.215 136.969,233.782 137.153,234.505 137.876 M203.944 140.835 C 203.237 141.272,202.940 140.900,203.527 140.313 C 203.787 140.053,204.027 139.471,204.060 139.020 C 204.097 138.518,204.187 138.648,204.292 139.357 C 204.394 140.042,204.252 140.644,203.944 140.835 M215.484 139.851 C 215.653 140.358,214.514 140.918,213.981 140.588 C 213.791 140.471,213.740 140.101,213.868 139.768 C 214.127 139.092,215.250 139.149,215.484 139.851 M231.024 139.813 C 230.034 140.561,229.600 140.557,229.600 139.800 C 229.600 139.409,229.983 139.204,230.700 139.213 C 231.754 139.225,231.767 139.250,231.024 139.813 M189.200 141.138 C 192.032 141.796,194.084 142.313,195.600 142.751 C 196.370 142.973,197.630 143.330,198.400 143.544 C 201.776 144.483,205.195 145.743,209.296 147.560 C 211.406 148.495,212.400 148.622,212.400 147.956 C 212.400 147.239,217.132 148.386,234.000 153.193 C 235.182 153.530,238.292 154.394,248.400 157.196 C 249.170 157.409,251.150 157.951,252.800 158.400 C 254.450 158.849,256.430 159.389,257.200 159.600 C 257.970 159.811,259.950 160.351,261.600 160.800 C 263.250 161.249,265.230 161.795,266.000 162.013 C 266.770 162.231,270.640 163.286,274.600 164.358 C 278.560 165.430,287.873 167.956,295.296 169.972 C 302.719 171.988,310.099 173.988,311.696 174.416 C 313.293 174.844,316.580 175.736,319.000 176.398 C 321.420 177.060,325.470 178.160,328.000 178.842 C 330.530 179.524,333.860 180.423,335.400 180.840 C 336.940 181.257,339.370 181.874,340.800 182.210 C 347.007 183.670,348.336 184.796,344.400 185.258 C 339.191 185.870,285.510 195.530,285.113 195.927 C 284.942 196.098,283.840 197.850,282.665 199.819 C 281.490 201.789,279.629 204.840,278.529 206.600 C 271.962 217.108,264.175 229.721,263.172 231.473 C 262.772 232.173,261.832 233.703,261.085 234.873 C 256.586 241.915,255.604 243.511,255.158 244.510 C 254.470 246.052,253.977 245.719,252.876 242.971 C 252.353 241.667,251.492 239.650,250.963 238.488 C 250.433 237.327,250.000 236.296,250.000 236.198 C 250.000 236.100,249.460 234.841,248.800 233.400 C 248.140 231.959,247.600 230.700,247.600 230.602 C 247.600 230.504,247.169 229.473,246.642 228.312 C 246.115 227.150,242.956 219.810,239.621 212.000 C 236.286 204.190,233.207 197.037,232.779 196.104 C 232.350 195.172,232.000 194.322,232.000 194.216 C 232.000 194.110,231.568 193.073,231.039 191.912 C 230.510 190.750,228.242 185.480,225.998 180.200 C 220.833 168.050,220.171 166.800,218.897 166.800 C 217.631 166.800,210.051 162.969,202.800 158.664 C 193.905 153.383,171.599 144.800,166.768 144.800 C 164.056 144.800,165.958 142.907,168.921 142.657 C 170.285 142.542,172.480 142.270,173.800 142.051 C 175.120 141.832,177.409 141.498,178.886 141.308 C 180.363 141.117,181.711 140.822,181.882 140.652 C 182.262 140.271,186.754 140.569,189.200 141.138 M217.600 163.240 C 217.600 163.969,218.866 166.400,219.246 166.400 C 219.752 166.400,219.698 166.161,218.792 164.384 C 217.979 162.790,217.600 162.427,217.600 163.240 M268.800 279.780 C 259.983 280.770,258.816 281.715,255.941 290.200 C 253.508 297.380,253.634 297.200,251.040 297.200 C 248.482 297.200,247.373 297.931,246.366 300.280 C 244.854 303.806,245.453 305.200,248.480 305.200 C 250.708 305.200,250.739 305.291,249.610 308.572 C 248.900 310.635,248.816 312.007,248.787 322.020 C 248.747 336.062,248.543 335.600,254.804 335.600 C 259.561 335.600,260.800 334.656,260.800 331.031 C 260.800 329.184,260.920 328.795,261.500 328.771 C 261.885 328.755,264.160 328.710,266.555 328.671 C 270.453 328.607,270.956 328.516,271.354 327.800 C 273.193 324.489,274.111 323.795,277.989 322.782 L 280.577 322.105 282.915 316.553 C 287.013 306.818,288.909 305.842,305.772 304.784 C 309.717 304.537,314.037 304.390,315.372 304.457 C 319.105 304.644,319.346 304.288,317.971 300.613 C 316.996 298.009,316.246 297.494,313.009 297.210 L 310.618 297.000 309.503 293.800 C 308.889 292.040,307.913 289.195,307.333 287.477 C 305.450 281.899,303.395 280.585,295.266 279.758 C 289.067 279.127,274.502 279.139,268.800 279.780 M295.000 283.827 C 299.445 284.543,301.374 285.283,302.240 286.605 C 303.036 287.820,306.493 299.981,306.234 300.656 C 305.938 301.427,258.187 301.471,257.898 300.700 C 257.795 300.425,258.048 299.120,258.460 297.800 C 258.872 296.480,259.385 294.770,259.601 294.000 C 262.012 285.399,262.268 285.087,267.800 284.004 C 273.761 282.836,288.263 282.742,295.000 283.827 M90.331 300.523 C 88.499 301.911,84.390 305.024,81.200 307.440 C 56.969 325.795,58.005 324.907,58.002 327.331 C 57.999 329.496,56.780 328.373,82.078 349.504 C 98.739 363.420,98.479 363.407,98.800 350.336 L 99.000 342.200 111.300 342.094 C 118.065 342.036,123.639 342.036,123.688 342.094 C 123.736 342.152,123.871 348.809,123.988 356.887 L 124.200 371.574 135.400 371.687 L 146.600 371.800 146.705 351.000 C 146.837 324.950,146.576 323.111,142.288 319.840 C 139.135 317.435,139.122 317.434,118.200 317.208 L 99.000 317.000 98.800 308.531 C 98.519 296.625,97.166 295.346,90.331 300.523 M263.866 309.417 C 267.810 311.729,268.247 316.654,264.742 319.314 C 259.156 323.554,251.866 316.225,256.463 310.989 C 258.799 308.329,261.155 307.829,263.866 309.417 M307.400 311.068 C 293.221 311.761,291.266 312.795,288.432 321.099 C 285.668 329.198,286.020 328.674,283.221 328.876 C 280.237 329.092,279.077 330.051,278.116 333.098 C 277.231 335.908,277.609 336.557,280.233 336.726 C 282.766 336.889,282.908 337.218,281.760 340.268 C 280.830 342.738,280.800 343.171,280.800 354.027 L 280.800 365.236 281.782 366.218 C 282.698 367.134,283.041 367.200,286.912 367.200 C 292.066 367.200,292.684 366.765,292.877 362.999 L 293.000 360.600 313.200 360.400 C 336.418 360.170,335.195 360.032,335.213 362.890 C 335.233 366.277,336.428 367.200,340.794 367.200 C 346.617 367.200,346.657 367.116,347.187 353.764 L 347.615 343.000 346.607 340.241 C 345.305 336.674,345.238 336.859,347.892 336.720 C 353.290 336.437,350.411 328.800,344.906 328.800 C 342.547 328.800,342.718 329.059,340.233 321.715 C 338.024 315.190,337.933 315.020,335.974 313.784 C 332.364 311.505,320.856 310.411,307.400 311.068 M324.923 315.216 C 331.223 316.126,333.621 316.945,334.433 318.462 C 335.003 319.528,338.026 329.741,338.291 331.500 L 338.488 332.800 314.287 332.800 C 295.290 332.800,290.046 332.692,289.903 332.300 C 289.803 332.025,290.247 330.090,290.890 328.000 C 291.533 325.910,292.431 322.984,292.886 321.498 C 294.199 317.206,295.288 316.493,302.200 315.398 C 306.156 314.772,321.026 314.653,324.923 315.216 M296.152 341.279 C 299.133 343.233,300.091 346.734,298.402 349.504 C 295.230 354.707,287.196 352.423,287.201 346.320 C 287.205 341.718,292.377 338.805,296.152 341.279 M339.011 342.110 C 343.250 345.948,340.858 352.394,335.193 352.399 C 331.423 352.402,328.186 348.449,329.187 345.065 C 330.590 340.317,335.425 338.863,339.011 342.110 " stroke="none" fill="#404044" fill-rule="evenodd"></path><path id="path3" d="M0.000 71.558 L 0.000 143.116 1.300 142.801 C 2.015 142.628,5.930 141.657,10.000 140.642 C 14.070 139.628,20.460 138.093,24.200 137.231 C 27.940 136.369,33.880 134.923,37.400 134.018 C 44.376 132.223,49.769 130.966,53.200 130.334 C 54.410 130.111,56.210 129.774,57.200 129.583 C 68.134 127.483,79.920 125.864,93.400 124.611 C 96.700 124.304,103.000 123.860,107.400 123.624 C 111.800 123.388,121.790 122.839,129.600 122.403 C 178.638 119.672,225.010 120.338,269.400 124.412 C 277.546 125.160,282.182 125.621,285.400 126.004 C 287.160 126.214,291.660 126.749,295.400 127.194 C 299.140 127.639,303.460 128.184,305.000 128.405 C 306.540 128.627,309.690 129.076,312.000 129.403 C 321.558 130.757,332.980 132.599,344.021 134.567 C 357.434 136.958,384.546 143.010,395.200 145.991 C 396.630 146.391,398.295 146.830,398.900 146.967 L 400.000 147.215 400.000 92.976 L 400.000 38.737 398.055 36.468 C 396.985 35.221,395.770 33.772,395.355 33.250 C 394.940 32.727,394.240 31.917,393.800 31.450 C 393.359 30.982,391.359 28.710,389.354 26.400 C 383.912 20.130,377.334 13.043,368.471 3.900 L 364.690 -0.000 182.345 -0.000 L 0.000 0.000 0.000 71.558 " stroke="none" fill="#0dc0fa" fill-rule="evenodd"></path><path id="path4" d="M212.400 148.320 C 212.400 148.496,212.559 148.811,212.754 149.020 C 213.107 149.399,218.800 162.943,218.800 163.405 C 218.800 163.538,219.502 165.122,220.360 166.924 C 221.984 170.336,227.243 182.303,231.205 191.600 C 232.471 194.570,234.497 199.250,235.708 202.000 C 236.918 204.750,238.666 208.800,239.591 211.000 C 240.517 213.200,241.860 216.260,242.577 217.800 C 243.294 219.340,246.202 226.037,249.040 232.682 C 252.538 240.872,254.289 244.544,254.476 244.082 C 254.628 243.707,255.499 240.880,256.413 237.800 C 257.327 234.720,258.433 231.030,258.870 229.600 C 259.308 228.170,259.813 226.460,259.992 225.800 C 260.172 225.140,260.893 222.800,261.596 220.600 C 262.298 218.400,263.384 214.890,264.008 212.800 C 264.632 210.710,265.500 207.830,265.937 206.400 C 266.374 204.970,268.080 199.390,269.728 194.000 C 271.375 188.610,273.103 182.913,273.566 181.341 C 274.652 177.659,273.242 177.896,286.600 179.148 C 289.020 179.374,296.040 180.025,302.200 180.594 C 322.918 182.508,338.179 184.002,341.317 184.424 C 344.324 184.828,346.000 184.688,346.000 184.033 C 346.000 183.861,343.615 183.601,340.700 183.455 C 337.785 183.310,333.870 183.029,332.000 182.831 C 321.716 181.744,306.146 180.246,294.200 179.194 C 291.560 178.962,287.690 178.606,285.600 178.403 C 283.510 178.199,280.180 177.915,278.200 177.771 C 274.358 177.491,274.511 177.545,265.400 173.196 C 262.540 171.830,258.850 170.083,257.200 169.312 C 253.192 167.440,248.226 165.099,243.600 162.900 C 241.510 161.906,238.360 160.419,236.600 159.595 C 234.840 158.771,231.420 157.156,229.000 156.007 C 221.933 152.650,216.078 150.000,215.726 150.000 C 215.588 150.000,214.886 149.550,214.164 149.000 C 212.780 147.944,212.400 147.798,212.400 148.320 " stroke="none" fill="#f2942e" fill-rule="evenodd"></path><path id="path5" d="M165.723 121.099 C 168.320 121.169,172.460 121.168,174.923 121.098 C 177.385 121.028,175.260 120.971,170.200 120.972 C 165.140 120.972,163.125 121.029,165.723 121.099 M181.111 121.093 C 182.051 121.178,183.491 121.177,184.311 121.091 C 185.130 121.005,184.360 120.936,182.600 120.937 C 180.840 120.939,180.170 121.009,181.111 121.093 M196.324 121.099 C 199.473 121.167,204.513 121.167,207.524 121.099 C 210.536 121.031,207.960 120.976,201.800 120.976 C 195.640 120.976,193.176 121.032,196.324 121.099 M151.511 121.493 C 152.451 121.578,153.891 121.577,154.711 121.491 C 155.530 121.405,154.760 121.336,153.000 121.337 C 151.240 121.339,150.570 121.409,151.511 121.493 M141.091 121.889 C 141.801 121.977,143.061 121.979,143.891 121.892 C 144.721 121.805,144.140 121.733,142.600 121.731 C 141.060 121.729,140.381 121.800,141.091 121.889 M125.400 122.605 C 121.000 122.877,113.350 123.311,108.400 123.569 C 100.432 123.986,90.474 124.776,85.200 125.411 C 71.814 127.021,64.321 128.195,53.200 130.422 C 43.164 132.432,26.414 136.686,28.227 136.764 C 28.682 136.784,29.942 136.542,31.027 136.226 C 42.535 132.876,61.084 129.118,75.800 127.155 C 87.754 125.561,92.966 125.081,106.200 124.353 C 110.600 124.111,114.830 123.874,115.600 123.825 C 116.370 123.777,119.486 123.706,122.524 123.668 C 126.088 123.624,127.960 123.458,127.800 123.200 C 127.645 122.950,128.573 122.782,130.276 122.753 C 131.774 122.727,133.540 122.568,134.200 122.400 C 135.837 121.984,135.225 121.998,125.400 122.605 M135.997 124.196 C 136.310 124.573,136.842 124.704,137.446 124.553 C 138.189 124.366,138.407 124.477,138.432 125.057 C 138.456 125.624,138.517 125.658,138.692 125.200 C 139.059 124.236,139.706 123.978,141.200 124.200 C 141.970 124.315,142.870 124.229,143.200 124.010 C 143.618 123.733,142.541 123.610,139.651 123.606 C 136.020 123.601,135.564 123.674,135.997 124.196 M145.366 124.473 C 145.817 125.116,145.862 125.484,145.540 125.873 C 145.222 126.256,145.225 126.400,145.551 126.400 C 145.798 126.400,146.000 126.239,146.000 126.043 C 146.000 125.846,146.301 125.570,146.668 125.429 C 147.422 125.140,148.031 125.854,147.720 126.664 C 147.607 126.959,147.714 127.200,147.957 127.200 C 148.201 127.200,148.400 126.973,148.400 126.696 C 148.400 126.419,148.760 125.968,149.200 125.693 C 149.640 125.418,150.000 125.364,150.000 125.573 C 150.000 125.782,149.807 126.072,149.572 126.217 C 149.305 126.382,149.245 127.108,149.413 128.141 C 149.725 130.065,150.208 130.752,150.817 130.143 C 151.106 129.854,151.045 129.569,150.617 129.214 C 149.897 128.616,149.814 127.762,150.438 127.376 C 151.103 126.965,152.800 128.037,152.800 128.868 C 152.800 129.333,153.091 129.600,153.600 129.600 C 154.040 129.600,154.400 129.420,154.400 129.200 C 154.400 128.980,154.940 128.800,155.600 128.800 C 156.969 128.800,157.104 129.081,156.100 129.843 C 155.433 130.349,155.433 130.375,156.100 130.387 C 156.908 130.402,156.950 130.572,156.399 131.602 C 156.130 132.104,156.131 132.434,156.402 132.601 C 156.624 132.738,156.911 132.524,157.039 132.125 C 157.588 130.421,158.182 129.600,158.868 129.600 C 159.845 129.600,159.794 129.113,158.746 128.459 C 158.070 128.037,157.829 128.030,157.585 128.424 C 157.399 128.726,157.301 128.503,157.338 127.862 C 157.413 126.574,157.635 126.553,159.344 127.673 C 160.598 128.496,160.645 128.607,160.141 129.573 C 159.207 131.363,159.442 132.228,160.522 130.973 C 161.373 129.983,161.494 129.951,162.094 130.551 C 162.791 131.248,164.800 130.846,164.800 130.010 C 164.800 129.784,164.980 129.600,165.200 129.600 C 166.470 129.600,164.426 131.961,163.133 131.987 C 161.500 132.019,160.213 133.600,161.820 133.600 C 162.885 133.600,164.800 132.409,164.800 131.747 C 164.800 131.340,165.021 131.199,165.421 131.353 C 165.762 131.484,165.944 131.433,165.824 131.239 C 165.460 130.649,167.613 129.453,168.123 129.963 C 168.363 130.203,168.974 130.400,169.480 130.400 C 169.986 130.400,170.400 130.574,170.400 130.786 C 170.400 131.381,168.986 132.000,167.626 132.000 C 166.682 132.000,166.400 132.177,166.400 132.771 C 166.400 133.195,166.085 133.616,165.700 133.708 C 165.149 133.839,165.236 133.971,166.110 134.331 C 166.721 134.582,167.321 135.049,167.443 135.369 C 167.819 136.347,168.856 135.601,168.722 134.449 C 168.604 133.432,168.660 133.403,170.551 133.502 C 172.245 133.591,172.436 133.525,172.003 133.004 C 171.343 132.208,172.489 130.306,173.416 130.661 C 173.753 130.791,174.357 130.601,174.758 130.238 C 175.415 129.644,175.535 129.640,176.002 130.202 C 176.433 130.722,176.393 130.920,175.759 131.400 C 174.828 132.105,174.118 132.154,173.910 131.529 C 173.823 131.270,173.538 131.191,173.275 131.353 C 172.925 131.570,172.912 131.862,173.227 132.450 C 173.535 133.026,173.530 133.403,173.208 133.790 C 172.607 134.515,173.278 134.896,174.582 134.569 C 175.369 134.371,175.600 134.465,175.600 134.984 C 175.600 135.477,175.816 135.585,176.419 135.394 C 176.883 135.247,177.518 135.365,177.884 135.667 C 178.392 136.086,178.566 136.093,178.698 135.700 C 178.791 135.425,179.471 135.200,180.210 135.200 C 180.948 135.200,181.664 135.020,181.800 134.800 C 182.291 134.006,183.200 134.395,183.200 135.400 C 183.200 136.543,183.409 136.595,184.800 135.800 C 185.350 135.486,186.340 135.233,187.000 135.240 C 188.175 135.250,188.180 135.259,187.232 135.638 C 186.549 135.911,186.389 136.149,186.689 136.449 C 186.989 136.749,187.371 136.736,187.988 136.406 C 189.011 135.859,190.000 136.128,190.000 136.954 C 190.000 137.273,190.225 137.612,190.500 137.709 C 190.828 137.824,190.655 138.175,190.000 138.729 C 189.059 139.523,189.048 139.574,189.820 139.587 C 190.401 139.596,190.789 139.187,191.154 138.176 C 191.623 136.881,191.775 136.775,192.835 137.008 C 193.785 137.216,194.006 137.128,194.032 136.532 C 194.056 135.967,194.115 135.937,194.292 136.400 C 194.717 137.516,197.200 138.186,197.200 137.184 C 197.200 136.900,197.358 136.901,197.700 137.190 C 199.359 138.588,201.199 139.525,201.459 139.104 C 201.615 138.853,201.530 138.577,201.271 138.490 C 200.230 138.143,200.858 137.549,202.000 137.800 C 203.048 138.030,203.200 137.953,203.200 137.189 C 203.200 136.556,203.375 136.381,203.833 136.557 C 204.181 136.691,204.541 136.800,204.633 136.800 C 204.725 136.800,204.800 137.070,204.800 137.400 C 204.800 137.730,205.101 138.000,205.469 138.000 C 205.836 138.000,206.467 138.299,206.871 138.665 C 207.571 139.297,207.595 139.274,207.373 138.165 C 207.164 137.120,207.246 137.000,208.170 137.000 C 209.190 137.000,209.570 137.724,208.800 138.200 C 208.106 138.629,208.366 139.200,209.256 139.200 C 209.727 139.200,210.325 138.908,210.586 138.551 C 211.123 137.817,214.225 137.393,214.602 138.003 C 214.737 138.221,215.345 138.400,215.954 138.400 C 217.370 138.400,219.019 140.021,218.317 140.723 C 217.948 141.092,218.038 141.200,218.720 141.200 C 219.680 141.200,219.844 140.804,219.166 140.126 C 218.597 139.557,218.850 137.912,219.542 137.684 C 219.939 137.553,220.009 137.742,219.803 138.389 C 219.576 139.107,219.662 139.247,220.261 139.133 C 220.671 139.055,221.058 138.582,221.131 138.073 C 221.275 137.058,221.911 137.080,222.569 138.122 C 222.874 138.607,222.861 139.011,222.521 139.555 C 222.058 140.296,222.198 140.800,222.867 140.800 C 223.050 140.800,223.200 140.530,223.200 140.200 C 223.200 139.870,223.470 139.600,223.800 139.600 C 224.130 139.600,224.400 139.432,224.400 139.226 C 224.400 139.020,224.594 138.345,224.832 137.726 L 225.264 136.600 225.881 137.769 C 226.442 138.832,226.439 138.982,225.849 139.414 C 225.492 139.675,225.211 140.228,225.225 140.644 C 225.247 141.291,225.303 141.270,225.612 140.500 C 225.811 140.005,226.236 139.600,226.556 139.600 C 227.451 139.600,229.641 137.593,229.324 137.064 C 229.171 136.809,229.349 136.845,229.718 137.145 C 230.088 137.444,230.630 137.597,230.924 137.485 C 231.474 137.273,232.563 138.611,232.252 139.116 C 232.156 139.272,232.960 139.427,234.039 139.460 C 235.483 139.505,236.000 139.373,236.000 138.960 C 236.000 138.326,239.392 138.140,239.771 138.754 C 239.892 138.948,240.847 139.231,241.895 139.383 C 242.943 139.534,244.250 139.732,244.800 139.822 C 247.031 140.191,241.737 138.633,234.400 136.762 C 207.301 129.852,184.214 126.171,155.600 124.196 C 144.102 123.402,144.607 123.389,145.366 124.473 M162.400 125.758 C 162.400 126.101,162.016 126.293,161.400 126.258 C 160.095 126.182,160.095 125.200,161.400 125.200 C 161.988 125.200,162.400 125.429,162.400 125.758 M154.358 126.149 C 154.877 126.775,154.545 128.000,153.857 127.999 C 153.606 127.999,153.362 127.459,153.316 126.799 C 153.226 125.512,153.623 125.264,154.358 126.149 M171.757 128.105 C 172.362 129.063,171.637 129.539,170.967 128.623 C 170.655 128.196,170.400 127.686,170.400 127.490 C 170.400 126.955,171.285 127.356,171.757 128.105 M164.800 128.404 C 164.800 129.098,163.590 129.129,163.223 128.444 C 162.888 127.818,162.970 127.744,163.817 127.905 C 164.358 128.009,164.800 128.233,164.800 128.404 M178.400 128.424 C 178.400 128.631,178.018 128.800,177.551 128.800 C 176.845 128.800,176.785 128.700,177.196 128.204 C 177.696 127.602,178.400 127.731,178.400 128.424 M88.600 129.292 C 80.680 129.721,77.470 130.293,77.275 131.308 C 77.154 131.932,77.604 132.000,81.871 132.002 C 90.949 132.005,98.619 132.746,113.549 135.063 L 122.898 136.514 132.749 134.612 C 144.537 132.335,143.690 132.564,143.524 131.701 C 143.405 131.080,142.476 130.946,135.395 130.529 C 130.998 130.270,122.630 129.775,116.800 129.430 C 105.329 128.750,99.162 128.719,88.600 129.292 M121.800 130.388 C 124.660 130.596,129.430 130.871,132.400 131.001 C 141.008 131.376,143.374 131.932,139.286 132.618 C 138.469 132.756,136.450 133.145,134.800 133.484 C 133.150 133.823,130.990 134.241,130.000 134.414 C 129.010 134.587,126.990 135.010,125.511 135.356 C 124.032 135.701,122.592 135.901,122.311 135.800 C 121.866 135.640,119.110 135.191,108.600 133.564 C 102.676 132.648,96.557 132.021,91.200 131.782 C 88.010 131.640,84.860 131.463,84.200 131.389 C 83.540 131.315,82.190 131.228,81.200 131.195 C 79.619 131.144,79.522 131.092,80.400 130.771 C 83.318 129.703,109.054 129.465,121.800 130.388 M153.200 132.200 C 153.200 132.530,153.380 132.800,153.600 132.800 C 153.820 132.800,154.000 132.530,154.000 132.200 C 154.000 131.870,153.820 131.600,153.600 131.600 C 153.380 131.600,153.200 131.870,153.200 132.200 M180.567 132.643 C 181.580 133.032,181.306 133.503,179.773 134.009 C 178.014 134.590,177.768 134.400,178.820 133.271 C 179.728 132.296,179.695 132.308,180.567 132.643 M191.200 135.400 C 191.200 135.733,190.844 136.000,190.400 136.000 C 189.603 136.000,189.360 135.574,189.867 135.067 C 190.354 134.579,191.200 134.791,191.200 135.400 M171.200 135.800 C 171.200 136.130,171.492 136.400,171.849 136.400 C 172.380 136.400,172.408 136.291,172.000 135.800 C 171.726 135.470,171.434 135.200,171.351 135.200 C 171.268 135.200,171.200 135.470,171.200 135.800 M197.212 135.800 C 197.194 136.398,195.494 136.283,195.290 135.669 C 195.166 135.298,195.431 135.178,196.169 135.269 C 196.750 135.341,197.219 135.580,197.212 135.800 M199.600 136.400 C 199.600 136.620,199.330 136.800,199.000 136.800 C 198.670 136.800,198.400 136.620,198.400 136.400 C 198.400 136.180,198.670 136.000,199.000 136.000 C 199.330 136.000,199.600 136.180,199.600 136.400 M216.174 137.242 C 215.895 137.694,214.800 137.713,214.800 137.267 C 214.800 136.704,215.250 136.444,215.837 136.669 C 216.144 136.787,216.296 137.045,216.174 137.242 M235.188 137.584 C 235.512 137.789,235.643 138.091,235.479 138.254 C 235.315 138.418,234.877 138.248,234.505 137.876 C 233.782 137.153,234.215 136.969,235.188 137.584 M204.060 139.020 C 204.027 139.471,203.787 140.053,203.527 140.313 C 202.940 140.900,203.237 141.272,203.944 140.835 C 204.252 140.644,204.394 140.042,204.292 139.357 C 204.187 138.648,204.097 138.518,204.060 139.020 M213.868 139.768 C 213.740 140.101,213.791 140.471,213.981 140.588 C 214.514 140.918,215.653 140.358,215.484 139.851 C 215.250 139.149,214.127 139.092,213.868 139.768 M229.600 139.800 C 229.600 140.557,230.034 140.561,231.024 139.813 C 231.767 139.250,231.754 139.225,230.700 139.213 C 229.983 139.204,229.600 139.409,229.600 139.800 M181.882 140.652 C 181.711 140.822,180.363 141.117,178.886 141.308 C 177.409 141.498,175.120 141.832,173.800 142.051 C 172.480 142.270,170.285 142.542,168.921 142.657 C 165.958 142.907,164.056 144.800,166.768 144.800 C 171.599 144.800,193.905 153.383,202.800 158.664 C 209.859 162.855,217.625 166.800,218.816 166.800 C 219.309 166.800,219.952 167.115,220.245 167.500 C 220.702 168.101,217.304 159.380,215.452 155.200 C 214.844 153.829,214.831 153.823,214.816 154.900 C 214.807 155.505,214.440 156.360,214.000 156.800 C 212.854 157.946,212.880 161.486,214.046 162.967 C 215.784 165.177,213.136 164.018,201.800 157.605 C 197.319 155.070,193.728 153.273,188.600 151.000 C 184.548 149.203,169.439 144.400,167.840 144.400 C 167.488 144.400,167.200 144.220,167.200 144.000 C 167.200 143.780,167.400 143.600,167.644 143.600 C 167.888 143.600,171.623 143.040,175.944 142.355 C 184.878 140.940,185.947 140.966,193.098 142.780 C 200.449 144.644,211.243 148.541,212.986 149.960 C 213.751 150.582,213.756 150.573,213.150 149.619 C 212.808 149.080,212.083 148.519,211.540 148.374 C 210.997 148.229,209.843 147.797,208.976 147.414 C 205.195 145.745,201.651 144.448,198.400 143.544 C 197.630 143.330,196.370 142.973,195.600 142.751 C 194.084 142.313,192.032 141.796,189.200 141.138 C 186.754 140.569,182.262 140.271,181.882 140.652 M213.000 148.147 C 213.440 148.492,214.172 148.780,214.627 148.787 C 215.082 148.794,216.342 149.051,217.427 149.357 C 218.512 149.663,222.190 150.676,225.600 151.608 C 234.986 154.173,239.929 155.539,242.800 156.364 C 244.230 156.775,247.560 157.691,250.200 158.400 C 252.840 159.109,256.170 160.031,257.600 160.448 C 259.030 160.866,262.540 161.846,265.400 162.626 C 268.260 163.406,274.470 165.102,279.200 166.394 C 283.930 167.687,289.240 169.130,291.000 169.602 C 292.760 170.074,295.190 170.731,296.400 171.061 C 297.610 171.392,299.905 172.009,301.500 172.431 C 303.095 172.854,305.795 173.574,307.500 174.032 C 309.205 174.489,311.230 175.012,312.000 175.193 C 312.770 175.374,314.390 175.797,315.600 176.132 C 327.458 179.417,342.196 183.272,343.600 183.455 C 345.834 183.747,344.193 182.984,341.000 182.246 C 339.460 181.890,336.940 181.257,335.400 180.840 C 333.860 180.423,330.530 179.524,328.000 178.842 C 325.470 178.160,321.420 177.060,319.000 176.398 C 316.580 175.736,313.293 174.844,311.696 174.416 C 310.099 173.988,302.719 171.988,295.296 169.972 C 287.873 167.956,278.560 165.430,274.600 164.358 C 270.640 163.286,266.770 162.231,266.000 162.013 C 265.230 161.795,263.250 161.249,261.600 160.800 C 259.950 160.351,257.970 159.811,257.200 159.600 C 256.430 159.389,254.450 158.849,252.800 158.400 C 251.150 157.951,249.170 157.409,248.400 157.196 C 238.292 154.394,235.182 153.530,234.000 153.193 C 216.825 148.299,211.590 147.041,213.000 148.147 M218.792 164.384 C 219.698 166.161,219.752 166.400,219.246 166.400 C 218.866 166.400,217.600 163.969,217.600 163.240 C 217.600 162.427,217.979 162.790,218.792 164.384 M288.912 200.578 C 285.361 201.863,283.622 203.154,281.823 205.843 C 280.956 207.139,279.906 208.588,279.490 209.062 C 278.546 210.135,279.595 211.421,285.569 216.518 C 298.514 227.562,308.991 238.695,318.585 251.600 C 320.466 254.130,322.550 256.870,323.216 257.689 L 324.427 259.178 323.513 259.400 C 323.011 259.521,301.135 259.571,274.900 259.511 C 248.665 259.450,227.200 259.533,227.200 259.696 C 227.200 259.859,266.125 259.949,313.700 259.896 C 361.275 259.843,389.865 259.710,377.233 259.600 C 358.697 259.439,354.232 259.298,354.090 258.872 C 353.484 257.053,341.448 241.131,335.163 233.836 C 323.265 220.024,308.014 207.372,296.038 201.376 C 291.995 199.352,292.228 199.378,288.912 200.578 M300.800 204.655 C 311.136 210.804,324.609 222.350,333.174 232.400 C 334.767 234.270,336.685 236.518,337.436 237.396 C 340.020 240.418,338.795 240.166,335.900 237.080 C 333.071 234.064,332.000 233.383,332.000 234.600 C 332.000 234.969,331.625 235.200,331.024 235.200 C 330.487 235.200,329.950 235.357,329.832 235.548 C 329.460 236.150,327.080 236.452,326.762 235.939 C 326.544 235.585,325.898 235.631,324.160 236.126 C 322.890 236.487,321.763 236.697,321.658 236.591 C 321.553 236.486,321.677 236.400,321.933 236.400 C 322.531 236.400,322.542 235.335,321.947 234.967 C 321.698 234.814,321.329 234.983,321.127 235.344 C 320.576 236.329,318.000 236.245,318.000 235.242 C 318.000 234.685,317.735 234.500,317.000 234.542 C 315.821 234.610,315.791 234.707,316.655 235.661 C 317.184 236.245,317.215 236.500,316.815 236.982 C 316.302 237.600,314.197 236.903,313.550 235.901 C 313.405 235.677,312.901 235.649,312.350 235.836 C 311.827 236.012,311.177 236.114,310.905 236.062 C 310.179 235.923,308.625 236.842,309.076 237.143 C 309.603 237.495,311.600 240.502,311.600 240.942 C 311.600 241.138,310.295 239.889,308.700 238.166 C 301.861 230.780,294.848 223.989,286.720 216.881 C 281.433 212.257,281.229 212.022,282.273 211.749 C 282.687 211.641,283.253 211.039,283.530 210.413 C 284.719 207.727,288.414 204.461,290.600 204.162 C 293.002 203.835,295.324 203.236,295.716 202.844 C 296.330 202.230,297.312 202.579,300.800 204.655 M341.200 242.448 C 341.200 242.731,340.942 242.612,340.613 242.176 C 339.842 241.158,339.833 240.576,340.600 241.343 C 340.930 241.673,341.200 242.170,341.200 242.448 M49.900 259.900 C 77.455 259.957,122.545 259.957,150.100 259.900 C 177.655 259.843,155.110 259.797,100.000 259.797 C 44.890 259.797,22.345 259.843,49.900 259.900 M275.800 278.643 C 260.670 279.384,258.807 280.403,255.588 289.692 C 253.041 297.042,253.210 296.800,250.651 296.802 C 245.208 296.807,242.559 305.213,247.903 305.521 C 250.042 305.644,250.296 305.880,249.613 307.105 C 248.214 309.613,248.000 311.634,248.000 322.325 C 248.000 336.135,247.915 335.967,254.864 335.987 L 259.129 336.000 260.164 334.769 C 260.734 334.092,261.225 333.147,261.257 332.669 C 261.326 331.599,261.441 330.364,261.532 329.700 C 261.582 329.333,262.847 329.198,266.300 329.194 C 271.557 329.187,271.493 329.209,272.600 327.012 C 273.630 324.969,275.206 323.937,278.363 323.239 L 280.901 322.678 282.185 319.839 C 282.892 318.277,283.974 315.703,284.590 314.119 C 287.251 307.282,291.175 305.896,309.400 305.353 C 318.798 305.073,319.205 304.978,319.191 303.051 C 319.166 299.455,316.779 296.800,313.571 296.800 L 311.293 296.800 310.462 294.700 C 310.006 293.545,308.979 290.683,308.181 288.341 C 305.950 281.788,303.706 280.088,296.200 279.265 C 291.795 278.781,280.192 278.428,275.800 278.643 M295.266 279.758 C 303.395 280.585,305.450 281.899,307.333 287.477 C 307.913 289.195,308.889 292.040,309.503 293.800 L 310.618 297.000 313.009 297.210 C 316.246 297.494,316.996 298.009,317.971 300.613 C 319.346 304.288,319.105 304.644,315.372 304.457 C 314.037 304.390,309.717 304.537,305.772 304.784 C 288.909 305.842,287.013 306.818,282.915 316.553 L 280.577 322.105 277.989 322.782 C 274.111 323.795,273.193 324.489,271.354 327.800 C 270.956 328.516,270.453 328.607,266.555 328.671 C 264.160 328.710,261.885 328.755,261.500 328.771 C 260.920 328.795,260.800 329.184,260.800 331.031 C 260.800 334.656,259.561 335.600,254.804 335.600 C 248.543 335.600,248.747 336.062,248.787 322.020 C 248.816 312.007,248.900 310.635,249.610 308.572 C 250.739 305.291,250.708 305.200,248.480 305.200 C 245.453 305.200,244.854 303.806,246.366 300.280 C 247.373 297.931,248.482 297.200,251.040 297.200 C 253.634 297.200,253.508 297.380,255.941 290.200 C 258.816 281.715,259.983 280.770,268.800 279.780 C 274.502 279.139,289.067 279.127,295.266 279.758 M274.000 283.267 C 262.862 284.049,262.266 284.493,259.601 294.000 C 259.385 294.770,258.872 296.480,258.460 297.800 C 258.048 299.120,257.795 300.425,257.898 300.700 C 258.187 301.471,305.938 301.427,306.234 300.656 C 306.493 299.981,303.036 287.820,302.240 286.605 C 300.441 283.860,287.440 282.323,274.000 283.267 M292.200 284.001 C 301.804 285.323,301.480 285.058,303.973 293.601 C 305.033 297.230,305.861 300.247,305.813 300.304 C 305.669 300.475,258.705 300.439,258.534 300.267 C 258.148 299.882,262.137 287.332,262.911 286.496 C 265.048 284.186,282.647 282.687,292.200 284.001 M93.400 297.661 C 92.759 298.042,78.354 308.816,76.000 310.674 C 75.670 310.935,74.590 311.754,73.600 312.495 C 52.316 328.428,52.875 326.444,66.400 338.016 C 76.111 346.324,88.537 356.756,91.536 359.118 C 94.250 361.255,96.114 361.402,98.094 359.633 L 99.400 358.466 99.489 350.778 C 99.537 346.549,99.654 343.013,99.748 342.919 C 99.991 342.676,122.725 342.707,123.120 342.951 C 123.300 343.062,123.427 349.555,123.402 357.380 C 123.377 365.205,123.458 371.770,123.580 371.968 C 123.703 372.167,129.023 372.391,135.402 372.465 L 147.000 372.600 147.000 349.600 C 147.000 323.175,147.035 323.498,143.793 320.256 C 140.169 316.633,140.155 316.630,118.400 316.401 L 99.400 316.200 99.375 314.800 C 99.361 314.030,99.316 310.388,99.275 306.706 L 99.200 300.013 98.100 298.792 C 96.864 297.421,94.684 296.896,93.400 297.661 M97.630 299.031 C 98.579 300.040,98.604 300.249,98.800 308.531 L 99.000 317.000 118.200 317.208 C 148.349 317.534,146.883 315.796,146.705 351.000 L 146.600 371.800 135.400 371.687 L 124.200 371.574 123.988 356.887 C 123.871 348.809,123.736 342.152,123.688 342.094 C 123.639 342.036,118.065 342.036,111.300 342.094 L 99.000 342.200 98.800 350.336 C 98.479 363.407,98.739 363.420,82.078 349.504 C 56.780 328.373,57.999 329.496,58.002 327.331 C 58.005 324.907,56.969 325.795,81.200 307.440 C 84.390 305.024,88.499 301.911,90.331 300.523 C 94.229 297.570,95.930 297.223,97.630 299.031 M258.963 309.008 C 254.015 311.179,253.817 317.685,258.628 320.014 C 261.635 321.469,265.350 320.054,266.642 316.960 C 268.641 312.177,263.611 306.968,258.963 309.008 M263.588 309.794 C 268.563 312.367,266.627 320.000,261.000 320.000 C 256.277 320.000,253.758 314.185,257.053 310.890 C 258.721 309.222,261.562 308.746,263.588 309.794 M303.800 310.641 C 292.507 311.511,290.690 312.739,287.587 321.596 C 285.202 328.406,285.206 328.400,282.913 328.400 C 277.357 328.400,274.559 337.089,280.016 337.397 C 282.118 337.516,282.076 337.362,280.945 340.730 C 279.644 344.602,279.614 364.138,280.906 366.038 C 283.796 370.292,293.126 368.410,293.592 363.480 L 293.800 361.279 314.000 361.140 L 334.200 361.000 334.416 363.147 C 334.927 368.239,345.077 369.896,347.203 365.234 C 348.293 362.846,348.418 343.731,347.365 340.617 C 346.364 337.659,346.498 337.177,348.225 337.507 C 350.790 337.997,351.959 335.789,350.789 332.664 C 349.666 329.661,348.137 328.400,345.618 328.400 C 343.201 328.400,343.141 328.322,341.199 322.648 C 338.468 314.664,338.094 314.090,334.535 312.413 C 331.461 310.965,313.235 309.914,303.800 310.641 M323.200 311.214 C 336.166 312.019,337.158 312.631,340.233 321.715 C 342.718 329.059,342.547 328.800,344.906 328.800 C 350.411 328.800,353.290 336.437,347.892 336.720 C 345.238 336.859,345.305 336.674,346.607 340.241 L 347.615 343.000 347.187 353.764 C 346.657 367.116,346.617 367.200,340.794 367.200 C 336.428 367.200,335.233 366.277,335.213 362.890 C 335.195 360.032,336.418 360.170,313.200 360.400 L 293.000 360.600 292.877 362.999 C 292.684 366.765,292.066 367.200,286.912 367.200 C 283.041 367.200,282.698 367.134,281.782 366.218 L 280.800 365.236 280.800 354.027 C 280.800 343.171,280.830 342.738,281.760 340.268 C 282.908 337.218,282.766 336.889,280.233 336.726 C 275.217 336.403,277.936 329.258,283.221 328.876 C 286.020 328.674,285.668 329.198,288.432 321.099 C 290.305 315.609,291.360 314.146,294.380 312.847 C 298.135 311.231,311.391 310.480,323.200 311.214 M302.200 315.398 C 295.288 316.493,294.199 317.206,292.886 321.498 C 292.431 322.984,291.533 325.910,290.890 328.000 C 290.247 330.090,289.803 332.025,289.903 332.300 C 290.046 332.692,295.290 332.800,314.287 332.800 L 338.488 332.800 338.291 331.500 C 337.465 326.027,334.395 317.820,332.888 317.058 C 328.802 314.991,310.892 314.022,302.200 315.398 M327.298 316.187 C 330.690 316.743,333.355 317.681,333.858 318.494 C 334.318 319.238,337.900 332.000,337.650 332.002 C 310.728 332.208,290.986 331.964,290.872 331.423 C 290.802 331.089,291.310 328.967,292.002 326.708 C 292.693 324.448,293.438 321.970,293.657 321.200 C 294.624 317.804,295.489 317.191,300.621 316.262 C 305.073 315.457,322.543 315.408,327.298 316.187 M290.096 341.198 C 286.274 343.528,286.170 348.746,289.894 351.326 C 293.875 354.085,299.194 351.283,299.199 346.425 C 299.202 341.919,293.904 338.877,290.096 341.198 M332.200 341.144 C 329.213 342.989,328.234 345.778,329.590 348.579 C 331.889 353.329,337.694 353.778,340.390 349.416 C 343.454 344.458,337.147 338.088,332.200 341.144 M295.353 341.355 C 299.502 343.088,299.515 349.421,295.373 351.253 C 293.100 352.259,291.214 351.937,289.411 350.236 C 285.079 346.151,289.832 339.048,295.353 341.355 M337.318 341.391 C 340.768 342.833,341.654 347.510,338.982 350.182 C 334.638 354.525,327.580 349.431,330.440 344.017 C 331.952 341.156,334.461 340.198,337.318 341.391 " stroke="none" fill="#8f9394" fill-rule="evenodd"></path><path id="path6" d="M365.267 0.349 C 365.340 0.541,368.476 3.916,372.236 7.849 C 380.716 16.720,384.680 21.015,389.354 26.400 C 391.359 28.710,393.359 30.981,393.800 31.447 C 394.240 31.913,395.230 33.082,396.000 34.044 C 396.770 35.006,397.980 36.425,398.689 37.197 L 399.978 38.600 399.989 19.300 L 400.000 0.000 382.567 0.000 C 372.795 0.000,365.192 0.154,365.267 0.349 " stroke="none" fill="#047beb" fill-rule="evenodd"></path><path id="path7" d="M274.908 178.284 C 274.637 178.382,274.035 179.753,273.569 181.331 C 273.104 182.909,271.375 188.610,269.728 194.000 C 268.080 199.390,266.374 204.970,265.937 206.400 C 265.500 207.830,264.632 210.710,264.008 212.800 C 263.384 214.890,262.298 218.400,261.596 220.600 C 260.893 222.800,260.172 225.140,259.992 225.800 C 259.813 226.460,259.308 228.170,258.870 229.600 C 258.433 231.030,257.327 234.720,256.413 237.800 C 255.499 240.880,254.628 243.707,254.476 244.082 C 254.289 244.544,252.537 240.873,249.036 232.682 C 242.731 217.932,241.989 216.278,241.770 216.496 C 241.615 216.652,244.239 223.019,246.642 228.312 C 247.169 229.473,247.600 230.504,247.600 230.602 C 247.600 230.700,248.140 231.959,248.800 233.400 C 249.460 234.841,250.000 236.100,250.000 236.198 C 250.000 236.296,250.433 237.327,250.963 238.488 C 251.492 239.650,252.353 241.667,252.876 242.971 C 253.977 245.719,254.470 246.052,255.158 244.510 C 255.604 243.511,256.586 241.915,261.085 234.873 C 261.832 233.703,262.772 232.173,263.172 231.473 C 264.175 229.721,271.962 217.108,278.529 206.600 C 279.629 204.840,281.490 201.789,282.665 199.819 C 283.840 197.850,284.942 196.098,285.113 195.927 C 285.538 195.502,340.128 185.703,344.307 185.302 C 346.429 185.098,347.058 184.740,346.598 183.997 C 346.444 183.747,346.120 183.823,345.746 184.197 C 345.047 184.896,344.699 184.913,341.200 184.413 C 338.731 184.060,319.577 182.190,300.000 180.390 C 285.285 179.037,283.124 178.840,280.400 178.598 C 278.970 178.472,277.260 178.309,276.600 178.237 C 275.940 178.166,275.179 178.187,274.908 178.284 M227.230 182.874 C 227.182 183.310,229.297 188.036,229.464 187.869 C 229.548 187.786,229.085 186.566,228.437 185.159 C 227.789 183.751,227.246 182.723,227.230 182.874 M234.522 200.000 C 234.970 201.478,238.929 210.404,239.073 210.260 C 239.250 210.084,235.529 201.253,234.797 200.113 C 234.514 199.672,234.409 199.629,234.522 200.000 M239.265 211.000 C 239.260 211.533,241.536 216.314,241.550 215.800 C 241.556 215.580,241.045 214.320,240.415 213.000 C 239.784 211.680,239.267 210.780,239.265 211.000 " stroke="none" fill="#c05f05" fill-rule="evenodd"></path></g></svg>