<svg xmlns="http://www.w3.org/2000/svg" xmlns:xlink="http://www.w3.org/1999/xlink" viewBox="0 0 230.05 230"><defs><linearGradient id="linear-gradient" x1="158.94" y1="225.34" x2="156.67" y2="0.42" gradientTransform="matrix(1, 0, 0, -1, 0, 232)" gradientUnits="userSpaceOnUse"><stop offset="0" stop-color="#cbdbf1"/><stop offset="0.76" stop-color="#b6e3f2"/><stop offset="0.88" stop-color="#b8d5ec"/><stop offset="1" stop-color="#b9cdea"/></linearGradient></defs><g id="Layer_2" data-name="Layer 2"><g id="Layer_1-2" data-name="Layer 1"><path d="M230,0H0V230H230Z" style="fill:#fff"/><path d="M62.1,0H0V62.1H62.1Z" style="fill:#dbebfa"/><path d="M62.1,86.8H0v60.6H62.1Z" style="fill:#dbebfa"/><path d="M62.1,162.9H0V230H62.1Z" style="fill:#dbebfa"/><path d="M150.1,162.9H86.8V230h63.3Z" style="fill:#dbebfa"/><path d="M150.1,86.8H86.8v60.6h63.3Z" style="fill:#b5e3f3"/><path d="M150.1,0H86.8V62.1h63.3Z" style="fill:#dbebfa"/><path d="M230,0H165.6V62.1H230Z" style="fill:#dbebfa"/><path d="M230,86H165.6v61.3H230Z" style="fill:#dbebfa"/><path d="M230,162.9H165.6V230H230Z" style="fill:#dbebfa"/><path d="M165.6,0H150.1V230h15.5Z" style="fill:url(#linear-gradient)"/><path d="M230,162.82v-15.5H0v15.5Z" style="fill:#b5e3f3"/><path d="M230.05,86.85V62.15H.05v24.7Z" style="fill:#fff"/><path d="M62.1,230H86.8V0H62.1Z" style="fill:#fff"/><path d="M22.8,192.4C30.3,173,51,122.8,78.3,87.4l54.3,54.3c-29.1,24.4-84.1,47.5-104.7,55.6A3.81,3.81,0,0,1,22.8,192.4Z" style="fill:#137dff"/><path d="M188,36.8c-7.5,19.4-28.2,69.6-55.5,105L78.2,87.4C107.4,63.1,162.4,40,183,31.8A3.86,3.86,0,0,1,188,36.8Z" style="fill:#ff2b00"/></g></g></svg>