<?xml version="1.0" encoding="UTF-8"?>
<!DOCTYPE svg PUBLIC "-//W3C//DTD SVG 1.1//EN" "http://www.w3.org/Graphics/SVG/1.1/DTD/svg11.dtd">
<svg xmlns="http://www.w3.org/2000/svg" version="1.1" width="512px" height="512px" style="shape-rendering:geometricPrecision; text-rendering:geometricPrecision; image-rendering:optimizeQuality; fill-rule:evenodd; clip-rule:evenodd" xmlns:xlink="http://www.w3.org/1999/xlink">
<g><path style="opacity:1" fill="#fefefe" d="M -0.5,-0.5 C 170.167,-0.5 340.833,-0.5 511.5,-0.5C 511.5,170.167 511.5,340.833 511.5,511.5C 340.833,511.5 170.167,511.5 -0.5,511.5C -0.5,340.833 -0.5,170.167 -0.5,-0.5 Z"/></g>
<g><path style="opacity:1" fill="#ee44bc" d="M 122.5,100.5 C 121.794,124.685 121.461,148.685 121.5,172.5C 114.167,172.5 106.833,172.5 99.5,172.5C 99.5,148.5 99.5,124.5 99.5,100.5C 107.167,100.5 114.833,100.5 122.5,100.5 Z"/></g>
<g><path style="opacity:1" fill="#df43c4" d="M 122.5,100.5 C 128.833,100.5 135.167,100.5 141.5,100.5C 141.473,124.527 141.473,148.527 141.5,172.5C 134.833,172.5 128.167,172.5 121.5,172.5C 121.461,148.685 121.794,124.685 122.5,100.5 Z"/></g>
<g><path style="opacity:1" fill="#d342cb" d="M 141.5,100.5 C 147.167,100.5 152.833,100.5 158.5,100.5C 157.374,102.666 157.707,104.833 159.5,107C 158.167,108.333 158.167,109.667 159.5,111C 157.908,114.237 157.242,117.237 157.5,120C 158.167,121 158.833,122 159.5,123C 158.167,124.333 158.167,125.667 159.5,127C 157.908,130.237 157.242,133.237 157.5,136C 158.167,137 158.833,138 159.5,139C 158.167,140.333 158.167,141.667 159.5,143C 157.908,146.237 157.242,149.237 157.5,152C 158.167,153 158.833,154 159.5,155C 158.167,156.333 158.167,157.667 159.5,159C 156.573,163.837 156.906,168.337 160.5,172.5C 154.167,172.5 147.833,172.5 141.5,172.5C 141.473,148.527 141.473,124.527 141.5,100.5 Z"/></g>
<g><path style="opacity:1" fill="#c641d2" d="M 158.5,100.5 C 164.5,100.5 170.5,100.5 176.5,100.5C 175.286,124.536 175.286,148.536 176.5,172.5C 171.167,172.5 165.833,172.5 160.5,172.5C 156.906,168.337 156.573,163.837 159.5,159C 158.167,157.667 158.167,156.333 159.5,155C 158.833,154 158.167,153 157.5,152C 157.242,149.237 157.908,146.237 159.5,143C 158.167,141.667 158.167,140.333 159.5,139C 158.833,138 158.167,137 157.5,136C 157.242,133.237 157.908,130.237 159.5,127C 158.167,125.667 158.167,124.333 159.5,123C 158.833,122 158.167,121 157.5,120C 157.242,117.237 157.908,114.237 159.5,111C 158.167,109.667 158.167,108.333 159.5,107C 157.707,104.833 157.374,102.666 158.5,100.5 Z"/></g>
<g><path style="opacity:1" fill="#ba40d9" d="M 176.5,100.5 C 181.833,100.5 187.167,100.5 192.5,100.5C 193.684,123.018 193.684,145.518 192.5,168C 193.267,169.47 193.933,170.97 194.5,172.5C 188.5,172.5 182.5,172.5 176.5,172.5C 175.286,148.536 175.286,124.536 176.5,100.5 Z"/></g>
<g><path style="opacity:1" fill="#ad3fe0" d="M 192.5,100.5 C 198.833,100.5 205.167,100.5 211.5,100.5C 211.082,101.222 210.416,101.722 209.5,102C 210.516,102.519 211.182,103.353 211.5,104.5C 210.975,108.046 210.975,111.879 211.5,116C 211.095,116.945 210.428,117.612 209.5,118C 210.516,118.519 211.182,119.353 211.5,120.5C 210.975,124.046 210.975,127.879 211.5,132C 211.095,132.945 210.428,133.612 209.5,134C 210.516,134.519 211.182,135.353 211.5,136.5C 210.975,140.046 210.975,143.879 211.5,148C 211.095,148.945 210.428,149.612 209.5,150C 210.516,150.519 211.182,151.353 211.5,152.5C 210.975,156.046 210.975,159.879 211.5,164C 211.095,164.945 210.428,165.612 209.5,166C 211.658,167.312 211.991,168.978 210.5,171C 212.058,171.21 213.391,171.71 214.5,172.5C 207.833,172.5 201.167,172.5 194.5,172.5C 193.933,170.97 193.267,169.47 192.5,168C 193.684,145.518 193.684,123.018 192.5,100.5 Z"/></g>
<g><path style="opacity:1" fill="#933def" d="M 227.5,100.5 C 236.5,100.5 245.5,100.5 254.5,100.5C 255.255,114.99 255.255,129.323 254.5,143.5C 254.942,144.739 255.609,145.739 256.5,146.5C 255.833,147.833 255.167,149.167 254.5,150.5C 251.529,152.443 249.529,155.109 248.5,158.5C 244.676,162.814 241.343,167.481 238.5,172.5C 236.167,172.5 233.833,172.5 231.5,172.5C 230.391,171.71 229.058,171.21 227.5,171C 227.736,147.549 227.736,124.049 227.5,100.5 Z"/></g>
<g><path style="opacity:1" fill="#7b3cfc" d="M 254.5,100.5 C 283.671,100.169 312.671,100.502 341.5,101.5C 330.351,102.329 319.685,104.996 309.5,109.5C 305.714,110.893 302.048,112.559 298.5,114.5C 291.114,117.851 284.448,122.184 278.5,127.5C 272.273,131.055 266.94,135.722 262.5,141.5C 260.5,143.167 258.5,144.833 256.5,146.5C 255.609,145.739 254.942,144.739 254.5,143.5C 255.255,129.323 255.255,114.99 254.5,100.5 Z"/></g>
<g><path style="opacity:1" fill="#33e5af" d="M 407.5,172.5 C 406.928,171.027 406.095,169.693 405,168.5C 403.667,168.5 402.333,168.5 401,168.5C 398.986,166.155 396.653,164.155 394,162.5C 392.853,163.458 391.853,163.125 391,161.5C 390.282,162.451 389.449,162.617 388.5,162C 388.5,161 388.5,160 388.5,159C 387.328,158.581 386.328,157.915 385.5,157C 384.256,156.544 383.423,157.044 383,158.5C 382.667,157.167 382.333,155.833 382,154.5C 381.667,155.167 381.333,155.833 381,156.5C 378.501,153.816 375.834,152.149 373,151.5C 372.685,148.853 371.518,148.187 369.5,149.5C 369.467,148.011 368.967,146.678 368,145.5C 367.667,145.833 367.333,146.167 367,146.5C 364.667,144.833 362.333,143.167 360,141.5C 359.333,142.167 358.667,142.833 358,143.5C 355.345,139.036 351.845,136.203 347.5,135C 346.333,133.5 345.167,132 344,130.5C 343.667,131.167 343.333,131.833 343,132.5C 341.649,131.039 340.149,129.706 338.5,128.5C 337.914,128.709 337.414,129.043 337,129.5C 336,127.833 335,126.167 334,124.5C 332.691,126.891 331.691,126.891 331,124.5C 330.667,124.833 330.333,125.167 330,125.5C 329.558,123.321 328.558,122.655 327,123.5C 326.558,121.321 325.558,120.655 324,121.5C 323.383,120.551 323.549,119.718 324.5,119C 322.295,117.573 320.128,117.073 318,117.5C 316.513,116.747 316.346,115.914 317.5,115C 316.551,114.383 315.718,114.549 315,115.5C 312.903,112.936 311.07,110.936 309.5,109.5C 319.685,104.996 330.351,102.329 341.5,101.5C 364.474,100.541 387.474,100.208 410.5,100.5C 410.5,124.5 410.5,148.5 410.5,172.5C 409.5,172.5 408.5,172.5 407.5,172.5 Z"/></g>
<g><path style="opacity:1" fill="#30deb3" d="M 309.5,109.5 C 311.07,110.936 312.903,112.936 315,115.5C 315.718,114.549 316.551,114.383 317.5,115C 316.346,115.914 316.513,116.747 318,117.5C 320.128,117.073 322.295,117.573 324.5,119C 323.549,119.718 323.383,120.551 324,121.5C 325.558,120.655 326.558,121.321 327,123.5C 328.558,122.655 329.558,123.321 330,125.5C 330.333,125.167 330.667,124.833 331,124.5C 331.691,126.891 332.691,126.891 334,124.5C 335,126.167 336,127.833 337,129.5C 337.414,129.043 337.914,128.709 338.5,128.5C 340.149,129.706 341.649,131.039 343,132.5C 343.333,131.833 343.667,131.167 344,130.5C 345.167,132 346.333,133.5 347.5,135C 351.845,136.203 355.345,139.036 358,143.5C 358.667,142.833 359.333,142.167 360,141.5C 362.333,143.167 364.667,144.833 367,146.5C 367.333,146.167 367.667,145.833 368,145.5C 368.967,146.678 369.467,148.011 369.5,149.5C 371.518,148.187 372.685,148.853 373,151.5C 375.834,152.149 378.501,153.816 381,156.5C 381.333,155.833 381.667,155.167 382,154.5C 382.333,155.833 382.667,157.167 383,158.5C 383.423,157.044 384.256,156.544 385.5,157C 386.328,157.915 387.328,158.581 388.5,159C 388.5,160 388.5,161 388.5,162C 389.449,162.617 390.282,162.451 391,161.5C 391.853,163.125 392.853,163.458 394,162.5C 396.653,164.155 398.986,166.155 401,168.5C 402.333,168.5 403.667,168.5 405,168.5C 406.095,169.693 406.928,171.027 407.5,172.5C 401.5,172.5 395.5,172.5 389.5,172.5C 384.054,171.695 379.22,169.362 375,165.5C 374.667,165.833 374.333,166.167 374,166.5C 362.31,158.825 350.643,151.158 339,143.5C 326.18,135.688 313.347,127.855 300.5,120C 297.882,118.639 297.215,116.806 298.5,114.5C 302.048,112.559 305.714,110.893 309.5,109.5 Z"/></g>
<g><path style="opacity:1" fill="#2dd5b9" d="M 298.5,114.5 C 297.215,116.806 297.882,118.639 300.5,120C 313.347,127.855 326.18,135.688 339,143.5C 350.643,151.158 362.31,158.825 374,166.5C 374.333,166.167 374.667,165.833 375,165.5C 379.22,169.362 384.054,171.695 389.5,172.5C 375.784,172.202 362.118,172.535 348.5,173.5C 348.607,171.621 348.107,171.288 347,172.5C 345.025,171.25 343.859,169.917 343.5,168.5C 342.914,168.709 342.414,169.043 342,169.5C 340.237,167.281 338.237,165.281 336,163.5C 335.586,163.957 335.086,164.291 334.5,164.5C 333.147,163.315 331.98,161.981 331,160.5C 329.251,161.299 327.918,160.632 327,158.5C 317.418,152.984 306.918,146.817 295.5,140C 294.874,139.25 294.374,138.416 294,137.5C 292.434,138.061 291.101,137.394 290,135.5C 289.667,135.833 289.333,136.167 289,136.5C 286.407,133.457 283.24,131.29 279.5,130C 278.748,129.329 278.414,128.496 278.5,127.5C 284.448,122.184 291.114,117.851 298.5,114.5 Z"/></g>
<g><path style="opacity:1" fill="#28c7c2" d="M 278.5,127.5 C 278.414,128.496 278.748,129.329 279.5,130C 283.24,131.29 286.407,133.457 289,136.5C 289.333,136.167 289.667,135.833 290,135.5C 291.101,137.394 292.434,138.061 294,137.5C 294.374,138.416 294.874,139.25 295.5,140C 306.918,146.817 317.418,152.984 327,158.5C 327.918,160.632 329.251,161.299 331,160.5C 331.98,161.981 333.147,163.315 334.5,164.5C 335.086,164.291 335.586,163.957 336,163.5C 338.237,165.281 340.237,167.281 342,169.5C 342.414,169.043 342.914,168.709 343.5,168.5C 343.859,169.917 345.025,171.25 347,172.5C 348.107,171.288 348.607,171.621 348.5,173.5C 340.405,174.976 332.739,177.642 325.5,181.5C 323.277,180.886 321.611,179.552 320.5,177.5C 319.914,177.709 319.414,178.043 319,178.5C 318.082,176.368 316.749,175.701 315,176.5C 314.5,175.333 313.667,174.5 312.5,174C 313.34,172.334 312.84,172.167 311,173.5C 310.641,170.456 309.974,170.122 309,172.5C 306.697,170.725 304.197,168.392 301.5,165.5C 300.833,165.833 300.167,166.167 299.5,166.5C 297.815,164.983 296.315,163.316 295,161.5C 293.16,162.833 292.66,162.666 293.5,161C 291.598,160.801 290.098,159.967 289,158.5C 288.667,158.833 288.333,159.167 288,159.5C 284.21,154.913 279.377,151.58 273.5,149.5C 272.139,147.972 270.972,146.305 270,144.5C 269.692,145.308 269.192,145.975 268.5,146.5C 267.416,145.335 266.583,144.002 266,142.5C 264.485,144.905 263.318,144.572 262.5,141.5C 266.94,135.722 272.273,131.055 278.5,127.5 Z"/></g>
<g><path style="opacity:1" fill="#a23ee6" d="M 211.5,100.5 C 216.833,100.5 222.167,100.5 227.5,100.5C 227.736,124.049 227.736,147.549 227.5,171C 229.058,171.21 230.391,171.71 231.5,172.5C 225.833,172.5 220.167,172.5 214.5,172.5C 213.391,171.71 212.058,171.21 210.5,171C 211.991,168.978 211.658,167.312 209.5,166C 210.428,165.612 211.095,164.945 211.5,164C 210.975,159.879 210.975,156.046 211.5,152.5C 211.182,151.353 210.516,150.519 209.5,150C 210.428,149.612 211.095,148.945 211.5,148C 210.975,143.879 210.975,140.046 211.5,136.5C 211.182,135.353 210.516,134.519 209.5,134C 210.428,133.612 211.095,132.945 211.5,132C 210.975,127.879 210.975,124.046 211.5,120.5C 211.182,119.353 210.516,118.519 209.5,118C 210.428,117.612 211.095,116.945 211.5,116C 210.975,111.879 210.975,108.046 211.5,104.5C 211.182,103.353 210.516,102.519 209.5,102C 210.416,101.722 211.082,101.222 211.5,100.5 Z"/></g>
<g><path style="opacity:1" fill="#25bfc7" d="M 262.5,141.5 C 263.318,144.572 264.485,144.905 266,142.5C 266.583,144.002 267.416,145.335 268.5,146.5C 269.192,145.975 269.692,145.308 270,144.5C 270.972,146.305 272.139,147.972 273.5,149.5C 279.377,151.58 284.21,154.913 288,159.5C 288.333,159.167 288.667,158.833 289,158.5C 290.098,159.967 291.598,160.801 293.5,161C 292.66,162.666 293.16,162.833 295,161.5C 296.315,163.316 297.815,164.983 299.5,166.5C 300.167,166.167 300.833,165.833 301.5,165.5C 304.197,168.392 306.697,170.725 309,172.5C 309.974,170.122 310.641,170.456 311,173.5C 312.84,172.167 313.34,172.334 312.5,174C 313.667,174.5 314.5,175.333 315,176.5C 316.749,175.701 318.082,176.368 319,178.5C 319.414,178.043 319.914,177.709 320.5,177.5C 321.611,179.552 323.277,180.886 325.5,181.5C 321.857,184.135 318.19,186.801 314.5,189.5C 314.5,188.5 314.5,187.5 314.5,186.5C 313.07,186.579 311.736,186.246 310.5,185.5C 306.566,182.618 302.733,179.618 299,176.5C 297.251,177.299 295.918,176.632 295,174.5C 294.667,174.833 294.333,175.167 294,175.5C 293.558,173.321 292.558,172.655 291,173.5C 278.814,165.354 266.647,157.687 254.5,150.5C 255.167,149.167 255.833,147.833 256.5,146.5C 258.5,144.833 260.5,143.167 262.5,141.5 Z"/></g>
<g><path style="opacity:1" fill="#23b8cb" d="M 254.5,150.5 C 266.647,157.687 278.814,165.354 291,173.5C 292.558,172.655 293.558,173.321 294,175.5C 294.333,175.167 294.667,174.833 295,174.5C 295.918,176.632 297.251,177.299 299,176.5C 302.733,179.618 306.566,182.618 310.5,185.5C 311.736,186.246 313.07,186.579 314.5,186.5C 314.5,187.5 314.5,188.5 314.5,189.5C 312.833,191.833 310.833,193.833 308.5,195.5C 307.746,193.495 306.579,192.828 305,193.5C 302.692,191.449 300.692,189.782 299,188.5C 298.667,188.833 298.333,189.167 298,189.5C 297.558,187.321 296.558,186.655 295,187.5C 292.683,186.24 290.349,184.24 288,181.5C 287.667,181.833 287.333,182.167 287,182.5C 279.296,177.154 271.629,171.821 264,166.5C 263.667,166.833 263.333,167.167 263,167.5C 260.667,165.5 258.333,163.5 256,161.5C 255.667,161.833 255.333,162.167 255,162.5C 253.399,160.281 251.233,158.948 248.5,158.5C 249.529,155.109 251.529,152.443 254.5,150.5 Z"/></g>
<g><path style="opacity:1" fill="#1fadd1" d="M 248.5,158.5 C 251.233,158.948 253.399,160.281 255,162.5C 255.333,162.167 255.667,161.833 256,161.5C 258.333,163.5 260.667,165.5 263,167.5C 263.333,167.167 263.667,166.833 264,166.5C 271.629,171.821 279.296,177.154 287,182.5C 287.333,182.167 287.667,181.833 288,181.5C 290.349,184.24 292.683,186.24 295,187.5C 296.558,186.655 297.558,187.321 298,189.5C 298.333,189.167 298.667,188.833 299,188.5C 300.692,189.782 302.692,191.449 305,193.5C 306.579,192.828 307.746,193.495 308.5,195.5C 303.724,201.396 299.724,207.73 296.5,214.5C 296.719,213.325 296.386,212.325 295.5,211.5C 285.023,205.22 275.523,199.22 267,193.5C 266.667,193.833 266.333,194.167 266,194.5C 264.333,192.833 262.667,191.167 261,189.5C 259.442,190.345 258.442,189.679 258,187.5C 257.667,187.833 257.333,188.167 257,188.5C 250.604,184.049 244.104,179.716 237.5,175.5C 238.11,174.609 238.443,173.609 238.5,172.5C 241.343,167.481 244.676,162.814 248.5,158.5 Z"/></g>
<g><path style="opacity:1" fill="#1da5d6" d="M 237.5,175.5 C 244.104,179.716 250.604,184.049 257,188.5C 257.333,188.167 257.667,187.833 258,187.5C 258.442,189.679 259.442,190.345 261,189.5C 262.667,191.167 264.333,192.833 266,194.5C 266.333,194.167 266.667,193.833 267,193.5C 275.523,199.22 285.023,205.22 295.5,211.5C 296.386,212.325 296.719,213.325 296.5,214.5C 295.669,217.659 294.669,220.659 293.5,223.5C 293.489,221.983 292.823,220.816 291.5,220C 283.159,215.504 275.659,210.671 269,205.5C 268,205.5 267,205.5 266,205.5C 264.333,203.833 262.667,202.167 261,200.5C 259.434,201.061 258.101,200.394 257,198.5C 256.667,198.833 256.333,199.167 256,199.5C 248.281,193.64 240.781,188.307 233.5,183.5C 234.833,180.833 236.167,178.167 237.5,175.5 Z"/></g>
<g><path style="opacity:1" fill="#1a9fda" d="M 233.5,183.5 C 240.781,188.307 248.281,193.64 256,199.5C 256.333,199.167 256.667,198.833 257,198.5C 258.101,200.394 259.434,201.061 261,200.5C 262.667,202.167 264.333,203.833 266,205.5C 267,205.5 268,205.5 269,205.5C 275.659,210.671 283.159,215.504 291.5,220C 292.823,220.816 293.489,221.983 293.5,223.5C 292.957,226.218 292.291,228.885 291.5,231.5C 289.584,229.98 287.084,228.314 284,226.5C 283.667,226.833 283.333,227.167 283,227.5C 282.167,226.5 281.333,225.5 280.5,224.5C 274.098,221.259 268.098,217.425 262.5,213C 254.957,209.538 248.457,205.371 243,200.5C 242.667,200.833 242.333,201.167 242,201.5C 238.285,198.836 234.618,196.169 231,193.5C 230.617,194.056 230.117,194.389 229.5,194.5C 230.558,190.721 231.891,187.054 233.5,183.5 Z"/></g>
<g><path style="opacity:1" fill="#1999de" d="M 291.5,231.5 C 291.5,241.833 291.5,252.167 291.5,262.5C 290.539,260.735 290.205,258.735 290.5,256.5C 290.5,251.833 290.5,247.167 290.5,242.5C 284.403,240.254 278.903,236.921 274,232.5C 273.667,232.833 273.333,233.167 273,233.5C 265.61,228.979 258.61,223.979 252,218.5C 251,218.5 250,218.5 249,218.5C 241.696,213.436 234.196,208.769 226.5,204.5C 227.193,201.059 228.193,197.725 229.5,194.5C 230.117,194.389 230.617,194.056 231,193.5C 234.618,196.169 238.285,198.836 242,201.5C 242.333,201.167 242.667,200.833 243,200.5C 248.457,205.371 254.957,209.538 262.5,213C 268.098,217.425 274.098,221.259 280.5,224.5C 281.333,225.5 282.167,226.5 283,227.5C 283.333,227.167 283.667,226.833 284,226.5C 287.084,228.314 289.584,229.98 291.5,231.5 Z"/></g>
<g><path style="opacity:1" fill="#1592e2" d="M 226.5,204.5 C 234.196,208.769 241.696,213.436 249,218.5C 250,218.5 251,218.5 252,218.5C 258.61,223.979 265.61,228.979 273,233.5C 273.333,233.167 273.667,232.833 274,232.5C 278.903,236.921 284.403,240.254 290.5,242.5C 290.5,247.167 290.5,251.833 290.5,256.5C 284.912,252.207 278.746,247.873 272,243.5C 271.586,243.957 271.086,244.291 270.5,244.5C 266.833,241.667 263.167,238.833 259.5,236C 246.234,228.021 234.567,220.855 224.5,214.5C 224.788,211.061 225.454,207.728 226.5,204.5 Z"/></g>
<g><path style="opacity:1" fill="#188de7" d="M 224.5,214.5 C 234.567,220.855 246.234,228.021 259.5,236C 263.167,238.833 266.833,241.667 270.5,244.5C 271.086,244.291 271.586,243.957 272,243.5C 278.746,247.873 284.912,252.207 290.5,256.5C 290.205,258.735 290.539,260.735 291.5,262.5C 291.5,281.167 291.5,299.833 291.5,318.5C 290.513,313.695 290.179,308.695 290.5,303.5C 290.5,299.5 290.5,295.5 290.5,291.5C 290.5,286.833 290.5,282.167 290.5,277.5C 290.924,273.297 290.424,269.297 289,265.5C 288.667,265.833 288.333,266.167 288,266.5C 275.998,257.698 263.665,250.032 251,243.5C 244.158,239.08 237.492,234.413 231,229.5C 230.667,229.833 230.333,230.167 230,230.5C 227.954,229.089 226.121,227.423 224.5,225.5C 223.831,227.631 223.165,229.631 222.5,231.5C 222.597,225.723 223.264,220.057 224.5,214.5 Z"/></g>
<g><path style="opacity:1" fill="#0f86e9" d="M 290.5,277.5 C 287.434,277.276 284.934,275.943 283,273.5C 282.667,273.833 282.333,274.167 282,274.5C 280.328,271.486 278.328,269.486 276,268.5C 275.667,268.833 275.333,269.167 275,269.5C 258.326,258.346 240.826,247.346 222.5,236.5C 222.5,234.833 222.5,233.167 222.5,231.5C 223.165,229.631 223.831,227.631 224.5,225.5C 226.121,227.423 227.954,229.089 230,230.5C 230.333,230.167 230.667,229.833 231,229.5C 237.492,234.413 244.158,239.08 251,243.5C 263.665,250.032 275.998,257.698 288,266.5C 288.333,266.167 288.667,265.833 289,265.5C 290.424,269.297 290.924,273.297 290.5,277.5 Z"/></g>
<g><path style="opacity:1" fill="#0c80ed" d="M 222.5,236.5 C 240.826,247.346 258.326,258.346 275,269.5C 275.333,269.167 275.667,268.833 276,268.5C 278.328,269.486 280.328,271.486 282,274.5C 282.333,274.167 282.667,273.833 283,273.5C 284.934,275.943 287.434,277.276 290.5,277.5C 290.5,282.167 290.5,286.833 290.5,291.5C 286.519,289.374 282.353,286.708 278,283.5C 277.667,283.833 277.333,284.167 277,284.5C 274.283,281.186 271.116,279.186 267.5,278.5C 253.497,268.267 238.497,258.601 222.5,249.5C 222.5,245.167 222.5,240.833 222.5,236.5 Z"/></g>
<g><path style="opacity:1" fill="#0a79f1" d="M 222.5,249.5 C 238.497,258.601 253.497,268.267 267.5,278.5C 271.116,279.186 274.283,281.186 277,284.5C 277.333,284.167 277.667,283.833 278,283.5C 282.353,286.708 286.519,289.374 290.5,291.5C 290.5,295.5 290.5,299.5 290.5,303.5C 277.807,295.749 265.307,287.749 253,279.5C 248.719,278.299 245.053,275.632 242,271.5C 239.758,272.175 237.591,271.675 235.5,270C 231.008,267.002 226.675,263.835 222.5,260.5C 222.5,256.833 222.5,253.167 222.5,249.5 Z"/></g>
<g><path style="opacity:1" fill="#0d71f8" d="M 222.5,260.5 C 226.675,263.835 231.008,267.002 235.5,270C 237.591,271.675 239.758,272.175 242,271.5C 245.053,275.632 248.719,278.299 253,279.5C 265.307,287.749 277.807,295.749 290.5,303.5C 290.179,308.695 290.513,313.695 291.5,318.5C 291.831,349.671 291.498,380.671 290.5,411.5C 290.833,382.826 290.5,354.159 289.5,325.5C 280.708,319.014 271.042,313.181 260.5,308C 260.833,307.667 261.167,307.333 261.5,307C 258.135,305.965 255.302,304.131 253,301.5C 252,301.5 251,301.5 250,301.5C 241.848,296.022 233.682,290.522 225.5,285C 224.552,284.517 223.552,284.351 222.5,284.5C 222.5,276.5 222.5,268.5 222.5,260.5 Z"/></g>
<g><path style="opacity:1" fill="#0264fe" d="M 222.5,284.5 C 223.552,284.351 224.552,284.517 225.5,285C 233.682,290.522 241.848,296.022 250,301.5C 251,301.5 252,301.5 253,301.5C 255.302,304.131 258.135,305.965 261.5,307C 261.167,307.333 260.833,307.667 260.5,308C 271.042,313.181 280.708,319.014 289.5,325.5C 290.5,354.159 290.833,382.826 290.5,411.5C 267.833,411.5 245.167,411.5 222.5,411.5C 222.5,369.167 222.5,326.833 222.5,284.5 Z"/></g>
</svg>
