<svg width="512" height="512" viewBox="0 0 512 512" fill="none" xmlns="http://www.w3.org/2000/svg">
  <defs>
    <clipPath id="clip0_2_15">
      <rect width="512" height="512" fill="white" />
    </clipPath>
  </defs>
  <g clip-path="url(#clip0_2_15)">
    <rect width="512" height="512" fill="#333333" />
    <path d="M422.5 0L0 422.5V511H91L512.5 89.5V0H422.5Z" fill="#1E1E1E" />
    <path fill-rule="evenodd" clip-rule="evenodd"
      d="M188.752 139.703C174.841 142.356 162.037 152.897 157.23 165.652C156.387 167.89 152.571 179.163 148.751 190.704C144.931 202.244 141.737 211.685 141.651 211.685C141.567 211.685 139.933 210.942 138.021 210.032L134.544 208.379H124.665C111.365 208.379 107.081 210.663 105.402 218.647C103.309 228.608 109.424 234.035 122.765 234.055C131.572 234.067 131.876 234.19 128.204 236.261C120.048 240.86 113.791 250.235 110.527 262.745C108.284 271.342 108.2 273.369 108.2 318.502V361.483L109.315 363.577C111.055 366.841 112.921 368.791 115.738 370.282L118.332 371.656H136.824H155.316L157.849 370.305C163.372 367.358 165.279 363.781 165.599 355.767C165.82 350.257 165.868 350.059 166.905 350.287C187.73 354.854 262.014 357.624 297.17 355.144C313.168 354.015 339.129 351.312 344.159 350.251L345.553 349.958V355.065C345.553 363.22 347.746 367.387 353.659 370.468C356.661 372.033 387.987 372.61 392.851 371.189C396.731 370.058 399.898 367.426 401.619 363.908L403.055 360.974L403.212 323.588C403.385 282.635 403.042 273.27 401.04 264.417C398.07 251.277 390.721 240.083 382.283 235.847L379.243 234.321L388.376 234.065L397.509 233.811L400.029 232.173C410.296 225.499 406.611 209.883 394.408 208.353C387.284 207.459 376.942 208.287 373.214 210.05C371.292 210.959 369.648 211.631 369.56 211.543C369.473 211.455 365.769 200.59 361.328 187.398C356.887 174.206 352.56 162.2 351.713 160.717C346.367 151.369 336.045 143.407 325.034 140.139C320.965 138.93 194.914 138.528 188.752 139.703ZM319.494 153.222C326.428 154.466 335.215 160.566 338.67 166.531C339.435 167.852 343.895 180.496 348.581 194.627C357.834 222.532 357.897 222.827 355.082 225.001C353.447 226.264 159.054 226.448 156.628 225.189C154.949 224.316 153.816 221.909 154.301 220.243C157.811 208.198 171.139 169.03 172.541 166.641C176.18 160.443 184.864 154.322 191.54 153.249C195.699 152.58 315.781 152.555 319.494 153.222ZM152.226 263.984C163.568 269.334 166.184 284.259 157.336 293.141C145.963 304.561 126.602 296.687 126.514 280.608C126.439 267.094 140.099 258.263 152.226 263.984ZM370.272 262.571C384.452 265.855 389.441 283.112 379.184 293.409C372.305 300.316 361.076 300.289 353.964 293.348C341.202 280.896 353.027 258.577 370.272 262.571ZM204.547 326.109C220.026 327.896 230.885 328.384 255.627 328.401C280.582 328.419 286.909 328.156 304.455 326.366C314.154 325.377 313.318 325.244 312.925 327.711C312.224 332.116 308.368 336.298 304.117 337.263C288.407 340.83 212.928 340.318 205.106 336.593C201.452 334.852 198.163 330.334 198.136 327.022C198.123 325.398 198.245 325.381 204.547 326.109Z"
      fill="white" />
    <path d="M241 0L-0.5 241V0H241Z" fill="#1E1E1E" />
    <path d="M271 512L512.5 271V512L271 512Z" fill="#1E1E1E" />
  </g>
</svg>