<svg xmlns="http://www.w3.org/2000/svg" width="256" height="256" fill="none"><path fill="#F3F3F3" d="M0 0h256v256H0z"/><path fill="#DCDCDC" d="M256 43 43 256h89l124-124V43ZM121 0 0 121v88.5L209.5 0H121Z"/><path stroke="#fff" d="M15 146.5V166c.653 1.68 1.223 2.302 2.5 3H26c1.163-1.267 1.553-2.258 1.809-4.5 14.179 1.075 22.21 1.094 36.691 0 .36 2.073.814 3.046 2 4.5h9c.88-.756 1.335-1.266 2-2.5v-19c-1.02-3.239-1.963-4.899-4.5-7.5h3c2.235-2.494 2.817-3.403 0-6h-6c-1.832-9.302-4.015-12.153-9.5-13.5H31c-5.259 2.313-6.694 6.225-8.5 14.5H16c-1.822 1.8-1.713 2.903 0 5h4c-2.458 1.656-3.537 3.105-5 6.5Z"/><path fill="#000" fill-rule="evenodd" d="M15 146.5V166c.653 1.68 1.223 2.302 2.5 3H26c1.163-1.267 1.553-2.258 1.809-4.5 14.179 1.075 22.21 1.094 36.691 0 .36 2.073.814 3.046 2 4.5h9c.88-.756 1.335-1.266 2-2.5v-19c-1.02-3.239-1.963-4.899-4.5-7.5h3c2.235-2.494 2.817-3.403 0-6h-6c-1.832-9.302-4.015-12.153-9.5-13.5H31c-5.259 2.313-6.694 6.225-8.5 14.5H16c-1.822 1.8-1.713 2.903 0 5h4c-2.458 1.656-3.537 3.105-5 6.5Zm52.5-9h-42l3-10c.898-1.836 1.63-2.637 3.5-3.5h28.5c1.958.915 2.826 1.689 4 3.5l3 10ZM23 154a4 4 0 1 0 0-8 4 4 0 0 0 0 8Zm51-4a4 4 0 1 1-8 0 4 4 0 0 1 8 0Zm-40 9h25c-1.088 1.879-1.992 2.494-4 3H38c-2.15-.514-3.037-1.157-4-3Z" clip-rule="evenodd"/><path stroke="#fff" d="M148.5 75.5h-45c-5.122 1.61-6.983 3.876-9.5 9V111h-5c-1.288 1.038-1.765 1.685-2 3v8c.934 1.117 1.347 1.36 2 1.5h5v3.5c-2.532 3.209-3.367 4.957-4 8v31.5c.76 1.518 1.375 1.896 2.5 2.5H103c1.043-.571 1.508-1.076 2-2.5V155c17.183 1.764 26.817 1.724 44 0v11.5c1.004 1.784 1.701 2.136 3 2.5h9c1.112-.593 1.671-1.109 2.5-2.5V135c-.559-2.836-.955-4.455-3.5-8v-3.5h5c.838-.368 1.285-.663 2-1.5v-8c-.231-1.409-.672-2.065-2-3h-5.5V84.5c-2.902-5.731-5.249-7.799-11-9Z"/><path fill="#DE1D16" fill-rule="evenodd" d="M148.5 75.5h-45c-5.122 1.61-6.983 3.876-9.5 9V111h-5c-1.288 1.038-1.765 1.685-2 3v8c.934 1.117 1.347 1.36 2 1.5h5v3.5c-2.532 3.209-3.367 4.957-4 8v31.5c.76 1.518 1.375 1.896 2.5 2.5H103c1.043-.571 1.508-1.076 2-2.5V155c17.183 1.764 26.817 1.724 44 0v11.5c1.004 1.784 1.701 2.136 3 2.5h9c1.112-.593 1.671-1.109 2.5-2.5V135c-.559-2.836-.955-4.455-3.5-8v-3.5h5c.838-.368 1.285-.663 2-1.5v-8c-.231-1.409-.672-2.065-2-3h-5.5V84.5c-2.902-5.731-5.249-7.799-11-9Zm-44.5 62a4.5 4.5 0 1 1-9 0 4.5 4.5 0 0 1 9 0Zm50.5 4.5a4.5 4.5 0 1 0 0-9 4.5 4.5 0 0 0 0 9Zm-13.5 7h-28c.399 1.541.843 2.192 2 3h24c1.1-1.066 1.54-1.721 2-3Zm-38-24.5h48.5L150 111c-.633-1.502-1.179-2.365-3-4h-40c-1.688 1.304-2.317 2.193-3 4l-1 13.5Z" clip-rule="evenodd"/><path stroke="#fff" d="M177.5 140v26.5c.668 1.418 1.278 1.876 2.5 2.5h8.5c1.526-.741 2.172-1.296 3-2.5v-8c15.461 2.121 24.333 2.004 40.5-.5v8.5c.594 1.599 1.163 2.111 2.5 2.5h8.5c1.409-.701 2.016-1.293 2.5-3v-26c-.695-3.007-1.448-4.742-4-8v-1.5h2.5c1.111-.989 1.555-1.646 2-3v-7c-.756-1.32-1.318-1.846-2.5-2.5H239c-.349-5.774-.745-9.05-2-15-1.539-4.596-3.111-6.514-8-8h-35c-4.129 2.172-5.667 4.007-7.5 8-1.298 5.911-1.796 9.187-2.5 15h-5.5c-1.18.784-1.576 1.352-2 2.5v7c.639 1.767 1.089 2.375 2 3h3v2c-2.826 2.274-3.365 4.09-4 7.5Z"/><path fill="#000" fill-rule="evenodd" d="M177.5 140v26.5c.668 1.418 1.278 1.876 2.5 2.5h8.5c1.526-.741 2.172-1.296 3-2.5v-8c15.461 2.121 24.333 2.004 40.5-.5v8.5c.594 1.599 1.163 2.111 2.5 2.5h8.5c1.409-.701 2.016-1.293 2.5-3v-26c-.695-3.007-1.448-4.742-4-8v-1.5h2.5c1.111-.989 1.555-1.646 2-3v-7c-.756-1.32-1.318-1.846-2.5-2.5H239c-.349-5.774-.745-9.05-2-15-1.539-4.596-3.111-6.514-8-8h-35c-4.129 2.172-5.667 4.007-7.5 8-1.298 5.911-1.796 9.187-2.5 15h-5.5c-1.18.784-1.576 1.352-2 2.5v7c.639 1.767 1.089 2.375 2 3h3v2c-2.826 2.274-3.365 4.09-4 7.5Zm12.5 3a4 4 0 1 1-8 0 4 4 0 0 1 8 0Zm47 4a4 4 0 1 0 0-8 4 4 0 0 0 0 8Zm-12 5.5h-27c.673 1.898 1.377 2.614 3 3.5h21c1.357-.968 2.03-1.699 3-3.5Zm-36-22h45l-1.5-12.5c-.603-1.705-1.199-2.596-3-4H193c-1.62 1.423-2.203 2.322-3 4l-1 12.5Z" clip-rule="evenodd"/></svg>