<?xml version="1.0" encoding="utf-8"?>
<svg viewBox="0 0 100 100" width="100" height="100" fill="none" xmlns="http://www.w3.org/2000/svg">
  <defs>
    <linearGradient id="paint0_linear" x1="17.933" y1="27.415" x2="80.282" y2="82.09" gradientUnits="userSpaceOnUse" gradientTransform="matrix(0.89095, 0, 0, 0.89095, 9.143893, 4.765148)">
      <stop stop-color="#FA614C"/>
      <stop offset="1" stop-color="#E30000"/>
    </linearGradient>
    <linearGradient id="paint1_linear" x1="27.786" y1="36.772" x2="27.786" y2="19.478" gradientUnits="userSpaceOnUse" gradientTransform="matrix(0.89095, 0, 0, 0.89095, 9.143893, 4.765148)">
      <stop offset="0.009" stop-color="#fff" stop-opacity=".3"/>
      <stop offset="1" stop-color="#fff"/>
    </linearGradient>
  </defs>
  <rect width="100" height="100" fill="#1E1F27"/>gi
  <path d="M 89.281 25.083 C 89.167 24.062 88.516 23.18 87.573 22.771 C 85.065 21.691 82.539 20.656 79.993 19.668 C 79.404 14.793 78.641 10.622 77.705 7.861 C 77.34 6.787 76.412 6.002 75.293 5.821 C 66.829 4.454 32.623 4.378 24.003 5.816 C 22.89 6.002 21.969 6.785 21.607 7.853 C 20.67 10.615 19.907 14.788 19.317 19.668 C 16.771 20.656 14.244 21.691 11.737 22.772 C 10.793 23.181 10.142 24.063 10.029 25.084 C 9.645 28.568 9.342 32.302 9.148 36.076 C 9.086 37.27 9.774 38.375 10.872 38.848 C 13.744 40.085 16.466 41.165 17.883 41.718 C 17.76 47.748 17.849 53.481 18.154 57.99 C 18.238 59.23 18.487 59.802 18.762 60.079 C 19.275 60.597 20.063 60.731 18.96 62.49 C 18.424 63.345 17.83 64.499 17.83 67.313 L 17.83 84.417 C 17.83 85.867 18.367 86.445 19.921 88.748 C 20.117 91.207 19.946 93.861 21.984 93.861 L 29.751 93.861 C 31.787 93.861 31.625 91.115 31.777 89.21 C 31.777 89.21 40.36 88.89 49.654 88.89 C 58.947 88.89 67.531 89.21 67.531 89.21 C 67.687 91.166 67.52 93.861 69.557 93.861 L 77.323 93.861 C 79.367 93.861 79.193 91.173 79.386 88.748 C 80.832 86.607 81.478 85.932 81.478 84.418 L 81.478 67.312 C 81.478 64.497 80.883 63.344 80.347 62.488 C 79.245 60.729 80.032 60.596 80.546 60.077 C 80.82 59.799 81.069 59.227 81.153 57.989 C 81.458 53.479 81.547 47.745 81.424 41.716 C 83.776 40.799 86.114 39.843 88.435 38.848 C 89.533 38.374 90.221 37.268 90.16 36.074 C 89.974 32.402 89.681 28.737 89.281 25.082 L 89.281 25.083 Z M 17.925 39.985 C 16.746 39.57 15.581 39.119 14.43 38.634 C 14.765 29.262 15.538 24.505 15.747 22.834 C 16.855 22.366 17.976 21.926 19.107 21.512 C 18.488 27.216 18.094 33.712 17.925 39.985 Z M 22.563 19.787 C 22.604 19.364 22.953 19.036 23.379 19.023 C 40.094 18.315 55.763 18.103 75.929 19.025 C 76.355 19.038 76.704 19.365 76.746 19.789 C 77.031 22.949 77.513 28.472 77.281 32.92 C 76.906 40.131 75.699 39.996 70.855 40.342 C 64.92 40.762 34.295 40.756 28.453 40.342 C 23.609 39.997 22.401 40.131 22.026 32.92 C 21.796 28.472 22.278 22.946 22.563 19.787 Z M 31.035 81.787 C 30.804 82.067 30.454 82.219 30.092 82.197 C 28.138 82.078 26.318 81.867 24.445 81.6 C 23.108 81.409 22.095 80.295 22.034 78.945 L 21.568 68.92 C 21.538 68.271 22.087 67.746 22.734 67.803 C 24.055 67.924 24.723 68.022 25.992 68.103 C 27.207 68.18 28.235 69.031 28.538 70.212 L 31.257 80.784 C 31.348 81.135 31.265 81.508 31.035 81.787 Z M 62.33 78.914 L 60.978 82.966 C 60.749 83.56 60.183 83.956 59.547 83.969 C 59.515 83.97 50.419 84.156 39.764 83.969 C 39.126 83.957 38.56 83.561 38.332 82.966 L 36.98 78.914 C 36.947 78.829 36.935 78.736 36.947 78.645 C 36.982 78.36 37.227 78.147 37.514 78.153 C 42.776 78.245 52.923 78.311 61.796 78.153 C 62.193 78.146 62.472 78.543 62.33 78.914 Z M 64.579 69.132 L 63.226 73.182 C 62.998 73.777 62.432 74.175 61.795 74.185 C 55.35 74.298 43.527 74.29 37.515 74.185 C 36.878 74.174 36.312 73.777 36.084 73.182 L 34.731 69.131 C 34.698 69.045 34.687 68.953 34.698 68.862 C 34.733 68.577 34.978 68.364 35.266 68.369 C 42.932 68.505 57.121 68.491 64.044 68.369 C 64.442 68.362 64.721 68.759 64.579 69.131 L 64.579 69.132 Z M 66.733 59.997 C 58.265 60.144 41.855 60.157 32.576 59.997 C 31.592 59.98 30.734 59.327 30.455 58.384 L 28.492 51.275 C 28.337 50.75 28.736 50.226 29.283 50.236 C 40.276 50.432 59.936 50.416 70.025 50.236 C 70.571 50.227 70.969 50.75 70.816 51.274 L 68.853 58.383 C 68.575 59.327 67.716 59.98 66.733 59.997 Z M 77.276 78.944 C 77.215 80.294 76.202 81.409 74.865 81.6 C 72.993 81.867 71.172 82.079 69.218 82.197 C 68.45 82.243 67.86 81.529 68.052 80.784 L 70.771 70.212 C 71.073 69.031 72.101 68.18 73.317 68.103 C 74.586 68.023 75.253 67.925 76.576 67.803 C 77.221 67.746 77.769 68.272 77.741 68.92 L 77.276 78.944 Z M 81.385 39.985 C 81.216 33.713 80.822 27.216 80.203 21.512 C 81.002 21.804 82.221 22.266 83.563 22.833 C 83.772 24.504 84.545 29.261 84.88 38.633 C 83.729 39.119 82.563 39.57 81.385 39.985 Z" fill="url(#paint0_linear)" style=""/>
  <path d="M 26.036 37.261 C 25.878 37.43 25.597 37.38 25.507 37.166 C 25.099 36.205 24.417 33.042 25.264 22.711 C 25.303 22.225 25.699 21.846 26.185 21.827 C 31.659 21.603 37.135 21.448 42.613 21.362 C 42.862 21.363 43.017 21.633 42.891 21.848 C 42.873 21.88 42.848 21.91 42.819 21.934 C 35.886 27.483 31.5 31.463 26.036 37.261 Z" fill="url(#paint1_linear)" style=""/>
</svg>