<svg xmlns="http://www.w3.org/2000/svg" viewBox="0 0 256 256">
  <g id="Layer_2" data-name="Layer 2">
    <g id="Layer_1-2" data-name="Layer 1">
      <rect width="256" height="256" fill="#42d5ff"/>
      <g>
        <path d="M74.1,194.31A18.9,18.9,0,0,1,73,181c.27-.94-.4-1-1-1.23a82.22,82.22,0,0,1-17.77-9,70.14,70.14,0,0,1-16.89-16,9.43,9.43,0,0,1,5.4-15.13c1.88-.4,3.82-.2,5.71-.56A8.67,8.67,0,0,0,55,134.22a33.07,33.07,0,0,0,2.77-10.45c.92-6.72,1.07-13.52,1.94-20.25A60.6,60.6,0,0,1,73.25,72.33c11.47-14,26.26-22.82,43.67-27.14,24-5.94,46.34-1.69,66.75,12.21a71.85,71.85,0,0,1,25.93,31A65.41,65.41,0,0,1,215,120.09a66.63,66.63,0,0,1-12.83,35.42,77.9,77.9,0,0,1-27.42,23.18c-1.1.56-1.35,1-1,2.25a18.62,18.62,0,0,1-1.14,13.61,23.31,23.31,0,0,1-4.44,5.73l-.4.29c-6.83,5.13-14,5.79-21.51,1.63a1.75,1.75,0,0,0-1-.39A40.85,40.85,0,0,0,142.2,199a19.28,19.28,0,0,1-4.79-10.6c-.11-1.09-.49-1.32-1.53-1.32Q124,187.1,112,187c-2.22,0-2.26-.07-2.6,2a19.85,19.85,0,0,1-5.07,10.23l-2.37,2c-.14.08-.29.16-.42.25A18.28,18.28,0,0,1,88,204.61a19.08,19.08,0,0,1-9.6-4.56A23,23,0,0,1,74.1,194.31ZM44.81,148.9c.23.35.31.5.41.63.49.62,1,1.24,1.48,1.85,8.34,10,19,16.41,31.18,20.5a1.39,1.39,0,0,0,1.53-.42,18.61,18.61,0,0,1,27.48,4.88,1.85,1.85,0,0,0,1.75,1c9.83.34,19.66.25,29.49.26a1.76,1.76,0,0,0,1.73-1A18.6,18.6,0,0,1,167,171.06a1.46,1.46,0,0,0,1.77.15A68.79,68.79,0,0,0,193,152c11-13.87,14.82-29.71,11.83-47-2.55-14.85-10.28-26.89-21.88-36.3C166.48,55.32,147.6,49.93,126.6,52.89A72.55,72.55,0,0,0,85.27,73.1,53.32,53.32,0,0,0,69.89,100c-1.4,6.2-1.52,12.55-2.1,18.84-.49,5.35-1.05,10.69-2.78,15.81-2.2,6.58-6.16,11.46-13.12,13.36A27.47,27.47,0,0,1,44.81,148.9Zm111.12,31.17a6.11,6.11,0,0,0-6.17,6,6.13,6.13,0,1,0,12.25.05A5.92,5.92,0,0,0,155.93,180.07Zm-65.05,0a6.14,6.14,0,0,0-6.1,6,6.42,6.42,0,0,0,6.15,6.28,6.12,6.12,0,0,0,6.1-6.2A5.82,5.82,0,0,0,90.88,180.07Z" fill="#3a5159"/>
        <path d="M44.81,148.9a27.47,27.47,0,0,0,7.08-.87c7-1.9,10.92-6.78,13.12-13.36,1.73-5.12,2.29-10.46,2.78-15.81.58-6.29.7-12.64,2.1-18.84A53.32,53.32,0,0,1,85.27,73.1,72.55,72.55,0,0,1,126.6,52.89c21-3,39.88,2.43,56.33,15.77,11.6,9.41,19.33,21.45,21.88,36.3,3,17.32-.83,33.16-11.83,47a68.79,68.79,0,0,1-24.26,19.22,1.46,1.46,0,0,1-1.77-.15,18.6,18.6,0,0,0-27.09,5.52,1.76,1.76,0,0,1-1.73,1c-9.83,0-19.66.08-29.49-.26a1.85,1.85,0,0,1-1.75-1,18.61,18.61,0,0,0-27.48-4.88,1.39,1.39,0,0,1-1.53.42c-12.2-4.09-22.84-10.55-31.18-20.5-.51-.61-1-1.23-1.48-1.85C45.12,149.4,45,149.25,44.81,148.9Zm91-1.23c8.69-.13,15.93-2.14,22.33-6.7a27.77,27.77,0,0,0,11.22-15.43,5.19,5.19,0,0,0-.08-3.54,4.71,4.71,0,0,0-4.55-2.89,4.62,4.62,0,0,0-4.34,3.52c-1.74,6.12-5.86,10.1-11.4,12.82a28.7,28.7,0,0,1-11.31,2.73c-11.94.65-22.35-7.25-23.93-16a4.43,4.43,0,0,0-5.43-3.24,4.65,4.65,0,0,0-3.62,5.33,23.38,23.38,0,0,0,5.86,11.93A33.77,33.77,0,0,0,135.83,147.67Zm22.48-58.34a9.5,9.5,0,1,0,9.12,9.47A9.31,9.31,0,0,0,158.31,89.33Zm-42.19,0a9.5,9.5,0,1,0,9.14,9.56A9.33,9.33,0,0,0,116.12,89.33Z" fill="#fefefe"/>
        <path d="M155.93,180.07a5.92,5.92,0,0,1,6.08,6,6.13,6.13,0,1,1-6.08-6Z" fill="#556b72"/>
        <path d="M90.88,180.07A5.82,5.82,0,0,1,97,186.12a6.12,6.12,0,0,1-6.1,6.2A6.42,6.42,0,0,1,84.78,186,6.14,6.14,0,0,1,90.88,180.07Z" fill="#556b72"/>
        <path d="M135.83,147.67a33.77,33.77,0,0,1-25.25-11.51,23.38,23.38,0,0,1-5.86-11.93,4.65,4.65,0,0,1,3.62-5.33,4.43,4.43,0,0,1,5.43,3.24c1.58,8.79,12,16.69,23.93,16A28.7,28.7,0,0,0,149,135.45c5.54-2.72,9.66-6.7,11.4-12.82a4.62,4.62,0,0,1,4.34-3.52A4.71,4.71,0,0,1,169.3,122a5.19,5.19,0,0,1,.08,3.54A27.77,27.77,0,0,1,158.16,141C151.76,145.53,144.52,147.54,135.83,147.67Z" fill="#3a5159"/>
        <path d="M158.31,89.33A9.5,9.5,0,1,1,149,98.76,9.35,9.35,0,0,1,158.31,89.33Z" fill="#3a5159"/>
        <path d="M116.12,89.33a9.5,9.5,0,1,1-9.25,9.46A9.32,9.32,0,0,1,116.12,89.33Z" fill="#3a5159"/>
      </g>
    </g>
  </g>
</svg>
