<svg xmlns="http://www.w3.org/2000/svg" viewBox="0 0 256 256">
  <g id="Layer_2" data-name="Layer 2">
    <g id="Layer_1-2" data-name="Layer 1">
      <rect width="256" height="256" fill="#fff"/>
      <g>
        <path d="M132.37,176.27c-6.23,5.48-12.14,11.25-16.1,18.68a22.85,22.85,0,0,0-2.68,8.5,5,5,0,0,1-3.16,4.56,4.63,4.63,0,0,1-6.27-3.71,33.51,33.51,0,0,0-1.88-7.32,47.42,47.42,0,0,0-9.16-13.13c-6.61-7.07-14.18-13.06-21.63-19.19-7.08-5.82-13.49-12.21-18.1-20.24A64,64,0,0,1,95.8,49.59c20.67-4.17,39.19.89,55.29,14.61,2,1.67,3.71,3.57,5.51,5.41.5.61,1,1.21,1.5,1.81a76.75,76.75,0,0,1,7.29,10.76c.22.49.44,1,.68,1.46a63.61,63.61,0,0,1,5.57,40.85,68.24,68.24,0,0,1-5.36,16.13,66.91,66.91,0,0,1-13.92,18.54c-2.38,2.19-4.85,4.26-7.28,6.39-1.26,1-2.53,2-3.76,3C138.3,171.11,135.21,173.55,132.37,176.27Zm-23.63-42.66a21.35,21.35,0,1,0-21.3-21.46A21.32,21.32,0,0,0,108.74,133.61Z" fill="#f43"/>
        <path d="M165.39,82.18a76.75,76.75,0,0,0-7.29-10.76c-.51-.6-1-1.2-1.5-1.81,4.7.06,9.4,0,14.09.2,4.11.12,8.22.37,12.32.64a88.25,88.25,0,0,1,12.27,1.24,12.3,12.3,0,0,1,9.52,11.54c0,.33,0,.67,0,1,0,3.15,0,3.15,3.14,3.91,3.41.84,4.07,1.64,4,5.19-.07,5.07.24,10.15-.21,15.21a17.92,17.92,0,0,1-1.82,6.69,7.21,7.21,0,0,1-4.35,3.87c-.94.28-.79.91-.79,1.55V168c0,2.79,0,5.58,0,8.36h-23.7c-.36,0-.75-.11-1.08.15a17.41,17.41,0,0,0-4.08-.14c-2.2-.06-4.4,0-6.6-.06-.08-.61-.11-1.24-.25-1.84A10.84,10.84,0,0,0,165.3,168a11.64,11.64,0,0,0-7.62-2.46l-12.6,0c2.43-2.13,4.9-4.2,7.28-6.39a66.91,66.91,0,0,0,13.92-18.54,2.1,2.1,0,0,0,.47.14c8.4,0,16.8.1,25.2,0,4.48-.08,7.23-3.27,7.08-7.78-.07-2.15-.3-4.31-.43-6.46-.69-11.16-1.4-22.31-2-33.47-.28-4.88-4.19-9.4-8.89-9.79C180.26,82.59,172.83,82.27,165.39,82.18Zm21.76,65.66a10.7,10.7,0,1,0,10.62,10.66A10.74,10.74,0,0,0,187.15,147.84Z" fill="#198cff"/>
        <path d="M180,176.46c.33-.26.72-.15,1.08-.15h23.7c0,3.65.06,7.31,0,11a3.33,3.33,0,0,1-3.28,3.25q-7.72.06-15.45,0a3.42,3.42,0,0,1-3.23-2.63C181.87,184.08,180.94,180.27,180,176.46Z" fill="#020202"/>
        <path d="M145.08,165.55l12.6,0A11.64,11.64,0,0,1,165.3,168a10.84,10.84,0,0,1,3.77,6.39c.14.6.17,1.23.25,1.84-4.33,0-8.65,0-13,0l-24,0c2.84-2.72,5.93-5.16,8.95-7.68C142.55,167.55,143.82,166.56,145.08,165.55Z" fill="#1369bf"/>
      </g>
    </g>
  </g>
</svg>
